<?xml version="1.0" encoding="UTF-8"?>
<svg width="40px" height="37px" viewBox="0 0 40 37" version="1.1" xmlns="http://www.w3.org/2000/svg" xmlns:xlink="http://www.w3.org/1999/xlink">
    <!-- Generator: Sketch 54.1 (76490) - https://sketchapp.com -->
    <title>collaboration</title>
    <desc>Created with Sketch.</desc>
    <g id="Designs" stroke="none" stroke-width="1" fill="none" fill-rule="evenodd">
        <g id="Who-We-Are" transform="translate(-297.000000, -1232.000000)" fill="#FFEE93">
            <g id="collaboration" transform="translate(297.000000, 1232.000000)">
                <path d="M39.691384,25.954152 L37.7881481,24.0664327 C37.4822612,23.7630409 36.988538,23.7651462 36.6852242,24.0709552 C36.3818324,24.3767641 36.3839376,24.8705653 36.6897466,25.1738791 L38.5929045,27.0615984 C38.7449513,27.2124756 38.9435478,27.2877973 39.1420663,27.2877973 C39.3426901,27.2877973 39.5433138,27.2108382 39.6957505,27.057076 C39.9992203,26.7512671 39.997193,26.2574659 39.691384,25.954152 Z" id="Path"></path>
                <path d="M35.8488889,22.1349708 C35.5443275,21.8304094 35.0506823,21.8304094 34.7459649,22.1349708 L34.7446394,22.1362963 C34.440078,22.4408577 34.4407797,22.9340351 34.7453411,23.2385965 C34.8973879,23.3907212 35.0969201,23.4667446 35.2963743,23.4667446 C35.4962963,23.4667446 35.6963743,23.3904094 35.8488109,23.2379727 C36.1533723,22.9334113 36.1533723,22.4396101 35.8488889,22.1349708 Z" id="Path"></path>
                <path d="M29.2002339,25.7309942 L36.76577,18.1655361 C37.9115789,17.0196491 37.9115789,15.1551657 36.765692,14.0092788 C36.3616374,13.6052242 35.8681481,13.3443275 35.3483821,13.2252632 C35.5266277,12.8421053 35.6209747,12.4215984 35.6209747,11.9864327 C35.6209747,11.2014035 35.3152437,10.4633918 34.7602339,9.90838207 C34.3249123,9.47298246 33.7768421,9.19181287 33.1819883,9.09052632 C33.5168811,8.07017544 33.2801559,6.90159844 32.4702534,6.09177388 C32.0249513,5.64654971 31.4711111,5.37520468 30.8930994,5.27602339 C30.9899415,4.98214425 31.0410136,4.67181287 31.0410136,4.35337232 C31.0410136,3.56834308 30.7352827,2.83033138 30.1802729,2.27532164 C29.6251852,1.72031189 28.8871735,1.4145809 28.1022222,1.4145809 C27.6037427,1.4145809 27.1244444,1.53824561 26.6986355,1.77044834 L26.6233918,1.68959064 C25.6454581,0.638674464 24.2612086,0.0360233918 22.825809,0.0360233918 L16.7018324,0.0360233918 C16.2711891,0.0360233918 15.9219493,0.385263158 15.9219493,0.815906433 L15.9219493,1.83859649 C15.9219493,2.24787524 15.9911891,2.64631579 16.1235867,3.02097466 C15.7708382,2.87446394 15.3891618,2.79750487 14.9957115,2.79750487 C14.2106823,2.79750487 13.4726706,3.10323587 12.9175828,3.65824561 C12.1072904,4.46853801 11.8707992,5.63797271 12.2064717,6.65863548 C11.6279922,6.75758285 11.0733723,7.02908382 10.6276803,7.47469786 C10.0726706,8.02978558 9.76693957,8.76779727 9.76693957,9.55274854 C9.76693957,9.8705653 9.81785575,10.1804288 9.91430799,10.4736842 C9.32015595,10.5752827 8.77263158,10.8562963 8.33769981,11.291306 C7.44280702,12.1861988 7.2468616,13.5195322 7.74986355,14.6063938 C7.21723197,14.7281092 6.72803119,14.9963353 6.33208577,15.3922027 C5.1862768,16.5380117 5.1862768,18.4024951 6.33208577,19.5483821 L7.88795322,21.1041715 L0.228382066,28.7635867 C-0.0761793372,29.0681481 -0.0761793372,29.5619493 0.228382066,29.8665887 C0.380662768,30.0187914 0.580272904,30.0950487 0.779805068,30.0950487 C0.979337232,30.0950487 1.17894737,30.0188694 1.33122807,29.8665887 L9.06471735,22.1330994 C9.50253411,22.382924 9.99937622,22.5165692 10.517193,22.5165692 C11.3021442,22.5165692 12.0401559,22.2108382 12.5952437,21.6557505 C13.1982846,21.0527875 13.4835088,20.2506823 13.4517739,19.4591033 C13.491306,19.4607407 13.5308382,19.4619103 13.5703704,19.4619103 C14.322807,19.4618324 15.0756335,19.1753606 15.6484211,18.6025731 C16.2034308,18.0474854 16.5091618,17.3094737 16.5091618,16.5245224 C16.5091618,16.4848343 16.5078363,16.4453801 16.5062768,16.4059259 C16.5453411,16.4074854 16.5844055,16.4087329 16.6235478,16.4087329 C17.3760624,16.4087329 18.1287329,16.1222612 18.7015984,15.5493957 C19.2566082,14.994308 19.5623392,14.2562963 19.5623392,13.471345 C19.5623392,13.4316569 19.5610136,13.3922027 19.5594542,13.3527485 C19.5985185,13.354308 19.6375828,13.3555556 19.6767251,13.3555556 C20.4293177,13.3555556 21.1819103,13.0690838 21.7547758,12.4962183 C22.831423,11.4195712 22.8962183,9.70861598 21.9497076,8.55532164 L27.1266277,3.37840156 C27.3871345,3.11781676 27.7333333,2.97442495 28.1017544,2.97442495 C28.4701754,2.97442495 28.8164522,3.11781676 29.0769591,3.37840156 C29.3374659,3.63890838 29.4808577,3.98510721 29.4808577,4.35352827 C29.4808577,4.72187135 29.3374659,5.06822612 29.0768811,5.32865497 L28.3136062,6.09192982 L25.5441715,8.86136452 C25.2396101,9.16592593 25.2396101,9.6597271 25.5441715,9.96436647 C25.6964522,10.1165692 25.8960624,10.1928265 26.0955945,10.1928265 C26.2951267,10.1928265 26.4947368,10.1166472 26.6470175,9.96436647 L29.4164522,7.19493177 C29.9540741,6.65723197 30.8290058,6.657154 31.3667836,7.1948538 C31.9044834,7.73263158 31.9044834,8.60748538 31.3667836,9.14526316 L30.6034308,9.90861598 L28.5973489,11.9146979 C28.2927875,12.2192593 28.2927875,12.7130604 28.5973489,13.0176998 C28.7496296,13.1699025 28.9492398,13.2461598 29.1487719,13.2461598 C29.3483041,13.2461598 29.5479142,13.1699805 29.7001949,13.0176998 L31.7062768,11.0116179 C31.9667836,10.7510331 32.3130604,10.6076413 32.6814035,10.6076413 C33.0498246,10.6076413 33.3961014,10.7510331 33.6566082,11.0116179 C33.917115,11.2721248 34.0605068,11.6183236 34.0605068,11.9867446 C34.0605068,12.3550877 33.917115,12.7014425 33.6565302,12.9618713 L32.6088109,14.0095906 L31.6504483,14.9679532 C31.3458869,15.2725146 31.3458869,15.7663158 31.6504483,16.0709552 C31.802729,16.2231579 32.0023392,16.2994152 32.2018713,16.2994152 C32.4014035,16.2994152 32.6010136,16.2232359 32.7532943,16.0709552 L33.7123587,15.1118908 C34.2501365,14.5750487 35.1245224,14.5751267 35.6619883,15.1125926 C36.1997661,15.6502924 36.1997661,16.5252242 35.6619883,17.0630019 L28.0964522,24.62846 C26.1967251,26.5282651 23.6718908,27.6280702 20.9870565,27.7255361 C20.7897076,27.7327096 20.6022612,27.8145029 20.462846,27.9545419 L13.4739961,34.9692788 C13.1699805,35.274386 13.1708382,35.7681871 13.4760234,36.0722027 C13.6281481,36.2237817 13.8272904,36.2996491 14.0264327,36.2996491 C14.2264327,36.2996491 14.4265887,36.2231579 14.5788694,36.0701754 L19.7193762,30.9107212 C21.0251072,31.7483821 22.5607018,32.1466667 24.1221053,32.0434308 L28.1453411,36.0667446 C28.2976218,36.2189474 28.497232,36.2952047 28.6967641,36.2952047 C28.8963743,36.2952047 29.0959064,36.2190253 29.2481871,36.0667446 C29.5527485,35.7621832 29.5527485,35.2683821 29.2481871,34.9637427 L24.9706043,30.685692 C24.808655,30.5238207 24.5836257,30.4410916 24.3553996,30.4598051 L24.1081481,30.480078 C22.9668616,30.5736452 21.8387524,30.3236647 20.8538012,29.7716959 L21.3550097,29.268694 C24.3192203,29.085848 27.094425,27.8368811 29.2002339,25.7309942 Z M11.4923977,20.5529045 C11.2318908,20.8134893 10.8855361,20.9568811 10.517271,20.9568811 C10.1488499,20.9568811 9.8025731,20.8134893 9.54214425,20.5529045 L7.4348538,18.445692 C6.897154,17.9079922 6.897154,17.0330604 7.4348538,16.4952827 C7.69536062,16.2346979 8.0417154,16.091306 8.41005848,16.091306 C8.77840156,16.091306 9.12475634,16.2346979 9.38518519,16.4952827 L11.4924756,18.6024951 C12.0300975,19.1401949 12.0300975,20.0151267 11.4923977,20.5529045 Z M14.545731,17.4995712 C14.0079532,18.037271 13.1328655,18.037271 12.5953216,17.4995712 L10.4880312,15.3922807 L9.44023392,14.3444834 C8.90253411,13.8067836 8.90253411,12.9318519 9.44023392,12.394152 C9.70074074,12.1335673 10.0470955,11.9901754 10.4153606,11.9901754 C10.7837817,11.9901754 11.1300585,12.1335673 11.3904873,12.394152 L14.5454971,15.5491618 C14.5454971,15.5491618 14.5454971,15.5491618 14.545575,15.5491618 C14.8061598,15.8097466 14.9495517,16.1560234 14.9495517,16.5243665 C14.9495517,16.8927096 14.8061598,17.2390643 14.545731,17.4995712 Z M17.5989084,14.4463158 C17.0611306,14.9839376 16.1861209,14.9840156 15.648499,14.4463158 L11.7301365,10.5279532 C11.4696296,10.2674464 11.3262378,9.92124756 11.3262378,9.55282651 C11.3262378,9.18448343 11.4696296,8.83812865 11.7302144,8.57769981 C11.9990643,8.3088499 12.3522807,8.17442495 12.7053411,8.17442495 C13.0582456,8.17442495 13.4110721,8.30869396 13.6798441,8.57707602 L15.465731,10.362963 L17.5987524,12.4959844 L17.5988304,12.4959844 C17.8592593,12.7564912 18.0026511,13.1026901 18.0026511,13.4711111 C18.002807,13.8395322 17.8594152,14.1858869 17.5989084,14.4463158 Z M20.6521637,11.3930604 C20.1144639,11.9307602 19.2395322,11.9307602 18.7018324,11.3930604 L14.7834698,7.47469786 C14.7830799,7.47430799 14.7826121,7.47391813 14.7821442,7.47345029 L14.020117,6.711423 C13.4824172,6.17364522 13.4824172,5.29879142 14.020117,4.76101365 C14.2889669,4.49208577 14.6421832,4.35766082 14.9953216,4.35766082 C15.34846,4.35766082 15.7016764,4.49208577 15.9704483,4.76101365 L20.6520078,9.4425731 C20.9125926,9.70307992 21.0559844,10.0493567 21.0559844,10.4176998 C21.0560624,10.7861988 20.9127485,11.1326316 20.6521637,11.3930604 Z M20.857232,7.44202729 L18.7151657,5.29996101 C18.9580507,5.35181287 19.2077973,5.37933723 19.4619883,5.37925926 C19.4676803,5.37925926 19.4734503,5.37925926 19.4792203,5.37925926 L21.6194152,5.36920078 C22.0500585,5.36717349 22.3976608,5.01637427 22.3956335,4.58565302 C22.3936062,4.15617934 22.0448343,3.8094347 21.6158285,3.8094347 C21.6145809,3.8094347 21.6133333,3.8094347 21.6120858,3.8094347 L19.4718908,3.81949318 C19.468616,3.81949318 19.4654971,3.81949318 19.4622222,3.81949318 C18.9348928,3.81949318 18.4389084,3.61481481 18.0649513,3.24265107 C17.688655,2.86807018 17.4814815,2.36951267 17.4814815,1.83851852 L17.4814815,1.5957115 L22.825575,1.5957115 C23.8294737,1.5957115 24.7975049,2.017154 25.4814815,2.75212476 L25.5132164,2.78619883 L20.857232,7.44202729 Z" id="Shape"></path>
            </g>
        </g>
    </g>
</svg>