<?xml version="1.0" encoding="UTF-8"?>
<svg width="12px" height="10px" viewBox="0 0 12 10" version="1.1" xmlns="http://www.w3.org/2000/svg" xmlns:xlink="http://www.w3.org/1999/xlink">
    <!-- Generator: Sketch 54.1 (76490) - https://sketchapp.com -->
    <title>external-link-symbol</title>
    <desc>Created with Sketch.</desc>
    <g id="Page-1" stroke="none" stroke-width="1" fill="none" fill-rule="evenodd">
        <g id="external-link-symbol" fill="#FFFFFF" fill-rule="nonzero">
            <path d="M8.92856818,5.82622727 L8.51325,5.82622727 C8.45259091,5.82622727 8.40281818,5.84565909 8.36409091,5.88470455 C8.32504545,5.92352273 8.30561364,5.97327273 8.30561364,6.03386364 L8.30561364,8.11025 C8.30561364,8.39577273 8.20402273,8.64013636 8.00072727,8.84347727 C7.79743182,9.04677273 7.55297727,9.14834091 7.26745455,9.14834091 L1.86872727,9.14834091 C1.58322727,9.14834091 1.33879545,9.04677273 1.13545455,8.84347727 C0.932159091,8.64015909 0.830522727,8.39579545 0.830522727,8.11025 L0.830522727,2.71159091 C0.830522727,2.42609091 0.932136364,2.18175 1.13545455,1.97843182 C1.33879545,1.77509091 1.58322727,1.67347727 1.86872727,1.67347727 L6.43677273,1.67347727 C6.49743182,1.67347727 6.54720455,1.65395455 6.58609091,1.61506818 C6.62497727,1.57613636 6.64440909,1.52643182 6.64440909,1.46581818 L6.64440909,1.05047727 C6.64440909,0.989977273 6.62497727,0.940181818 6.58609091,0.901318182 C6.54720455,0.862386364 6.49743182,0.842954545 6.43677273,0.842954545 L1.86872727,0.842954545 C1.354,0.842954545 0.913818182,1.02572727 0.548227273,1.39125 C0.182772727,1.75675 0,2.19693182 0,2.71165909 L0,8.11034091 C0,8.62504545 0.182772727,9.06529545 0.54825,9.43068182 C0.913840909,9.79622727 1.35402273,9.97909091 1.86875,9.97909091 L7.26745455,9.97909091 C7.78215909,9.97909091 8.22238636,9.79622727 8.58793182,9.43068182 C8.9535,9.06529545 9.13627273,8.62506818 9.13627273,8.11034091 L9.13627273,6.03402273 C9.13627273,5.97336364 9.11681818,5.92359091 9.07777273,5.88470455 C9.03884091,5.84565909 8.98906818,5.82622727 8.92856818,5.82622727 Z" id="Path"></path>
            <path d="M11.5045227,0.135704545 C11.4223182,0.0535 11.3248636,0.0124318182 11.2124773,0.0124318182 L7.89025,0.0124318182 C7.77779545,0.0124318182 7.68040909,0.0535 7.59827273,0.135704545 C7.51606818,0.217863636 7.47490909,0.315204545 7.47490909,0.427681818 C7.47490909,0.540159091 7.51606818,0.637522727 7.59827273,0.719727273 L8.74025,1.86172727 L4.50963636,6.09243182 C4.46631818,6.13568182 4.44472727,6.18545455 4.44472727,6.24159091 C4.44472727,6.29793182 4.46638636,6.34768182 4.50963636,6.39093182 L5.24936364,7.13056818 C5.29261364,7.17381818 5.34238636,7.19538636 5.39861364,7.19538636 C5.45484091,7.19538636 5.50463636,7.17384091 5.54786364,7.13056818 L9.7785,2.89993182 L10.9205682,4.04193182 C11.0027045,4.12413636 11.1000682,4.16525 11.2125455,4.16525 C11.3250227,4.16525 11.4223864,4.12413636 11.5046136,4.04193182 C11.5868182,3.95975 11.6278864,3.86243182 11.6278864,3.74995455 L11.6278864,0.427681818 C11.6278636,0.315136364 11.5866591,0.217863636 11.5045227,0.135704545 Z" id="Path"></path>
        </g>
    </g>
</svg>