<?xml version="1.0" encoding="UTF-8"?>
<svg width="50px" height="50px" viewBox="0 0 50 50" version="1.1" xmlns="http://www.w3.org/2000/svg" xmlns:xlink="http://www.w3.org/1999/xlink">
    <!-- Generator: Sketch 54.1 (76490) - https://sketchapp.com -->
    <title>global</title>
    <desc>Created with Sketch.</desc>
    <g id="Designs" stroke="none" stroke-width="1" fill="none" fill-rule="evenodd">
        <g id="Who-We-Are" transform="translate(-597.000000, -1226.000000)" fill="#FFEE93">
            <g id="global" transform="translate(597.000000, 1226.000000)">
                <path d="M24.9620582,0.0051975052 C14.9776507,0.00374220374 5.9539501,5.95519751 2.02411642,15.1336798 L1.71309771,15.2367983 L1.83367983,15.5985447 C-3.34054054,28.3600832 2.81008316,42.899896 15.5716216,48.0741164 C18.552183,49.2826403 21.7383576,49.9030146 24.9546778,49.9012474 C38.7330561,49.9033264 49.9043659,38.735343 49.9064449,24.9569647 C49.9085239,11.1785863 38.7405405,0.00717255717 24.9620582,0.0051975052 Z M44.5309771,37.5316008 L43.249896,36.2513514 L43.249896,33.2692308 C43.2513514,33.1405405 43.222869,33.0133056 43.166736,32.8975052 L39.9234927,26.4201663 L39.9234927,23.2900208 C39.9234927,23.0120582 39.7847193,22.7523909 39.5534304,22.5981289 L37.0586279,20.9349272 C36.8630977,20.8043659 36.6214137,20.7626819 36.3933472,20.8201663 L33.3380457,21.5835759 L28.206237,19.3814969 L27.5002079,14.4351351 L29.4569647,12.47921 L33.6573805,12.47921 L35.0711019,14.6039501 C35.1987526,14.7950104 35.399896,14.9248441 35.6266112,14.9623701 L40.6162162,15.7939709 C40.749896,15.8164241 40.8869023,15.8055094 41.0153846,15.7623701 L45.6108108,14.2305613 C49.4651767,21.627131 49.0529106,30.5232848 44.5309771,37.5316008 Z M41.1010395,8.1997921 L39.7488565,9.1012474 L35.97921,8.34698545 L33.5334719,7.53284823 C33.3837838,7.48201663 33.2226611,7.47557173 33.0694387,7.51455301 L29.9775468,8.28711019 L28.6220374,7.83555094 L29.6266112,5.82640333 L32.4390852,5.82640333 C32.5680873,5.82650728 32.6953222,5.7966736 32.8108108,5.73908524 L35.6881497,4.3004158 C37.6696466,5.33471933 39.4925156,6.64781705 41.1010395,8.1997921 Z M15.8461538,3.52536383 L17.8419958,4.85592516 C17.9401247,4.92120582 18.0509356,4.96486486 18.1671518,4.98399168 L22.1970894,5.65592516 L21.8037422,6.83264033 L19.7039501,7.53367983 C19.5159044,7.5962578 19.356341,7.72390852 19.2540541,7.89376299 L16.8656965,11.8738046 L13.0295218,14.1756757 L7.37463617,14.9831601 C6.96476091,15.0410603 6.65997921,15.391684 6.65945946,15.8056133 L6.65945946,18.3004158 C6.65945946,18.5209979 6.74719335,18.7324324 6.9031185,18.8883576 L8.32266112,20.3079002 L8.32266112,21.7365904 L4.86320166,19.4297297 L3.60831601,15.6650728 C5.995842,10.2097713 10.3718295,5.86881497 15.8461538,3.52536383 Z M13.4785863,30.7910603 L9.71975052,30.0384615 L8.32266112,27.2517672 L8.32266112,25.2975052 L11.4212058,22.1989605 L12.5679834,24.4933472 C12.7088358,24.7752599 12.9970894,24.9533264 13.3122661,24.9532225 L18.6627859,24.9532225 L20.9155925,28.7079002 C21.0659044,28.9581081 21.3363825,29.1111227 21.6282744,29.1112266 L23.9401247,29.1112266 L23.3580042,32.0276507 L20.2095634,35.1760915 C20.0533264,35.3319127 19.9653846,35.5433472 19.9650728,35.7640333 L19.9650728,37.8430353 L16.9713098,40.0883576 C16.7619543,40.2454262 16.6386694,40.4918919 16.6386694,40.7536383 L16.6386694,43.7573805 L15.604158,43.4147609 L14.1438669,39.7623701 L14.1438669,31.6060291 C14.1439709,31.2108108 13.8658004,30.8700624 13.4785863,30.7910603 Z M10.9787942,43.574948 C3.13794179,37.6925156 -0.177962578,27.5286902 2.68523909,18.1540541 L3.37629938,20.2264033 C3.43451143,20.4017672 3.54948025,20.5528067 3.7031185,20.6555094 L7.84864865,23.4189189 L6.9031185,24.3652807 C6.74719335,24.5212058 6.65945946,24.7326403 6.65945946,24.9532225 L6.65945946,27.4480249 C6.65935551,27.577027 6.68918919,27.704262 6.74677755,27.8197505 L8.40997921,31.1461538 C8.52515593,31.3758836 8.74002079,31.539501 8.99209979,31.5893971 L12.4848233,32.2871102 L12.4848233,39.9220374 C12.4847193,40.0276507 12.5047817,40.1324324 12.5438669,40.2305613 L14.2070686,44.3885655 C14.2981289,44.6156965 14.4846154,44.7912682 14.7168399,44.8683992 L17.2116424,45.7 C17.2950104,45.7282744 17.3823285,45.7428274 17.4702703,45.7432432 C17.9295218,45.7432432 18.3018711,45.370894 18.3018711,44.9116424 L18.3018711,41.1694387 L21.2956341,38.9241164 C21.5049896,38.7670478 21.6282744,38.5205821 21.6282744,38.2588358 L21.6282744,36.108316 L24.7110187,33.0255717 C24.8269231,32.9094595 24.9059252,32.7615385 24.9380457,32.6006237 L25.7696466,28.4426195 C25.8596674,27.9922037 25.5675676,27.554158 25.1171518,27.4641372 C25.0636175,27.4534304 25.0092516,27.4480249 24.9546778,27.4480249 L22.0989605,27.4480249 L19.8461538,23.6933472 C19.695842,23.4431393 19.4253638,23.2901247 19.1334719,23.2900208 L13.8261954,23.2900208 L12.3975052,20.4234927 C12.2778586,20.1841996 12.0504158,20.0170478 11.7862786,19.9744283 C11.5222453,19.9287942 11.2527027,20.0159044 11.0652807,20.2072765 L9.98586279,21.2825364 L9.98586279,19.9636175 C9.98586279,19.7430353 9.8981289,19.5316008 9.74220374,19.3756757 L8.32266112,17.9561331 L8.32266112,16.5266112 L13.4303534,15.7972973 C13.5400208,15.7813929 13.6455301,15.743763 13.7405405,15.6866944 L17.8985447,13.1918919 C18.0151767,13.1218295 18.1128898,13.0241164 18.1829522,12.9074844 L20.5197505,9.01309771 L22.7226611,8.27796258 C22.9714137,8.19636175 23.166632,8.0012474 23.2482328,7.75239085 L24.0798337,5.25758836 C24.2239085,4.82151767 23.9872141,4.35114345 23.5511435,4.20706861 C23.5109148,4.19376299 23.4696466,4.18357588 23.4278586,4.17650728 L18.614553,3.37401247 L17.768815,2.81018711 C23.0019751,1.10686071 28.6699584,1.31767152 33.7621622,3.4047817 L32.2428274,4.16320166 L29.1126819,4.16320166 C28.7959459,4.16143451 28.5058212,4.33981289 28.3642412,4.62307692 L26.7010395,7.94948025 C26.4961538,8.36049896 26.6632017,8.85987526 27.0742204,9.06476091 C27.1092516,9.08222453 27.1454262,9.09719335 27.1825364,9.10956341 L29.6773389,9.94116424 C29.827027,9.99199584 29.9881497,9.99844075 30.1413721,9.95945946 L33.233264,9.18690229 L35.4985447,9.94116424 C35.5309771,9.95280665 35.5643451,9.96174636 35.5983368,9.96777547 L39.756341,10.7993763 C39.9725572,10.8434511 40.1975052,10.7991684 40.3808732,10.6762994 L42.2735967,9.41392931 C43.2050936,10.4514553 44.0422037,11.5699584 44.775052,12.7561331 L40.6835759,14.1199584 L36.2536383,13.3814969 L34.7900208,11.1860707 C34.6365904,10.9560291 34.3787942,10.8173597 34.1022869,10.8160083 L29.1126819,10.8160083 C28.8920998,10.8160083 28.6806653,10.9037422 28.5247401,11.0596674 L26.0299376,13.5544699 C25.8446985,13.739605 25.7574844,14.0012474 25.7945946,14.260499 L26.6261954,20.0817048 C26.6680873,20.3695426 26.8572765,20.614553 27.1251559,20.7278586 L32.9463617,23.2226611 C33.1130977,23.2949064 33.2991684,23.3097713 33.4752599,23.2650728 L36.4449064,22.5224532 L38.2602911,23.7349272 L38.2602911,26.6164241 C38.2588358,26.7451143 38.2873181,26.8723493 38.3434511,26.9881497 L41.5866944,33.4654886 L41.5866944,36.5956341 C41.5866944,36.8162162 41.6744283,37.0276507 41.8303534,37.1835759 L43.5700624,38.9241164 C35.8545738,49.2082121 21.2628898,51.2905405 10.9787942,43.574948 Z" id="Shape"></path>
            </g>
        </g>
    </g>
</svg>