<?xml version="1.0" encoding="UTF-8"?>
<svg width="52px" height="50px" viewBox="0 0 52 50" version="1.1" xmlns="http://www.w3.org/2000/svg" xmlns:xlink="http://www.w3.org/1999/xlink">
    <!-- Generator: Sketch 54.1 (76490) - https://sketchapp.com -->
    <title>increase</title>
    <desc>Created with Sketch.</desc>
    <g id="Designs" stroke="none" stroke-width="1" fill="none" fill-rule="evenodd">
        <g id="Who-We-Are" transform="translate(-517.000000, -1226.000000)" fill="#FFEE93" fill-rule="nonzero">
            <g id="increase" transform="translate(517.000000, 1226.000000)">
                <path d="M12.928195,27.56917 L2.585639,27.56917 C1.15793536,27.56917 0,28.72824 0,30.1573427 L0,47.4118273 C0,48.84093 1.15793536,50 2.585639,50 L12.928195,50 C14.3558986,50 15.513834,48.84093 15.513834,47.4118273 L15.513834,30.1573427 C15.513834,28.72824 14.3558986,27.56917 12.928195,27.56917 Z M13.7900747,47.4118273 C13.7900747,47.8884824 13.4043835,48.2745515 12.928195,48.2745515 L2.585639,48.2745515 C2.10945051,48.2745515 1.72375933,47.8884824 1.72375933,47.4118273 L1.72375933,30.1573427 C1.72375933,29.6806875 2.10945051,29.2946184 2.585639,29.2946184 L12.928195,29.2946184 C13.4043835,29.2946184 13.7900747,29.6806875 13.7900747,30.1573427 L13.7900747,47.4118273 Z" id="Shape"></path>
                <path d="M49.0942029,18.972332 L38.7516469,18.972332 C37.3239433,18.972332 36.1660079,20.1302674 36.1660079,21.557971 L36.1660079,47.414361 C36.1660079,48.8420646 37.3239433,50 38.7516469,50 L49.0942029,50 C50.5219065,50 51.6798419,48.8420646 51.6798419,47.414361 L51.6798419,21.557971 C51.6798419,20.1302674 50.5219065,18.972332 49.0942029,18.972332 Z M49.9560826,47.414361 C49.9560826,47.8905495 49.5703914,48.2762407 49.0942029,48.2762407 L38.7516469,48.2762407 C38.2754584,48.2762407 37.8897672,47.8905495 37.8897672,47.414361 L37.8897672,21.557971 C37.8897672,21.0817825 38.2754584,20.6960913 38.7516469,20.6960913 L49.0942029,20.6960913 C49.5703914,20.6960913 49.9560826,21.0817825 49.9560826,21.557971 L49.9560826,47.414361 Z" id="Shape"></path>
                <path d="M31.0111989,23.3201581 L20.668643,23.3201581 C19.2409393,23.3201581 18.083004,24.4764281 18.083004,25.9020783 L18.083004,47.4180798 C18.083004,48.8437301 19.2409393,50 20.668643,50 L31.0111989,50 C32.4389026,50 33.5968379,48.8437301 33.5968379,47.4180798 L33.5968379,25.9020783 C33.5968379,24.4764281 32.4389026,23.3201581 31.0111989,23.3201581 Z M31.8730786,47.4180798 C31.8730786,47.8935834 31.4873874,48.2787199 31.0111989,48.2787199 L20.668643,48.2787199 C20.1924545,48.2787199 19.8067633,47.8935834 19.8067633,47.4180798 L19.8067633,25.9020783 C19.8067633,25.4265747 20.1924545,25.0414382 20.668643,25.0414382 L31.0111989,25.0414382 C31.4873874,25.0414382 31.8730786,25.4265747 31.8730786,25.9020783 L31.8730786,47.4180798 Z" id="Shape"></path>
                <path d="M32.0744166,17.855944 C32.4108154,18.1924622 32.9553381,18.1924622 33.2917369,17.855944 L48.1793749,2.94394131 L48.1793749,4.31157193 C48.1793749,4.7880006 48.5646301,5.17388631 49.0402803,5.17388631 C49.5159306,5.17388631 49.9011858,4.7880006 49.9011858,4.31157193 L49.9011858,0.862314386 C49.8990335,0.759267789 49.8792327,0.657299127 49.8409224,0.56093548 C49.8290849,0.532047976 49.8155257,0.503376036 49.8011055,0.474704042 C49.7688215,0.410677212 49.7285743,0.350315205 49.680794,0.295773834 C49.6039582,0.200488067 49.5055997,0.125251151 49.3932516,0.0767459803 C49.3850729,0.0767459803 49.3794771,0.0668293925 49.3715137,0.0642423941 C49.2759532,0.0263005612 49.1747968,0.0060362007 49.072349,0.00409600713 C49.0592202,0.0060362007 49.0508264,0 49.0402803,0 L45.5966585,0 C45.1210083,0 44.7357531,0.385885715 44.7357531,0.862314386 C44.7357531,1.33874306 45.1210083,1.72462877 45.5966585,1.72462877 L46.9620546,1.72462877 L32.6830767,16.0269752 L25.1131351,8.44464478 C24.7767363,8.1081266 24.2322136,8.1081266 23.8958148,8.44464478 L15.034515,17.3204467 L10.9081952,13.1873739 C10.5717963,12.8508557 10.0272737,12.8508557 9.69087486,13.1873739 L1.9427258,20.9482034 C1.71889038,21.1644287 1.629141,21.4854252 1.70791382,21.7868041 C1.78690191,22.0883986 2.02171389,22.3235948 2.32281553,22.4027122 C2.62370201,22.4816139 2.94417405,22.3917177 3.16004611,22.1675159 L10.299535,15.0163427 L14.4258548,19.1494156 C14.7622537,19.4859337 15.3067763,19.4859337 15.6431751,19.1494156 L24.504475,10.2736136 L32.0744166,17.855944 Z" id="Path"></path>
            </g>
        </g>
    </g>
</svg>