<?xml version="1.0" encoding="UTF-8"?>
<svg width="52px" height="50px" viewBox="0 0 52 50" version="1.1" xmlns="http://www.w3.org/2000/svg" xmlns:xlink="http://www.w3.org/1999/xlink">
    <!-- Generator: Sketch 54.1 (76490) - https://sketchapp.com -->
    <title>money</title>
    <desc>Created with Sketch.</desc>
    <g id="Designs" stroke="none" stroke-width="1" fill="none" fill-rule="evenodd">
        <g id="Who-We-Are" transform="translate(-670.000000, -1225.000000)" fill="#FFEE93">
            <g id="money" transform="translate(670.000000, 1225.000000)">
                <path d="M43.8439655,16.4889009 C43.8434267,16.4889009 43.8427802,16.4889009 43.8422414,16.4889009 L0.738793103,16.4889009 C0.33125,16.4884698 0.000431034483,16.8184267 6.38157164e-16,17.2259698 C6.38157164e-16,17.2265086 6.38157164e-16,17.2271552 6.38157164e-16,17.227694 L6.38157164e-16,37.9173491 C-0.000431034483,38.3248922 0.329525862,38.6557112 0.737068966,38.6561422 C0.737607759,38.6561422 0.73825431,38.6561422 0.738793103,38.6561422 L30.0491379,38.6561422 C30.4571121,38.6561422 30.787931,38.3253233 30.787931,37.9173491 C30.787931,37.509375 30.4571121,37.178556 30.0491379,37.178556 L1.47758621,37.178556 L1.47758621,17.9664871 L43.1034483,17.9664871 L43.1034483,19.8139009 C43.1030172,20.221444 43.4329741,20.5522629 43.8405172,20.552694 C43.841056,20.552694 43.8417026,20.552694 43.8422414,20.552694 C44.2497845,20.553125 44.5806034,20.2231681 44.5810345,19.815625 C44.5810345,19.8150862 44.5810345,19.8144397 44.5810345,19.8139009 L44.5810345,17.227694 C44.5814655,16.8201509 44.2515086,16.4894397 43.8439655,16.4889009 Z" id="Path"></path>
                <path d="M38.8318966,13.0587284 L4.34913793,5.30010776 C4.15775862,5.25732759 3.95721983,5.29202586 3.79137931,5.39665948 C3.62575431,5.50215517 3.50862069,5.66885776 3.46551724,5.86045259 L1.74137931,13.6190733 C1.65280172,14.0175647 1.90409483,14.4123922 2.30258621,14.5009698 C2.70107759,14.5895474 3.09590517,14.3382543 3.18448276,13.9397629 L4.74741379,6.9044181 L38.5077586,14.5001078 C38.5612069,14.5125 38.6158405,14.5186422 38.6706897,14.5182112 C39.0786638,14.5174569 39.4088362,14.1860991 39.4081897,13.778125 C39.4075431,13.4331897 39.168319,13.1346983 38.8318966,13.0587284 Z" id="Path"></path>
                <path d="M34.6448276,8.78372845 L13.9551724,0.163038793 C13.5955819,0.0131465517 13.18125,0.167133621 13.0068966,0.515625 L11.2827586,3.96390086 C11.0880388,4.32403017 11.2220905,4.77392241 11.5823276,4.96864224 C11.9424569,5.16336207 12.3923491,5.02931034 12.587069,4.66907328 C12.5947198,4.6549569 12.6019397,4.64051724 12.6086207,4.62586207 L12.6086207,4.62758621 L14.0232759,1.79655172 L34.0741379,10.1508621 C34.4517241,10.3084052 34.8855603,10.1301724 35.0431034,9.75258621 C35.2006466,9.37521552 35.0224138,8.94137931 34.6448276,8.78372845 Z" id="Path"></path>
                <path d="M35.1672414,19.9371767 L28.325,19.9371767 C27.9170259,19.9371767 27.5862069,20.2679957 27.5862069,20.6759698 C27.5862069,21.083944 27.9170259,21.4147629 28.325,21.4147629 L35.1672414,21.4147629 C35.5752155,21.4147629 35.9060345,21.083944 35.9060345,20.6759698 C35.9060345,20.2679957 35.5752155,19.9371767 35.1672414,19.9371767 Z" id="Path"></path>
                <path d="M21.4284483,19.9863147 C17.2386853,19.9863147 13.8422414,23.3827586 13.8422414,27.5725216 C13.8465517,31.7604526 17.2405172,35.1544181 21.4284483,35.1587284 C25.6182112,35.1587284 29.0146552,31.7622845 29.0146552,27.5725216 C29.0146552,23.3827586 25.6182112,19.9863147 21.4284483,19.9863147 Z M21.4284483,33.7794181 C18.000431,33.7794181 15.2215517,31.0005388 15.2215517,27.5725216 C15.2253233,24.1461207 18.0020474,21.3693966 21.4284483,21.365625 C24.8564655,21.365625 27.6353448,24.1445043 27.6353448,27.5725216 C27.6353448,31.0005388 24.8564655,33.7794181 21.4284483,33.7794181 Z" id="Shape"></path>
                <path d="M42.1181034,22.4001078 C37.5491379,22.4001078 32.6353448,23.4794181 32.6353448,25.8483836 L32.6353448,46.5380388 C32.6353448,48.9070043 37.5491379,49.9863147 42.1181034,49.9863147 C46.687069,49.9863147 51.6008621,48.9070043 51.6008621,46.5380388 L51.6008621,25.8483836 C51.6008621,23.4794181 46.687069,22.4001078 42.1181034,22.4001078 Z M49.8767241,46.5251078 C49.7465517,47.003556 47.1612069,48.2621767 42.1181034,48.2621767 C37.075,48.2621767 34.4896552,47.003556 34.3594828,46.5380388 L34.3594828,45.1828664 C36.1939655,46.1070043 39.2241379,46.5380388 42.1181034,46.5380388 C45.012069,46.5380388 48.0431034,46.102694 49.8767241,45.1820043 L49.8767241,46.5251078 Z M49.8767241,43.0768319 C49.7465517,43.5552802 47.1612069,44.8139009 42.1181034,44.8139009 C37.075,44.8139009 34.4896552,43.5552802 34.3594828,43.0897629 L34.3594828,41.7345905 C36.1939655,42.6587284 39.2241379,43.0897629 42.1181034,43.0897629 C45.012069,43.0897629 48.0431034,42.6544181 49.8767241,41.7337284 L49.8767241,43.0768319 Z M49.8767241,39.628556 C49.7465517,40.1070043 47.1612069,41.365625 42.1181034,41.365625 C37.075,41.365625 34.4896552,40.1070043 34.3594828,39.6414871 L34.3594828,38.2863147 C36.1939655,39.2104526 39.2241379,39.6414871 42.1181034,39.6414871 C45.012069,39.6414871 48.0431034,39.2061422 49.8767241,38.2854526 L49.8767241,39.628556 Z M49.8767241,36.1802802 C49.7465517,36.6587284 47.1612069,37.9173491 42.1181034,37.9173491 C37.075,37.9173491 34.4896552,36.6587284 34.3594828,36.1932112 L34.3594828,34.8380388 C36.1939655,35.7621767 39.2241379,36.1932112 42.1181034,36.1932112 C45.012069,36.1932112 48.0431034,35.7578664 49.8767241,34.8371767 L49.8767241,36.1802802 Z M49.8767241,32.7320043 C49.7465517,33.2104526 47.1612069,34.4690733 42.1181034,34.4690733 C37.075,34.4690733 34.4896552,33.2104526 34.3594828,32.7449353 L34.3594828,31.3897629 C36.1939655,32.3095905 39.2241379,32.7449353 42.1181034,32.7449353 C45.012069,32.7449353 48.0431034,32.3095905 49.8767241,31.3889009 L49.8767241,32.7320043 Z M49.8767241,29.2837284 C49.7465517,29.7621767 47.1612069,31.0207974 42.1181034,31.0207974 C37.075,31.0207974 34.4896552,29.7621767 34.3594828,29.2966595 L34.3594828,27.9414871 C36.1939655,28.8613147 39.2241379,29.2966595 42.1181034,29.2966595 C45.012069,29.2966595 48.0431034,28.8613147 49.8767241,27.940625 L49.8767241,29.2837284 Z M42.1181034,27.5725216 C37.0827586,27.5725216 34.4982759,26.3173491 34.3594828,25.8639009 L34.3594828,25.8587284 C34.4982759,25.378556 37.0827586,24.1242457 42.1181034,24.1242457 C47.1181034,24.1242457 49.7043103,25.3604526 49.8767241,25.8483836 C49.7043103,26.3363147 47.1181034,27.5725216 42.1181034,27.5725216 Z" id="Shape"></path>
                <path d="M14.5318966,33.7294181 L8.01551724,33.7294181 L4.92586207,30.3501078 L4.92586207,24.7466595 L8.33793103,21.4147629 L14.5318966,21.4147629 C14.9398707,21.4147629 15.2706897,21.083944 15.2706897,20.6759698 C15.2706897,20.2679957 14.9398707,19.9371767 14.5318966,19.9371767 L8.03793103,19.9371767 C7.84482759,19.9367457 7.65915948,20.0119612 7.52068966,20.1466595 L3.66982759,23.902694 C3.52596983,24.0707974 3.44709052,24.2849138 3.44741379,24.5061422 L3.44741379,30.6371767 C3.44741379,30.8215517 3.51627155,30.9992457 3.64051724,31.1354526 L7.14310345,34.9664871 C7.2830819,35.1197198 7.48114224,35.2071121 7.6887931,35.2070043 L14.5318966,35.2070043 C14.9398707,35.2070043 15.2706897,34.8761853 15.2706897,34.4682112 C15.2706897,34.0602371 14.9399784,33.7294181 14.5318966,33.7294181 Z" id="Path"></path>
                <path d="M21.8594828,26.7104526 L20.9974138,26.7104526 C20.7293103,26.7104526 20.5663793,26.5604526 20.5663793,26.4949353 C20.5663793,26.4294181 20.7293103,26.2794181 20.9974138,26.2794181 L23.1525862,26.2794181 C23.6286638,26.2794181 24.0146552,25.8934267 24.0146552,25.4173491 C24.0146552,24.9412716 23.6286638,24.5552802 23.1525862,24.5552802 L22.2905172,24.5552802 C22.2905172,24.0792026 21.9045259,23.6932112 21.4284483,23.6932112 C20.9523707,23.6932112 20.5663793,24.0792026 20.5663793,24.5552802 L20.5663793,24.5940733 C19.6102371,24.7290948 18.8858836,25.5259698 18.8422414,26.490625 C18.9039871,27.6209052 19.8667026,28.4893319 20.9974138,28.4345905 L21.8594828,28.4345905 C22.1275862,28.4345905 22.2905172,28.5845905 22.2905172,28.6501078 C22.2905172,28.715625 22.1275862,28.865625 21.8594828,28.865625 L19.7043103,28.865625 C19.2282328,28.865625 18.8422414,29.2516164 18.8422414,29.727694 C18.8422414,30.2037716 19.2282328,30.5897629 19.7043103,30.5897629 L20.5663793,30.5897629 C20.5663793,31.0658405 20.9523707,31.4518319 21.4284483,31.4518319 C21.9045259,31.4518319 22.2905172,31.0658405 22.2905172,30.5897629 L22.2905172,30.5509698 C23.2466595,30.4159483 23.9710129,29.6190733 24.0146552,28.6544181 C23.9529095,27.5241379 22.990194,26.6557112 21.8594828,26.7104526 Z" id="Path"></path>
            </g>
        </g>
    </g>
</svg>