<?xml version="1.0" encoding="UTF-8"?>
<svg width="61px" height="50px" viewBox="0 0 61 50" version="1.1" xmlns="http://www.w3.org/2000/svg" xmlns:xlink="http://www.w3.org/1999/xlink">
    <!-- Generator: Sketch 54.1 (76490) - https://sketchapp.com -->
    <title>photography</title>
    <desc>Created with Sketch.</desc>
    <g id="Designs" stroke="none" stroke-width="1" fill="none" fill-rule="evenodd">
        <g id="Who-We-Are" transform="translate(-433.000000, -1226.000000)" fill="#FFEE93">
            <g id="photography" transform="translate(433.000000, 1226.000000)">
                <path d="M47.8571429,14.2857143 C47.2,14.2857143 46.6666667,14.8190476 46.6666667,15.4761905 C46.6666667,16.1333333 47.2,16.6666667 47.8571429,16.6666667 C48.5142857,16.6666667 49.047619,16.1333333 49.047619,15.4761905 C49.047619,14.8190476 48.5142857,14.2857143 47.8571429,14.2857143 Z" id="Path"></path>
                <path d="M57.3809524,9.52380952 L44.3071429,9.52380952 L40.532619,1.97464286 C39.9234524,0.756666667 38.6994048,0 37.3380952,0 L23.6142857,0 C22.2527381,0 21.0286905,0.756666667 20.4197619,1.9747619 L16.6452381,9.52380952 L14.2857143,9.52380952 L14.2857143,8.33333333 C14.2857143,6.36404762 12.6835714,4.76190476 10.7142857,4.76190476 L8.33333333,4.76190476 C6.36404762,4.76190476 4.76190476,6.36404762 4.76190476,8.33333333 L4.76190476,9.52380952 L3.57142857,9.52380952 C1.60214286,9.52380952 0,11.1259524 0,13.0952381 C0,16.3303571 0,45.170119 0,46.4285714 C0,48.3978571 1.60214286,50 3.57142857,50 L57.3809524,50 C59.3502381,50 60.952381,48.3978571 60.952381,46.4285714 C60.952381,43.1934524 60.952381,14.3536905 60.952381,13.0952381 C60.952381,11.1259524 59.3502381,9.52380952 57.3809524,9.52380952 Z M22.5494048,3.03952381 C22.7525,2.63333333 23.1604762,2.38095238 23.6142857,2.38095238 L37.3380952,2.38095238 C37.7919048,2.38095238 38.2,2.63333333 38.4030952,3.03952381 L41.6452381,9.52380952 L19.3071429,9.52380952 L22.5494048,3.03952381 Z M7.14285714,8.33333333 C7.14285714,7.67690476 7.67690476,7.14285714 8.33333333,7.14285714 L10.7142857,7.14285714 C11.3707143,7.14285714 11.9047619,7.67690476 11.9047619,8.33333333 L11.9047619,9.52380952 L7.14285714,9.52380952 L7.14285714,8.33333333 Z M2.38095238,21.4166667 L17.4346429,21.4166667 C15.8525,23.8882143 15,26.7847619 15,29.7619048 C15,32.7392857 15.852619,35.6241667 17.4346429,38.0952381 L2.38095238,38.0952381 L2.38095238,21.4166667 Z M30.4761905,16.6666667 C37.634881,16.6666667 43.5714286,22.4665476 43.5714286,29.7619048 C43.5714286,37.0490476 37.6432143,42.8571429 30.4761905,42.8571429 C23.3027381,42.8571429 17.3809524,37.042619 17.3809524,29.7619048 C17.3809524,22.4755952 23.3083333,16.6666667 30.4761905,16.6666667 Z M58.5714286,46.4285714 C58.5714286,47.085 58.037381,47.6190476 57.3809524,47.6190476 L3.57142857,47.6190476 C2.915,47.6190476 2.38095238,47.085 2.38095238,46.4285714 L2.38095238,40.4761905 L19.312619,40.4761905 C22.2215476,43.5085714 26.2589286,45.2380952 30.4761905,45.2380952 C34.6941667,45.2380952 38.7319048,43.5080952 41.639881,40.4761905 L58.5714286,40.4761905 L58.5714286,46.4285714 Z M58.5714286,38.0952381 L43.5177381,38.0952381 C45.099881,35.6236905 45.952381,32.7391667 45.952381,29.7619048 C45.952381,26.7846429 45.099881,23.900119 43.5177381,21.4285714 L58.5714286,21.4285714 L58.5714286,38.0952381 Z M58.5714286,19.047619 L41.6397619,19.047619 C38.7309524,16.0152381 34.6935714,14.2857143 30.4761905,14.2857143 C26.2583333,14.2857143 22.2205952,16.0157143 19.3125,19.047619 L2.38095238,19.047619 L2.38095238,13.0952381 C2.38095238,12.4388095 2.915,11.9047619 3.57142857,11.9047619 C4.6525,11.9047619 55.707381,11.9047619 57.3809524,11.9047619 C58.037381,11.9047619 58.5714286,12.4388095 58.5714286,13.0952381 L58.5714286,19.047619 Z" id="Shape"></path>
                <path d="M34.047619,4.76190476 L26.9047619,4.76190476 C26.2472619,4.76190476 25.7142857,5.29488095 25.7142857,5.95238095 C25.7142857,6.60988095 26.2472619,7.14285714 26.9047619,7.14285714 L34.047619,7.14285714 C34.705,7.14285714 35.2380952,6.60988095 35.2380952,5.95238095 C35.2380952,5.29488095 34.705,4.76190476 34.047619,4.76190476 Z" id="Path"></path>
                <path d="M30.4761905,19.047619 C24.5683333,19.047619 19.7619048,23.8540476 19.7619048,29.7619048 C19.7619048,35.6697619 24.5683333,40.4761905 30.4761905,40.4761905 C36.3840476,40.4761905 41.1904762,35.6697619 41.1904762,29.7619048 C41.1904762,23.8540476 36.3840476,19.047619 30.4761905,19.047619 Z M30.4761905,38.0952381 C25.8811905,38.0952381 22.1428571,34.3569048 22.1428571,29.7619048 C22.1428571,25.1669048 25.8811905,21.4285714 30.4761905,21.4285714 C35.0711905,21.4285714 38.8095238,25.1669048 38.8095238,29.7619048 C38.8095238,34.3569048 35.0711905,38.0952381 30.4761905,38.0952381 Z" id="Shape"></path>
                <path d="M30.4761905,23.8095238 C27.1940476,23.8095238 24.5238095,26.4797619 24.5238095,29.7619048 C24.5238095,30.4194048 25.0567857,30.952381 25.7142857,30.952381 C26.3717857,30.952381 26.9047619,30.4194048 26.9047619,29.7619048 C26.9047619,27.792619 28.5069048,26.1904762 30.4761905,26.1904762 C31.1335714,26.1904762 31.6666667,25.6575 31.6666667,25 C31.6666667,24.3425 31.1335714,23.8095238 30.4761905,23.8095238 Z" id="Path"></path>
                <path d="M55,14.2857143 L52.6190476,14.2857143 C51.9616667,14.2857143 51.4285714,14.8186905 51.4285714,15.4761905 C51.4285714,16.1336905 51.9616667,16.6666667 52.6190476,16.6666667 L55,16.6666667 C55.657381,16.6666667 56.1904762,16.1336905 56.1904762,15.4761905 C56.1904762,14.8186905 55.657381,14.2857143 55,14.2857143 Z" id="Path"></path>
            </g>
        </g>
    </g>
</svg>