<?xml version="1.0" encoding="UTF-8"?>
<svg width="50px" height="50px" viewBox="0 0 50 50" version="1.1" xmlns="http://www.w3.org/2000/svg" xmlns:xlink="http://www.w3.org/1999/xlink">
    <!-- Generator: Sketch 54.1 (76490) - https://sketchapp.com -->
    <title>social</title>
    <desc>Created with Sketch.</desc>
    <g id="Designs" stroke="none" stroke-width="1" fill="none" fill-rule="evenodd">
        <g id="Who-We-Are" transform="translate(-750.000000, -1225.000000)" fill="#FFEE93">
            <g id="social" transform="translate(750.000000, 1225.000000)">
                <rect id="Rectangle" x="16.6666667" y="4.16666667" width="16.6666667" height="1.66666667"></rect>
                <path d="M41.25,31.25 C41.25,29.641875 39.9413542,28.3333333 38.3333333,28.3333333 L36.6666667,28.3333333 L36.6666667,16.6666667 L35,16.6666667 L35,28.3333333 L32.9166667,28.3333333 C31.3085417,28.3333333 30,29.6419792 30,31.25 C30,32.0664583 30.339375,32.8033333 30.881875,33.3333333 C30.339375,33.8633333 30,34.6002083 30,35.4166667 C30,35.9784375 30.1671875,36.4989583 30.4436458,36.9445833 C29.4467708,37.4088542 28.75,38.4133333 28.75,39.5833333 C28.75,40.0323958 28.8605208,40.4530208 29.0426042,40.8333333 L22.5,40.8333333 C22.5,38.2853125 21.223125,36.0303125 19.2757292,34.6744792 C21.1588542,33.9566667 22.5,32.1321875 22.5,30 C22.5,29.5397917 22.1272917,29.1666667 21.6666667,29.1666667 L15,29.1666667 L15,20.8333333 L13.3333333,20.8333333 L13.3333333,29.1666667 C11.9547917,29.1666667 10.8333333,30.288125 10.8333333,31.6666667 L10.8333333,50 L12.5,50 L12.5,31.6666667 C12.5,31.2072917 12.8735417,30.8333333 13.3333333,30.8333333 L20.7275,30.8333333 C20.3571875,32.2692708 19.0502083,33.3333333 17.5,33.3333333 L15,33.3333333 C14.539375,33.3333333 14.1666667,33.7064583 14.1666667,34.1666667 C14.1666667,34.626875 14.539375,35 15,35 C18.2161458,35 20.8333333,37.6167708 20.8333333,40.8333333 L20.8333333,41.6666667 C20.8333333,42.126875 21.2060417,42.5 21.6666667,42.5 L26.5426042,42.5 C26.3605208,42.8803125 26.25,43.3009375 26.25,43.75 C26.25,45.358125 27.5586458,46.6666667 29.1666667,46.6666667 L29.1666667,50 L30.8333333,50 L30.8333333,46.6666667 L34.1666667,46.6666667 L34.5833333,46.6666667 C36.1914583,46.6666667 37.5,45.3580208 37.5,43.75 C37.5,43.2961458 37.3867708,42.8715625 37.2009375,42.488125 C38.7535417,42.4247917 40,41.1511458 40,39.5833333 C40,39.0215625 39.8328125,38.5010417 39.5563542,38.0554167 C40.5532292,37.5911458 41.25,36.5866667 41.25,35.4166667 C41.25,34.6002083 40.910625,33.8633333 40.368125,33.3333333 C40.910625,32.8033333 41.25,32.0664583 41.25,31.25 Z M34.5833333,45 L34.1666667,45 L30,45 L29.1666667,45 C28.4773958,45 27.9166667,44.4392708 27.9166667,43.75 C27.9166667,43.0607292 28.4773958,42.5 29.1666667,42.5 L31.6666667,42.5 L34.5833333,42.5 C35.2726042,42.5 35.8333333,43.0607292 35.8333333,43.75 C35.8333333,44.4392708 35.2726042,45 34.5833333,45 Z M37.0833333,40.8333333 L34.5833333,40.8333333 L31.6666667,40.8333333 C30.9773958,40.8333333 30.4166667,40.2726042 30.4166667,39.5833333 C30.4166667,38.8940625 30.9773958,38.3333333 31.6666667,38.3333333 L32.9166667,38.3333333 L37.0833333,38.3333333 C37.7726042,38.3333333 38.3333333,38.8940625 38.3333333,39.5833333 C38.3333333,40.2726042 37.7726042,40.8333333 37.0833333,40.8333333 Z M38.3333333,36.6666667 L37.0833333,36.6666667 L32.9166667,36.6666667 C32.2273958,36.6666667 31.6666667,36.1059375 31.6666667,35.4166667 C31.6666667,34.7273958 32.2273958,34.1666667 32.9166667,34.1666667 L38.3333333,34.1666667 C39.0226042,34.1666667 39.5833333,34.7273958 39.5833333,35.4166667 C39.5833333,36.1059375 39.0226042,36.6666667 38.3333333,36.6666667 Z M38.3333333,32.5 L32.9166667,32.5 C32.2273958,32.5 31.6666667,31.9392708 31.6666667,31.25 C31.6666667,30.5607292 32.2273958,30 32.9166667,30 L38.3333333,30 C39.0226042,30 39.5833333,30.5607292 39.5833333,31.25 C39.5833333,31.9392708 39.0226042,32.5 38.3333333,32.5 Z" id="Shape"></path>
                <path d="M12.4976042,10.6070833 C12.4805208,10.3678125 12.3616667,10.1472917 12.1704167,10.0023958 L11.3029167,9.34479167 C11.0954167,8.29427083 10.1733333,7.5 9.070625,7.5 C7.82635417,7.5 6.81145833,8.5115625 6.79520833,9.76114583 C6.12947917,9.64479167 5.493125,9.38927083 4.9234375,9.00552083 L4.63291667,8.809375 C4.37822917,8.63729167 4.0478125,8.61854167 3.77520833,8.76416667 C3.5034375,8.90864583 3.33333333,9.191875 3.33333333,9.49989583 L3.33333333,10.1835417 C3.33333333,11.1878125 3.63604167,12.145625 4.19760417,12.9501042 L3.57427083,13.5808333 C3.3375,13.8196875 3.26822917,14.1773958 3.39770833,14.4878125 C3.52697917,14.7978125 3.83052083,15 4.16666667,15 L8.20479167,15 C9.8153125,15 11.1466667,13.7723958 11.3257292,12.196875 L12.2591667,11.2525 C12.4276042,11.0819792 12.5146875,10.8467708 12.4976042,10.6070833 Z M9.92020833,11.2476042 C9.765625,11.4034375 9.67927083,11.6142708 9.67927083,11.8335417 C9.67927083,12.6604167 9.01760417,13.3333333 8.2046875,13.3333333 L6.08479167,13.3333333 C6.21666667,13.0297917 6.1596875,12.6635417 5.913125,12.4141667 C5.52416667,12.0203125 5.24583333,11.5246875 5.105,10.9904167 C5.90010417,11.3257292 6.75458333,11.4998958 7.62864583,11.4998958 C8.08927083,11.4998958 8.46197917,11.1267708 8.46197917,10.6665625 L8.46197917,9.79166667 C8.46197917,9.44697917 8.73541667,9.16666667 9.07072917,9.16666667 C9.40604167,9.16666667 9.67947917,9.44697917 9.67947917,9.79166667 C9.67947917,10.0525 9.8015625,10.2982292 10.0090625,10.4557292 L10.40625,10.7564583 L9.92020833,11.2476042 Z" id="Shape"></path>
                <path d="M27.5,14.1666667 L27.5,12.5 L25,12.5 C24.539375,12.5 24.1666667,12.873125 24.1666667,13.3333333 L24.1666667,15.8333333 L22.5,15.8333333 L22.5,17.5 L24.1666667,17.5 L24.1666667,20.8333333 L25.8333333,20.8333333 L25.8333333,17.5 L27.5,17.5 L27.5,15.8333333 L25.8333333,15.8333333 L25.8333333,14.1666667 L27.5,14.1666667 Z" id="Path"></path>
                <path d="M30,9.16666667 L20,9.16666667 C18.6214583,9.16666667 17.5,10.288125 17.5,11.6666667 L17.5,21.6666667 C17.5,23.0452083 18.6214583,24.1666667 20,24.1666667 L30,24.1666667 C31.3785417,24.1666667 32.5,23.0452083 32.5,21.6666667 L32.5,11.6666667 C32.5,10.288125 31.3785417,9.16666667 30,9.16666667 Z M30.8333333,21.6666667 C30.8333333,22.1260417 30.4597917,22.5 30,22.5 L20,22.5 C19.5402083,22.5 19.1666667,22.1260417 19.1666667,21.6666667 L19.1666667,11.6666667 C19.1666667,11.2072917 19.5402083,10.8333333 20,10.8333333 L30,10.8333333 C30.4597917,10.8333333 30.8333333,11.2072917 30.8333333,11.6666667 L30.8333333,21.6666667 Z" id="Shape"></path>
                <path d="M12.5,4.16666667 L2.5,4.16666667 C1.12145833,4.16666667 0,5.288125 0,6.66666667 L0,16.6666667 C0,18.0452083 1.12145833,19.1666667 2.5,19.1666667 L12.5,19.1666667 C13.8785417,19.1666667 15,18.0452083 15,16.6666667 L15,6.66666667 C15,5.288125 13.8785417,4.16666667 12.5,4.16666667 Z M13.3333333,16.6666667 C13.3333333,17.1260417 12.9597917,17.5 12.5,17.5 L2.5,17.5 C2.04020833,17.5 1.66666667,17.1260417 1.66666667,16.6666667 L1.66666667,6.66666667 C1.66666667,6.20729167 2.04020833,5.83333333 2.5,5.83333333 L12.5,5.83333333 C12.9597917,5.83333333 13.3333333,6.20729167 13.3333333,6.66666667 L13.3333333,16.6666667 Z" id="Shape"></path>
                <path d="M47.5,0 L37.5,0 C36.1214583,0 35,1.12145833 35,2.5 L35,12.5 C35,13.8785417 36.1214583,15 37.5,15 L47.5,15 C48.8785417,15 50,13.8785417 50,12.5 L50,2.5 C50,1.12145833 48.8785417,0 47.5,0 Z M48.3333333,12.5 C48.3333333,12.959375 47.9597917,13.3333333 47.5,13.3333333 L37.5,13.3333333 C37.0402083,13.3333333 36.6666667,12.959375 36.6666667,12.5 L36.6666667,8.33333333 L38.4176042,8.33333333 C38.8047917,10.2327083 40.4880208,11.6666667 42.5,11.6666667 C44.5119792,11.6666667 46.1952083,10.2327083 46.5823958,8.33333333 L48.3333333,8.33333333 L48.3333333,12.5 Z M40,7.5 C40,6.12145833 41.1214583,5 42.5,5 C43.8785417,5 45,6.12145833 45,7.5 C45,8.87854167 43.8785417,10 42.5,10 C41.1214583,10 40,8.87854167 40,7.5 Z M48.3333333,6.66666667 L46.5823958,6.66666667 C46.1952083,4.76729167 44.5119792,3.33333333 42.5,3.33333333 C40.4880208,3.33333333 38.8047917,4.76729167 38.4176042,6.66666667 L36.6666667,6.66666667 L36.6666667,2.5 C36.6666667,2.040625 37.0402083,1.66666667 37.5,1.66666667 L47.5,1.66666667 C47.9597917,1.66666667 48.3333333,2.040625 48.3333333,2.5 L48.3333333,6.66666667 Z" id="Shape"></path>
                <rect id="Rectangle" x="24.1666667" y="34.1666667" width="1.66666667" height="1.66666667"></rect>
            </g>
        </g>
    </g>
</svg>