<?xml version="1.0" encoding="UTF-8"?>
<svg width="57px" height="50px" viewBox="0 0 57 50" version="1.1" xmlns="http://www.w3.org/2000/svg" xmlns:xlink="http://www.w3.org/1999/xlink">
    <!-- Generator: Sketch 54.1 (76490) - https://sketchapp.com -->
    <title>tickets</title>
    <desc>Created with Sketch.</desc>
    <g id="Designs" stroke="none" stroke-width="1" fill="none" fill-rule="evenodd">
        <g id="Who-We-Are" transform="translate(-828.000000, -1226.000000)" fill="#FFEE93">
            <g id="tickets" transform="translate(828.000000, 1226.000000)">
                <path d="M55.6603774,33.01875 C56.1813679,33.01875 56.6037736,32.5963443 56.6037736,32.0753538 L56.6037736,24.528184 C56.6037736,24.0071934 56.1813679,23.5847877 55.6603774,23.5847877 L43.7867925,23.5847877 L49.7235849,17.6479953 C50.0918632,17.2795991 50.0918632,16.6824292 49.7235849,16.314033 L44.5688679,11.159316 C44.2004717,10.7910377 43.6033019,10.7910377 43.2349057,11.159316 C41.760967,12.6332547 39.3711085,12.6332547 37.8971698,11.159316 C36.4232311,9.68537736 36.4232311,7.29551887 37.8971698,5.82158019 C38.2654481,5.45318396 38.2654481,4.85601415 37.8971698,4.48761792 L33.6858491,0.27629717 C33.3174528,-0.0919811321 32.720283,-0.0919811321 32.3518868,0.27629717 L9.04339623,23.5847877 L0.943396226,23.5847877 C0.42240566,23.5847877 0,24.0071934 0,24.528184 L0,32.0753538 C0,32.5963443 0.42240566,33.01875 0.943396226,33.01875 C3.02747642,33.01875 4.71698113,34.7082547 4.71698113,36.7923349 C4.71698113,38.8764151 3.02747642,40.5659198 0.943396226,40.5659198 C0.42240566,40.5659198 0,40.9883255 0,41.509316 L0,49.0564858 C0,49.5774764 0.42240566,49.9998821 0.943396226,49.9998821 L55.6603774,49.9998821 C56.1813679,49.9998821 56.6037736,49.5774764 56.6037736,49.0564858 L56.6037736,41.509316 C56.6037736,40.9883255 56.1813679,40.5659198 55.6603774,40.5659198 C53.5762972,40.5659198 51.8867925,38.8764151 51.8867925,36.7923349 C51.8867925,34.7082547 53.5762972,33.01875 55.6603774,33.01875 Z M33.0188679,2.27724057 L35.9509434,5.20931604 C34.1336085,7.75294811 34.7224057,11.2882075 37.2660377,13.1055425 C39.234316,14.5119104 41.8788915,14.5119104 43.8471698,13.1055425 L47.7226415,16.9810142 L41.1188679,23.5847877 L38.1264151,23.5847877 L40.2896226,21.4215802 C40.6579009,21.053184 40.6579009,20.4560142 40.2896226,20.0876179 L29.9122642,9.71025943 C29.5438679,9.34198113 28.9466981,9.34198113 28.5783019,9.71025943 L14.7037736,23.5847877 L11.7113208,23.5847877 L33.0188679,2.27724057 Z M35.4584906,23.5847877 L17.3716981,23.5847877 L29.245283,11.7112028 L38.2886792,20.7545991 L35.4584906,23.5847877 Z M50.0731132,37.7305425 C50.4731132,40.1100236 52.3375,41.9744104 54.7169811,42.3744104 L54.7169811,48.1130896 L47.1698113,48.1130896 L47.1698113,44.3395047 L45.2830189,44.3395047 L45.2830189,48.1130896 L11.3207547,48.1130896 L11.3207547,47.1696934 L9.43396226,47.1696934 L9.43396226,48.1130896 L1.88679245,48.1130896 L1.88679245,42.3744104 C4.9696934,41.85625 7.04882075,38.9370283 6.53066038,35.8541274 C6.13066038,33.4746462 4.26639151,31.6102594 1.88679245,31.2102594 L1.88679245,25.4715802 L9.43396226,25.4715802 L9.43396226,28.3017689 L11.3207547,28.3017689 L11.3207547,25.4715802 L54.7169811,25.4715802 L54.7169811,31.2102594 C51.6340802,31.7284198 49.5549528,34.6477594 50.0731132,37.7305425 Z" id="Shape"></path>
                <rect id="Rectangle" x="45.2830189" y="27.3583726" width="1.88679245" height="3.77358491"></rect>
                <rect id="Rectangle" x="45.2830189" y="33.01875" width="1.88679245" height="3.77358491"></rect>
                <rect id="Rectangle" x="45.2830189" y="38.6791274" width="1.88679245" height="3.77358491"></rect>
                <rect id="Rectangle" x="9.43396226" y="30.1885613" width="1.88679245" height="3.77358491"></rect>
                <rect id="Rectangle" x="9.43396226" y="35.8489387" width="1.88679245" height="3.77358491"></rect>
                <rect id="Rectangle" x="9.43396226" y="41.509316" width="1.88679245" height="3.77358491"></rect>
                <path d="M41.509434,30.1885613 C40.4673349,30.1885613 39.6226415,29.3438679 39.6226415,28.3017689 C39.6226415,27.7807783 39.2002358,27.3583726 38.6792453,27.3583726 L17.9245283,27.3583726 C17.4035377,27.3583726 16.9811321,27.7807783 16.9811321,28.3017689 C16.9811321,29.3438679 16.1364387,30.1885613 15.0943396,30.1885613 C14.5733491,30.1885613 14.1509434,30.610967 14.1509434,31.1319575 L14.1509434,42.4527123 C14.1509434,42.9737028 14.5733491,43.3961085 15.0943396,43.3961085 C16.1364387,43.3961085 16.9811321,44.2408019 16.9811321,45.2829009 C16.9811321,45.8038915 17.4035377,46.2262972 17.9245283,46.2262972 L38.6792453,46.2262972 C39.2002358,46.2262972 39.6226415,45.8038915 39.6226415,45.2829009 C39.6226415,44.2408019 40.4673349,43.3961085 41.509434,43.3961085 C42.0304245,43.3961085 42.4528302,42.9737028 42.4528302,42.4527123 L42.4528302,31.1319575 C42.4528302,30.610967 42.0304245,30.1885613 41.509434,30.1885613 Z M40.5660377,41.628184 C39.2378538,41.9741745 38.2007075,43.0113208 37.854717,44.3395047 L18.7490566,44.3395047 C18.403066,43.0113208 17.3659198,41.9741745 16.0377358,41.628184 L16.0377358,31.9564858 C17.3659198,31.6104953 18.403066,30.5733491 18.7490566,29.2451651 L37.854717,29.2451651 C38.2007075,30.5733491 39.2378538,31.6104953 40.5660377,31.9564858 L40.5660377,41.628184 Z" id="Shape"></path>
            </g>
        </g>
    </g>
</svg>