<?xml version="1.0" encoding="UTF-8"?>
<svg width="50px" height="50px" viewBox="0 0 50 50" version="1.1" xmlns="http://www.w3.org/2000/svg" xmlns:xlink="http://www.w3.org/1999/xlink">
    <!-- Generator: Sketch 54.1 (76490) - https://sketchapp.com -->
    <title>video</title>
    <desc>Created with Sketch.</desc>
    <g id="Designs" stroke="none" stroke-width="1" fill="none" fill-rule="evenodd">
        <g id="Who-We-Are" transform="translate(-360.000000, -1226.000000)" fill="#FFEE93">
            <g id="video" transform="translate(360.000000, 1226.000000)">
                <path d="M46.6411885,12.5053947 C43.3037807,6.72492965 37.9151,2.58987366 31.4676285,0.862335687 C25.0202547,-0.865397598 18.286064,0.0212229368 12.5052928,3.35881849 C6.72461927,6.69631638 2.58974921,12.0849849 0.862207323,18.5324417 C-0.865334569,24.9798009 0.0212879768,31.7141717 3.35869579,37.4946368 C6.69600594,43.2751019 12.084882,47.4101579 18.5322558,49.1376959 C20.685189,49.7146486 22.8698606,50 25.0406649,50 C29.3706524,50 33.6442923,48.8643562 37.4946892,46.6413107 C43.2751674,43.3039105 47.4102328,37.915242 49.1377747,31.4677851 C50.8654142,25.0202306 49.9785964,18.2860552 46.6411885,12.5053947 Z M46.6239034,30.7942504 C45.0762446,36.5702233 41.3719416,41.397857 36.1932222,44.3876989 C31.0146981,47.3776384 24.9816804,48.1717785 19.2056944,46.6243185 C13.4296107,45.0766633 8.60206375,41.3723687 5.61211745,36.1936611 C2.6222688,31.0151487 1.82802922,24.982047 3.37578566,19.2059765 C4.9235421,13.4300035 8.62784504,8.60256518 13.8064668,5.612528 C17.2561795,3.62083004 21.0842131,2.60354553 24.963614,2.60354553 C26.9079531,2.60354553 28.8658665,2.85920943 30.793897,3.37590832 C36.569883,4.92356359 41.3975276,8.62785813 44.3873763,13.8065658 C47.3773226,18.9851758 48.1716598,25.0181798 46.6239034,30.7942504 Z" id="Shape"></path>
                <path d="M36.8853352,22.7747332 L20.7651513,13.4844603 C19.9096919,12.9914372 18.888353,12.9916328 18.0328935,13.4843625 C17.1774341,13.9772878 16.6666667,14.8603479 16.6666667,15.8462963 L16.6666667,34.4268422 C16.6666667,35.4127906 17.1773361,36.2957528 18.0328935,36.788776 C18.4605743,37.0353364 18.9296024,37.1584699 19.3988265,37.1584699 C19.8681485,37.1584699 20.3373726,37.035043 20.7650534,36.7886782 L36.8854332,27.498503 C37.7407947,27.0053821 38.2513661,26.1224199 38.2513661,25.1364714 C38.2513661,24.1506208 37.7406967,23.2676586 36.8853352,22.7747332 Z M35.5796597,25.2415115 L19.4593779,34.5316866 C19.439684,34.5431295 19.3986305,34.5666999 19.3382751,34.5316866 C19.2777238,34.4967711 19.2777238,34.4496302 19.2777238,34.42694 L19.2777238,15.8463941 C19.2777238,15.8237039 19.2777238,15.776563 19.3382751,15.7416475 C19.3619862,15.7279551 19.3826599,15.7232606 19.4002962,15.7232606 C19.4277305,15.7232606 19.4475223,15.7347035 19.4595738,15.7416475 L35.5797577,25.0319204 C35.5994516,25.0432655 35.640309,25.066836 35.640309,25.136667 C35.640309,25.2064981 35.5992556,25.2301664 35.5796597,25.2415115 Z" id="Shape" fill-rule="nonzero"></path>
                <path d="M40.438719,13.1842702 C37.3510009,9.15111905 32.7093389,6.44146572 27.7037453,5.74996424 C26.9941031,5.65174127 26.338734,6.15448127 26.2415881,6.87297683 C26.1446372,7.59127534 26.6418641,8.25312275 27.3522858,8.35134571 C31.6894535,8.95043682 35.7108242,11.2979361 38.3854044,14.7914027 C38.6412771,15.1255776 39.025086,15.3005464 39.4129874,15.3005464 C39.6905887,15.3005464 39.9703337,15.2109931 40.2067187,15.0257783 C40.7737114,14.5820509 40.8775805,13.7575494 40.438719,13.1842702 Z" id="Path"></path>
            </g>
        </g>
    </g>
</svg>