<?xml version="1.0" encoding="UTF-8"?>
<svg width="69px" height="65px" viewBox="0 0 69 65" version="1.1" xmlns="http://www.w3.org/2000/svg" xmlns:xlink="http://www.w3.org/1999/xlink">
    <!-- Generator: Sketch 54.1 (76490) - https://sketchapp.com -->
    <title>paint-brush</title>
    <desc>Created with Sketch.</desc>
    <g id="Designs" stroke="none" stroke-width="1" fill="none" fill-rule="evenodd">
        <g id="Who-We-Are" transform="translate(-297.000000, -1067.000000)" fill="#FFEE93">
            <g id="paint-brush" transform="translate(297.000000, 1067.000000)">
                <path d="M67.4008709,1.00550205 C65.4444775,-0.950625 61.5207684,0.165430328 55.0524693,4.51883197 C49.5575717,8.21717213 42.9664652,13.8184939 36.4933709,20.2915881 C26.8969467,29.8878791 19.6009631,39.3099488 17.1717213,45.1271824 C16.7718648,44.9822643 16.3572234,44.8663832 15.9293955,44.7818033 C13.415707,44.2845799 10.6855738,44.9203279 8.43867828,46.5248156 C5.21438525,48.8272541 4.36046107,52.1152152 4.23645492,52.6694467 C3.55768443,55.2044467 2.27220287,57.623166 0.517469262,59.6661373 C-0.0468852459,60.3231967 0.0175819672,61.3109836 0.662653689,61.8893238 C2.91727459,63.909918 5.8013832,64.9234119 8.80123975,64.9234119 C11.6924078,64.9234119 14.6911988,63.9818443 17.3360861,62.0931148 C18.5762807,61.2074898 19.5151844,60.2282275 19.696998,60.0344262 C21.944293,57.6194365 22.8985143,54.4529508 22.4251332,51.5597848 C28.1326127,49.51375 38.0828074,41.9455123 48.114918,31.9134016 C54.5880123,25.4403074 60.1894672,18.8490676 63.8876742,13.3543033 C68.2409426,6.8857377 69.3572643,2.96202869 67.4008709,1.00550205 Z M17.3677869,57.8626537 C17.2822746,57.9538934 16.5026742,58.7753176 15.4857172,59.5012398 C11.7919057,62.1385348 7.26961066,62.4435553 3.98484631,60.4129713 C5.52313525,58.3039344 6.6663627,55.9265061 7.32315574,53.4529098 L7.32315574,53.4527766 C7.33048156,53.4250717 7.33714139,53.3971004 7.34300205,53.3688627 C7.34846311,53.3436885 7.9014959,50.821209 10.2891803,49.116291 C11.8249385,48.019416 13.6559939,47.5782684 15.3121619,47.905666 C16.6780943,48.1755225 17.8263832,48.9552561 18.5455123,50.100748 C19.9567316,52.348709 19.4605738,55.6138934 17.3677869,57.8626537 Z M21.3403791,48.571916 C21.3077459,48.5173053 20.8249078,47.5369775 19.9252971,46.8083914 C20.7003689,44.73625 22.3689242,41.9355225 24.6945389,38.7194877 L29.6834221,43.7083709 C26.1738217,46.2347131 23.2979713,47.8815574 21.3403791,48.571916 Z M32.2599795,41.7818135 L26.625625,36.147459 C27.599293,34.8940779 28.6527459,33.5958094 29.7754611,32.2678381 L36.1430635,38.6354406 C34.7953791,39.7736066 33.4975102,40.8238627 32.2599795,41.7818135 Z M60.7588832,12.2895287 C57.1724283,17.4730123 51.8822541,23.6425512 45.8632275,29.6613115 C43.3360861,32.1884529 40.8860656,34.4872951 38.5581865,36.5467828 L31.8641189,29.8527152 C33.9872746,27.4509119 36.3022336,24.9859734 38.7451947,22.5432787 C44.7640881,16.524252 50.933627,11.2342111 56.1169775,7.64735656 C62.4992316,3.23121926 64.7015061,3.22415984 65.1245389,3.28196721 C65.1826127,3.70460041 65.1748873,5.90767418 60.7588832,12.2895287 Z" id="Shape"></path>
                <path d="M16.0177049,53.5609324 C15.2474283,53.1369672 14.2792213,53.4176127 13.855123,54.1880225 C13.8122336,54.2659426 13.7604201,54.3388012 13.7008811,54.4046004 C13.5818033,54.5284734 13.1904713,54.906752 12.7839549,55.1972541 C12.1672541,55.6374693 11.5018033,55.9530123 10.8059836,56.1350922 C9.95525615,56.3576639 9.44617828,57.2277049 9.66875,58.0784324 C9.85602459,58.7939652 10.5012295,59.2678791 11.2078381,59.2678791 C11.3413012,59.2678791 11.4767623,59.2509631 11.611957,59.2157992 C12.6840574,58.9352869 13.7010143,58.4552459 14.6345902,57.7887295 C15.2338422,57.3607684 16.029293,56.5773053 16.0347541,56.5713115 C16.2714447,56.3146414 16.476834,56.029334 16.6451947,55.7233811 C17.0690266,54.9529713 16.7881148,53.9847643 16.0177049,53.5609324 Z" id="Path"></path>
            </g>
        </g>
    </g>
</svg>