<?xml version="1.0" encoding="UTF-8"?>
<svg width="74px" height="66px" viewBox="0 0 74 66" version="1.1" xmlns="http://www.w3.org/2000/svg" xmlns:xlink="http://www.w3.org/1999/xlink">
    <!-- Generator: Sketch 54.1 (76490) - https://sketchapp.com -->
    <title>websites</title>
    <desc>Created with Sketch.</desc>
    <g id="Designs" stroke="none" stroke-width="1" fill="none" fill-rule="evenodd">
        <g id="Who-We-Are" transform="translate(-652.000000, -1066.000000)" fill="#FFEE93">
            <g id="Group-Copy" transform="translate(652.000000, 1066.000000)">
                <g id="websites">
                    <path d="M68.9336176,0.134259007 L4.42882778,0.134259007 C1.98680404,0.134259007 0,2.12106305 0,4.56308679 L0,49.0991062 C0,51.5411299 1.98680404,53.527934 4.42882778,53.527934 L26.5321302,53.527934 L26.5321302,56.7504367 C26.5321302,59.7045647 24.1286504,62.1080445 21.1745224,62.1080445 L16.3032273,62.1080445 C15.369289,62.1080445 14.6120224,62.8651678 14.6120224,63.7992495 C14.6120224,64.7333311 15.369289,65.4904544 16.3032273,65.4904544 L57.0589315,65.4904544 C57.9928698,65.4904544 58.7501365,64.7333311 58.7501365,63.7992495 C58.7501365,62.8651678 57.9928698,62.1080445 57.0589315,62.1080445 L52.1874932,62.1080445 C49.2333652,62.1080445 46.8298854,59.7045647 46.8298854,56.7504367 L46.8298854,53.5280772 L68.9331878,53.5280772 C71.3752115,53.5280772 73.3621588,51.5412732 73.3621588,49.0992495 L73.3621588,4.56308679 C73.3624454,2.12106305 71.3756414,0.134259007 68.9336176,0.134259007 Z M28.0725983,62.1083311 C29.2254776,60.6273267 29.9148267,58.7686204 29.9148267,56.7507233 L29.9148267,53.5282205 L43.447762,53.5282205 L43.447762,56.7507233 C43.447762,58.7686204 44.1371111,60.62747 45.2899904,62.1083311 L28.0725983,62.1083311 Z M69.9800355,49.0992495 C69.9800355,49.6762623 69.5106305,50.1458106 68.9334743,50.1458106 L4.42882778,50.1458106 C3.85181496,50.1458106 3.38226665,49.6764056 3.38226665,49.0992495 L3.38226665,40.2107874 L69.9800355,40.2107874 L69.9800355,49.0992495 Z M69.9801788,36.8282342 L3.38240993,36.8282342 L3.38240993,4.56308679 C3.38240993,3.98607396 3.85181496,3.51652566 4.42897107,3.51652566 L68.9334743,3.51652566 C69.5104872,3.51652566 69.9801788,3.98593068 69.9801788,4.56308679 L69.9801788,36.8282342 L69.9801788,36.8282342 Z" id="Shape"></path>
                    <circle id="Oval" cx="36.6816526" cy="45.1788005" r="1.8251774"></circle>
                    <path d="M39.5810453,11.7858488 C38.9204967,11.1254435 37.8500068,11.1254435 37.1891717,11.7858488 L25.2371111,23.7379094 C24.5767058,24.3983147 24.5767058,25.4692344 25.2371111,26.129783 C25.5675287,26.4600573 26.0001092,26.6251228 26.4331195,26.6251228 C26.8661299,26.6251228 27.2987104,26.4600573 27.6289847,26.129783 L39.5810453,14.1777224 C40.2414506,13.5173171 40.2414506,12.4463974 39.5810453,11.7858488 Z" id="Path"></path>
                    <path d="M46.6651064,18.712152 C46.0048444,18.0517467 44.9343545,18.0517467 44.2733761,18.7120087 L39.5119814,23.4731168 C38.8515761,24.1336654 38.8515761,25.2045852 39.5119814,25.8649904 C39.8422557,26.1952647 40.2749795,26.3603302 40.7078466,26.3603302 C41.1405704,26.3603302 41.5734375,26.1952647 41.9037118,25.8649904 L46.6651064,21.1038824 C47.3255117,20.4434771 47.3255117,19.3725573 46.6651064,18.712152 Z" id="Path"></path>
                </g>
            </g>
        </g>
    </g>
</svg>