<?xml version="1.0" encoding="UTF-8"?>
<svg width="181px" height="50px" viewBox="0 0 181 50" version="1.1" xmlns="http://www.w3.org/2000/svg" xmlns:xlink="http://www.w3.org/1999/xlink">
    <!-- Generator: Sketch 54.1 (76490) - https://sketchapp.com -->
    <title>mitso-logo</title>
    <desc>Created with Sketch.</desc>
    <defs>
        <path d="M41.3970764,3.5817942 L41.3970764,41.6383575 L31.8655969,41.6383575 L31.8655969,22.5541103 L23.3493047,35.5940798 L23.3493047,35.6500453 L18.0477717,35.6500453 L18.0477717,35.5940798 L9.47508015,22.4421793 L9.53147944,41.6383575 L0,41.6383575 L0,3.5817942 L7.04991083,3.5817942 L20.6985382,23.8972831 L34.2907663,3.5817942 L41.3970764,3.5817942 Z M52.6205344,10.2416928 C49.6313722,10.2416928 47.2626022,8.05903694 47.2626022,5.14882916 C47.2626022,2.18265584 49.6313722,0 52.6205344,0 C55.5532973,0 57.9784667,2.18265584 57.9784667,5.14882916 C57.9784667,8.05903694 55.5532973,10.2416928 52.6205344,10.2416928 Z M57.2452759,14.4950734 L57.2452759,41.6383575 L48.1085915,41.6383575 L48.1085915,14.4950734 L57.2452759,14.4950734 Z M95.7659887,12.0325899 L83.5837428,12.0325899 L83.5837428,41.6383575 L74.0522633,41.6383575 L74.0522633,12.0325899 L61.8136181,12.0325899 L61.8136181,3.5817942 L95.7659887,3.5817942 L95.7659887,12.0325899 Z M114.377753,2.74231118 C120.581675,2.74231118 129.831158,5.14882916 130.789946,15.3905219 L121.202067,15.3905219 C120.694473,12.5362797 118.889696,10.577486 114.998145,10.577486 C111.726987,10.577486 109.527415,11.9206588 109.527415,14.3831423 C109.527415,16.4538671 111.050195,17.3493156 113.926559,17.9649365 L119.284491,19.1961783 C126.278003,20.7072477 130.846345,23.5055244 130.846345,30.0534919 C130.846345,37.6648046 124.529625,42.421875 114.941746,42.421875 C106.312655,42.421875 98.5295537,38.3923565 97.6271652,28.9901468 L107.158645,28.9901468 C107.779037,32.3480788 110.7118,34.3628381 115.223743,34.3628381 C118.776898,34.3628381 120.638074,33.0756308 120.638074,31.004906 C120.638074,29.7176987 119.848484,28.3745259 116.577325,27.758905 L110.260605,26.3597667 C102.703101,24.7367662 99.1499459,21.2109375 99.1499459,15.1666598 C99.1499459,7.55534713 105.353867,2.74231118 114.377753,2.74231118 Z M155.549233,2.79827672 C167.167486,2.79827672 175.909375,11.5289001 175.909375,22.6100759 C175.909375,33.6912516 167.167486,42.421875 155.549233,42.421875 C143.987379,42.421875 135.245489,33.6912516 135.245489,22.6100759 C135.245489,11.5289001 143.987379,2.79827672 155.549233,2.79827672 Z M155.549233,33.6352861 C161.753154,33.6352861 166.208698,28.598388 166.208698,22.6100759 C166.208698,16.6217637 161.753154,11.5848656 155.549233,11.5848656 C149.345311,11.5848656 144.889767,16.6217637 144.889767,22.6100759 C144.889767,28.598388 149.345311,33.6352861 155.549233,33.6352861 Z" id="path-1"></path>
    </defs>
    <g id="Designs" stroke="none" stroke-width="1" fill="none" fill-rule="evenodd">
        <g id="mitso-logo">
            <g>
                <g id="Temp-Logo">
                    <g id="Oval">
                        <mask id="mask-2" fill="white">
                            <use xlink:href="#path-1"></use>
                        </mask>
                        <use id="Mask" fill="#3A405A" xlink:href="#path-1"></use>
                        <ellipse fill="#FFEE93" mask="url(#mask-2)" cx="52.9102417" cy="5.47379032" rx="6.18431396" ry="6.8422379"></ellipse>
                    </g>
                </g>
                <g id="Group-9" transform="translate(143.291667, 10.369792)">
                    <circle id="Oval-Copy" fill="#FFEE93" cx="12.2552083" cy="12.2552083" r="12.2552083"></circle>
                    <ellipse id="Oval-Copy-2" fill="#9CE9CF" cx="32.072141" cy="33.5853184" rx="5.48776596" ry="5.49261006"></ellipse>
                </g>
            </g>
        </g>
    </g>
</svg>