<?xml version="1.0" encoding="UTF-8"?>
<svg width="150px" height="41px" viewBox="0 0 150 41" version="1.1" xmlns="http://www.w3.org/2000/svg" xmlns:xlink="http://www.w3.org/1999/xlink">
    <!-- Generator: Sketch 54.1 (76490) - https://sketchapp.com -->
    <title>mitso-logo</title>
    <desc>Created with Sketch.</desc>
    <defs>
        <path d="M34.3069694,2.96833773 L34.3069694,34.5069261 L26.4079533,34.5069261 L26.4079533,18.6912516 L19.3502525,29.4978562 L19.3502525,29.5442365 L14.9567169,29.5442365 L14.9567169,29.4978562 L7.85227637,18.5984911 L7.89901611,34.5069261 L0,34.5069261 L0,2.96833773 L5.84246754,2.96833773 L17.1534847,19.8043783 L28.4177621,2.96833773 L34.3069694,2.96833773 Z M43.6081777,8.4875907 C41.1309715,8.4875907 39.1679024,6.67875989 39.1679024,4.26698549 C39.1679024,1.8088308 41.1309715,0 43.6081777,0 C46.0386442,0 48.048453,1.8088308 48.048453,4.26698549 C48.048453,6.67875989 46.0386442,8.4875907 43.6081777,8.4875907 Z M47.4408364,12.0124918 L47.4408364,34.5069261 L39.8689985,34.5069261 L39.8689985,12.0124918 L47.4408364,12.0124918 Z M79.364079,9.97175956 L69.2682951,9.97175956 L69.2682951,34.5069261 L61.369279,34.5069261 L61.369279,9.97175956 L51.2267554,9.97175956 L51.2267554,2.96833773 L79.364079,2.96833773 L79.364079,9.97175956 Z M94.7881933,2.27263358 C99.9295648,2.27263358 107.594882,4.26698549 108.389458,12.7545762 L100.443702,12.7545762 C100.023044,10.3891821 98.5273726,8.76587236 95.3023305,8.76587236 C92.5914255,8.76587236 90.7685757,9.87899901 90.7685757,11.9197312 C90.7685757,13.6358015 92.0305487,14.3778859 94.4142754,14.8880689 L98.8545507,15.908435 C104.650279,17.1607025 108.436197,19.4797164 108.436197,24.9062088 C108.436197,31.2139265 103.201347,35.15625 95.2555907,35.15625 C88.1044105,35.15625 81.6543263,31.8168701 80.9064905,24.0249835 L88.8055066,24.0249835 C89.3196437,26.8078001 91.7501102,28.4774901 95.4892894,28.4774901 C98.4338931,28.4774901 99.9763045,27.4107437 99.9763045,25.6946735 C99.9763045,24.6279271 99.3219481,23.5148005 96.6110432,23.0046174 L91.3761923,21.8451105 C85.1130671,20.5000825 82.1684634,17.578125 82.1684634,12.5690551 C82.1684634,6.2613374 87.3098349,2.27263358 94.7881933,2.27263358 Z M128.908204,2.31901385 C138.53659,2.31901385 145.78125,9.55433707 145.78125,18.7376319 C145.78125,27.9209268 138.53659,35.15625 128.908204,35.15625 C119.326557,35.15625 112.081897,27.9209268 112.081897,18.7376319 C112.081897,9.55433707 119.326557,2.31901385 128.908204,2.31901385 Z M128.908204,27.8745465 C134.049575,27.8745465 137.742015,23.7003216 137.742015,18.7376319 C137.742015,13.7749423 134.049575,9.60071735 128.908204,9.60071735 C123.766832,9.60071735 120.074393,13.7749423 120.074393,18.7376319 C120.074393,23.7003216 123.766832,27.8745465 128.908204,27.8745465 Z" id="path-1"></path>
    </defs>
    <g id="Designs" stroke="none" stroke-width="1" fill="none" fill-rule="evenodd">
        <g id="mitso-logo">
            <g>
                <g id="Temp-Logo">
                    <g id="Oval">
                        <mask id="mask-2" fill="white">
                            <use xlink:href="#path-1"></use>
                        </mask>
                        <use id="Mask" fill="#3A405A" xlink:href="#path-1"></use>
                        <ellipse fill="#FFEE93" mask="url(#mask-2)" cx="43.8482666" cy="4.53629032" rx="5.12512207" ry="5.6703629"></ellipse>
                    </g>
                </g>
                <g id="Group-9" transform="translate(118.750000, 8.593750)">
                    <circle id="Oval-Copy" fill="#FFEE93" cx="10.15625" cy="10.15625" r="10.15625"></circle>
                    <ellipse id="Oval-Copy-2" fill="#9CE9CF" cx="26.5791223" cy="27.8331368" rx="4.54787234" ry="4.55188679"></ellipse>
                </g>
            </g>
        </g>
    </g>
</svg>