<?xml version="1.0" encoding="UTF-8"?>
<svg width="131px" height="37px" viewBox="0 0 131 37" version="1.1" xmlns="http://www.w3.org/2000/svg" xmlns:xlink="http://www.w3.org/1999/xlink">
    <!-- Generator: Sketch 54.1 (76490) - https://sketchapp.com -->
    <title>mitso-logo</title>
    <desc>Created with Sketch.</desc>
    <defs>
        <path d="M30.1224752,2.61741425 L30.1224752,30.4274406 L23.1869189,30.4274406 L23.1869189,16.4815303 L16.9900609,26.0105541 L16.9900609,26.0514512 L13.1324142,26.0514512 L13.1324142,26.0105541 L6.89451747,16.3997361 L6.93555627,30.4274406 L0,30.4274406 L0,2.61741425 L5.12984931,2.61741425 L15.0612376,17.4630607 L24.951587,2.61741425 L30.1224752,2.61741425 Z M38.2891953,7.48416887 C36.1141391,7.48416887 34.3905098,5.88918206 34.3905098,3.76253298 C34.3905098,1.59498681 36.1141391,0 38.2891953,0 C40.4232126,0 42.1878807,1.59498681 42.1878807,3.76253298 C42.1878807,5.88918206 40.4232126,7.48416887 38.2891953,7.48416887 Z M41.6543764,10.5923483 L41.6543764,30.4274406 L35.0060917,30.4274406 L35.0060917,10.5923483 L41.6543764,10.5923483 Z M69.683873,8.79287599 L60.8194934,8.79287599 L60.8194934,30.4274406 L53.8839372,30.4274406 L53.8839372,8.79287599 L44.9785188,8.79287599 L44.9785188,2.61741425 L69.683873,2.61741425 L69.683873,8.79287599 Z M83.2266752,2.00395778 C87.7409426,2.00395778 94.4713049,3.76253298 95.1689644,11.2467018 L88.1923693,11.2467018 C87.8230202,9.16094987 86.5097788,7.72955145 83.678102,7.72955145 C81.2978519,7.72955145 79.6973389,8.71108179 79.6973389,10.5105541 C79.6973389,12.0237467 80.8053863,12.6781003 82.8983649,13.1279683 L86.7970503,14.0277045 C91.8858609,15.1319261 95.2100032,17.176781 95.2100032,21.9617414 C95.2100032,27.5237467 90.6136582,31 83.6370632,31 C77.3581276,31 71.694774,28.055409 71.0381533,21.1846966 L77.9737095,21.1846966 C78.4251363,23.6385224 80.5591536,25.1108179 83.8422571,25.1108179 C86.4277012,25.1108179 87.7819814,24.1701847 87.7819814,22.6569921 C87.7819814,21.7163588 87.2074383,20.7348285 84.8271882,20.2849604 L80.2308432,19.262533 C74.7316448,18.0765172 72.1462007,15.5 72.1462007,11.0831135 C72.1462007,5.52110818 76.6604681,2.00395778 83.2266752,2.00395778 Z M113.184995,2.04485488 C121.638987,2.04485488 128,8.42480211 128,16.5224274 C128,24.6200528 121.638987,31 113.184995,31 C104.772042,31 98.4110292,24.6200528 98.4110292,16.5224274 C98.4110292,8.42480211 104.772042,2.04485488 113.184995,2.04485488 Z M113.184995,24.5791557 C117.699263,24.5791557 120.941327,20.8984169 120.941327,16.5224274 C120.941327,12.146438 117.699263,8.46569921 113.184995,8.46569921 C108.670728,8.46569921 105.428663,12.146438 105.428663,16.5224274 C105.428663,20.8984169 108.670728,24.5791557 113.184995,24.5791557 Z" id="path-1"></path>
        <circle id="path-3" cx="38.5" cy="3.5" r="4.5"></circle>
    </defs>
    <g id="Symbols" stroke="none" stroke-width="1" fill="none" fill-rule="evenodd">
        <g id="Header" transform="translate(-77.000000, -50.000000)">
            <g id="mitso-logo" transform="translate(77.000000, 51.000000)">
                <g id="Oval">
                    <mask id="mask-2" fill="white">
                        <use xlink:href="#path-1"></use>
                    </mask>
                    <use id="Mask" fill="#3A405A" xlink:href="#path-1"></use>
                    <mask id="mask-4" fill="white">
                        <use xlink:href="#path-3"></use>
                    </mask>
                    <use fill="#FFEE93" xlink:href="#path-3"></use>
                </g>
                <g id="Group-9" transform="translate(104.000000, 7.000000)">
                    <circle id="Oval-Copy" fill="#FFEE93" cx="9.09550562" cy="9.12162162" r="8.5"></circle>
                    <ellipse id="Oval-Copy-2" fill="#9CE9CF" cx="22.9694" cy="24.963794" rx="3.92445613" ry="3.93676696"></ellipse>
                </g>
            </g>
        </g>
    </g>
</svg>