<?xml version="1.0" encoding="UTF-8"?>
<svg width="403px" height="649px" viewBox="0 0 403 649" version="1.1" xmlns="http://www.w3.org/2000/svg" xmlns:xlink="http://www.w3.org/1999/xlink">
    <!-- Generator: Sketch 53.2 (72643) - https://sketchapp.com -->
    <title>Fill 36</title>
    <desc>Created with Sketch.</desc>
    <g id="Designs" stroke="none" stroke-width="1" fill="none" fill-rule="evenodd" fill-opacity="0.1">
        <g id="v2" transform="translate(0.000000, -1641.000000)" fill="#8D8D92">
            <path d="M392.536037,2050.99517 C395.46297,2040.32432 397.845109,2029.46196 399.671771,2018.48258 L-169.328229,2172.0024 C-162.181813,2180.57738 -154.629472,2188.74808 -146.69257,2196.48258 L392.536037,2050.99517 Z M403.488208,1988.43974 C404.225812,1978.31701 404.48237,1968.10965 404.225812,1957.82826 L-203.677471,2120.78628 C-198.653212,2129.78779 -193.233426,2138.4614 -187.428804,2146.82826 L403.488208,1988.43974 Z M365.591672,2117.47346 C371.626768,2106.17787 377.010288,2094.52065 381.66746,2082.57625 L-122.33254,2218.51688 C-112.259804,2226.49399 -101.706396,2233.85421 -90.7577689,2240.57625 L365.591672,2117.47346 Z M401.594606,1928.1069 C400.48533,1918.3066 398.874745,1908.4956 396.837516,1898.67393 L-226.405394,2067.86543 C-223.216223,2077.36649 -219.664404,2086.6538 -215.675274,2095.67393 L401.594606,1928.1069 Z M260.719498,2231.71765 L58.7194981,2287.97795 C93.3410971,2290.35577 128.917628,2287.06173 164.303173,2277.21236 C199.667497,2267.3739 231.997258,2251.73271 260.719498,2231.71765 Z M313.204296,2189.42684 C325.211695,2177.09715 336.22294,2163.84862 346.077363,2149.84149 L-54.9226375,2258.21239 C-39.3162321,2265.34951 -23.1314149,2271.21519 -6.50743327,2275.84149 L313.204296,2189.42684 Z M-244.539238,1955.20199 C-244.87012,1965.35764 -244.742036,1975.57749 -244.080274,1985.84014 L368.285209,1819.50807 C363.674216,1810.31555 358.646953,1801.43338 353.267461,1792.84014 L-244.539238,1955.20199 Z M-11.3318812,1655.94457 C-55.5451156,1668.77076 -94.9727667,1690.20079 -128.258207,1717.89009 L133.741793,1647.40439 C90.9279141,1640.17971 46.0203429,1641.44217 1.32641375,1652.5285 L-11.3318812,1655.94457 Z M380.44325,1845.64092 L-241.840422,2013.58443 C-240.363712,2023.26282 -238.426867,2032.96253 -236.019187,2042.64092 L390.159578,1873.66348 C387.323865,1864.08102 384.081523,1854.74372 380.44325,1845.64092 Z M-169.091138,1755.48733 C-179.270578,1767.58952 -188.511035,1780.43135 -196.823178,1793.85203 L229.176822,1677.90039 C215.284125,1670.52545 200.847245,1664.14741 185.983554,1658.85203 L-169.091138,1755.48733 Z M-213.507322,1826.30925 C-218.756773,1837.39313 -223.396818,1848.74116 -227.352616,1860.38504 L293.647384,1720.90147 C284.292456,1712.82895 274.4778,1705.33756 264.288947,1698.38504 L-213.507322,1826.30925 Z M-236.229451,1892.60959 C-238.65343,1903.15287 -240.511458,1913.8662 -241.856927,1924.68581 L337.143073,1768.54541 C330.490478,1759.88335 323.464142,1751.57201 316.021352,1743.68581 L-236.229451,1892.60959 Z" id="Fill-36" transform="translate(79.803869, 1965.803869) rotate(-45.000000) translate(-79.803869, -1965.803869) "></path>
        </g>
    </g>
</svg>