<?xml version="1.0" encoding="UTF-8"?>
<svg width="751px" height="748px" viewBox="0 0 751 748" version="1.1" xmlns="http://www.w3.org/2000/svg" xmlns:xlink="http://www.w3.org/1999/xlink">
    <!-- Generator: Sketch 53.2 (72643) - https://sketchapp.com -->
    <title>hero-circle</title>
    <desc>Created with Sketch.</desc>
    <g id="Designs" stroke="none" stroke-width="1" fill="none" fill-rule="evenodd" fill-opacity="0.1">
        <g id="v2" transform="translate(-436.000000, -69.000000)" fill="#8D8D92">
            <g id="Header" transform="translate(0.000000, -282.000000)">
                <g id="Hero-Photo-Mask" transform="translate(87.000000, 0.000000)">
                    <g id="Hero-Ball" transform="translate(724.704575, 724.804538) rotate(-300.000000) translate(-724.704575, -724.804538) translate(194.204575, 194.304538)">
                        <path d="M892.888416,629.440129 C896.273164,617.090717 899.027905,604.519682 901.140284,591.813208 L243.140284,769.482206 C251.404505,779.40606 260.138144,788.86204 269.316494,797.813208 L892.888416,629.440129 Z M905.175601,557.283658 C906.028456,545.554142 906.325101,533.726573 906.028456,521.813208 L203.140284,710.637587 C208.949584,721.06791 215.216211,731.118279 221.927806,740.813208 L905.175601,557.283658 Z M861.544679,707.232125 C868.525754,694.149257 874.753119,680.64754 880.140284,666.813208 L297.140284,824.263427 C308.791882,833.502741 320.999495,842.027547 333.664275,849.813208 L861.544679,707.232125 Z M903.140284,487.877767 C901.856137,476.535283 899.991655,465.18043 897.633269,453.813208 L176.140284,649.628757 C179.832206,660.624905 183.943946,671.373671 188.561935,681.813208 L903.140284,487.877767 Z M740.140284,838.813208 L506.140284,903.95672 C546.246493,906.709975 587.45891,902.895833 628.450085,891.491298 C669.416678,880.099393 706.867986,861.988537 740.140284,838.813208 Z M801.102621,790.681944 C814.996469,776.395164 827.737661,761.043684 839.140284,744.813208 L375.140284,870.385836 C393.198568,878.655827 411.926137,885.452571 431.161867,890.813208 L801.102621,790.681944 Z M155.34333,518.412654 C154.96063,530.146893 155.108772,541.955321 155.874171,553.813208 L864.140284,361.626405 C858.807178,351.005002 852.992611,340.74218 846.770654,330.813208 L155.34333,518.412654 Z M425.364241,171.956408 C374.232142,186.83479 328.634515,211.693625 290.140284,243.813208 L593.140284,162.049793 C543.626524,153.669166 491.691432,155.133623 440.003414,167.993762 L425.364241,171.956408 Z M878.901937,391.813208 L159.140284,586.18438 C160.848315,597.385766 163.088558,608.611823 165.87339,619.813208 L890.140284,424.245413 C886.86037,413.155055 883.110129,402.348432 878.901937,391.813208 Z M243.233937,287.480669 C231.453504,301.465424 220.759736,316.304871 211.140284,331.813208 L704.140284,197.824643 C688.062586,189.302489 671.355117,181.932313 654.153709,175.813208 L243.233937,287.480669 Z M191.164683,369.268465 C185.089023,382.131236 179.718684,395.300555 175.140284,408.813208 L778.140284,246.943394 C767.312987,237.575275 755.953606,228.881562 744.161133,220.813208 L191.164683,369.268465 Z M164.652216,446.597706 C161.847266,458.830237 159.697217,471.260067 158.140284,483.813208 L828.140284,302.655839 C820.442117,292.605927 812.311469,282.962944 803.698913,273.813208 L164.652216,446.597706 Z" id="hero-circle" transform="translate(530.640284, 530.813208) rotate(-45.000000) translate(-530.640284, -530.813208) "></path>
                    </g>
                </g>
            </g>
        </g>
    </g>
</svg>