<?xml version="1.0" encoding="UTF-8"?>
<svg width="648px" height="649px" viewBox="0 0 648 649" version="1.1" xmlns="http://www.w3.org/2000/svg" xmlns:xlink="http://www.w3.org/1999/xlink">
    <!-- Generator: Sketch 53.2 (72643) - https://sketchapp.com -->
    <title>mitso-circle</title>
    <desc>Created with Sketch.</desc>
    <g id="Designs" stroke="none" stroke-width="1" fill="none" fill-rule="evenodd" fill-opacity="0.1">
        <g id="v2" transform="translate(-177.000000, -1939.000000)" fill="#8D8D92">
            <path d="M814.536037,2348.99517 C817.46297,2338.32432 819.845109,2327.46196 821.671771,2316.48258 L252.671771,2470.0024 C259.818187,2478.57738 267.370528,2486.74808 275.30743,2494.48258 L814.536037,2348.99517 Z M825.488208,2286.43974 C826.225812,2276.31701 826.48237,2266.10965 826.225812,2255.82826 L218.322529,2418.78628 C223.346788,2427.78779 228.766574,2436.4614 234.571196,2444.82826 L825.488208,2286.43974 Z M787.591672,2415.47346 C793.626768,2404.17787 799.010288,2392.52065 803.66746,2380.57625 L299.66746,2516.51688 C309.740196,2524.49399 320.293604,2531.85421 331.242231,2538.57625 L787.591672,2415.47346 Z M823.594606,2226.1069 C822.48533,2216.3066 820.874745,2206.4956 818.837516,2196.67393 L195.594606,2365.86543 C198.783777,2375.36649 202.335596,2384.6538 206.324726,2393.67393 L823.594606,2226.1069 Z M682.719498,2529.71765 L480.719498,2585.97795 C515.341097,2588.35577 550.917628,2585.06173 586.303173,2575.21236 C621.667497,2565.3739 653.997258,2549.73271 682.719498,2529.71765 Z M735.204296,2487.42684 C747.211695,2475.09715 758.22294,2461.84862 768.077363,2447.84149 L367.077363,2556.21239 C382.683768,2563.34951 398.868585,2569.21519 415.492567,2573.84149 L735.204296,2487.42684 Z M177.460762,2253.20199 C177.12988,2263.35764 177.257964,2273.57749 177.919726,2283.84014 L790.285209,2117.50807 C785.674216,2108.31555 780.646953,2099.43338 775.267461,2090.84014 L177.460762,2253.20199 Z M410.668119,1953.94457 C366.454884,1966.77076 327.027233,1988.20079 293.741793,2015.89009 L555.741793,1945.40439 C512.927914,1938.17971 468.020343,1939.44217 423.326414,1950.5285 L410.668119,1953.94457 Z M802.44325,2143.64092 L180.159578,2311.58443 C181.636288,2321.26282 183.573133,2330.96253 185.980813,2340.64092 L812.159578,2171.66348 C809.323865,2162.08102 806.081523,2152.74372 802.44325,2143.64092 Z M252.908862,2053.48733 C242.729422,2065.58952 233.488965,2078.43135 225.176822,2091.85203 L651.176822,1975.90039 C637.284125,1968.52545 622.847245,1962.14741 607.983554,1956.85203 L252.908862,2053.48733 Z M208.492678,2124.30925 C203.243227,2135.39313 198.603182,2146.74116 194.647384,2158.38504 L715.647384,2018.90147 C706.292456,2010.82895 696.4778,2003.33756 686.288947,1996.38504 L208.492678,2124.30925 Z M185.770549,2190.60959 C183.34657,2201.15287 181.488542,2211.8662 180.143073,2222.68581 L759.143073,2066.54541 C752.490478,2057.88335 745.464142,2049.57201 738.021352,2041.68581 L185.770549,2190.60959 Z" id="mitso-circle" transform="translate(501.803869, 2263.803869) rotate(-45.000000) translate(-501.803869, -2263.803869) "></path>
        </g>
    </g>
</svg>