<?xml version="1.0" encoding="UTF-8"?>
<svg width="83px" height="83px" viewBox="0 0 83 83" version="1.1" xmlns="http://www.w3.org/2000/svg" xmlns:xlink="http://www.w3.org/1999/xlink">
    <!-- Generator: Sketch 54.1 (76490) - https://sketchapp.com -->
    <title>bullet-point</title>
    <desc>Created with Sketch.</desc>
    <g id="Symbols" stroke="none" stroke-width="1" fill="none" fill-rule="evenodd">
        <g id="Artboard" transform="translate(-555.000000, -102.000000)">
            <g id="bullet-point" transform="translate(555.000000, 102.000000)">
                <g id="Group-2">
                    <path d="M81.0845192,52.2010639 C81.4600308,50.8222461 81.7656479,49.4186839 82,48 L9,67.8368298 C9.91685127,68.9448329 10.8857808,70.0005977 11.9040476,71 L81.0845192,52.2010639 Z M82.8943377,44.8871726 C82.9877514,43.6017461 83.0202431,42.3055742 82.9877514,41 L6,61.6930826 C6.63629597,62.8361316 7.32268333,63.937542 8.05780826,65 L82.8943377,44.8871726 Z M77.9267336,61.4173679 C78.7050695,59.9875463 79.3993727,58.5119488 80,57 L15,74.2076742 C16.2990632,75.2174352 17.6601178,76.149108 19.0721431,77 L77.9267336,61.4173679 Z M83,37.7351489 C82.8586909,36.4914555 82.6535208,35.2464059 82.3940012,34 L3,55.4710031 C3.4062638,56.6767211 3.85872482,57.8553138 4.36689426,59 L83,37.7351489 Z M65,76 L39,82.9091603 C43.4562454,83.2011722 48.0354029,82.796642 52.5899779,81.5870701 C57.1418216,80.3788378 61.3030781,78.4579894 65,76 Z M71.7371584,70.3408802 C73.2942276,68.677351 74.7221198,66.8898499 76,65 L24,79.6214704 C26.0237733,80.5844145 28.1225526,81.3758162 30.2782808,82 L71.7371584,70.3408802 Z M0.0223378938,40.031328 C-0.0197644753,41.3468256 -0.00346678404,42.6706404 0.0807379543,44 L78,22.4543942 C77.4132831,21.263654 76.7735987,20.1131134 76.0890957,19 L0.0223378938,40.031328 Z M29.7273617,1.56653791 C24.1585192,3.10568086 19.192441,5.67728446 15,9 L48,0.541715681 C42.6074122,-0.325245731 36.9511151,-0.173750271 31.3217271,1.15660902 L29.7273617,1.56653791 Z M79.7547112,26 L4.54747351e-13,47.3126285 C0.18926195,48.5408506 0.437496825,49.7717779 0.746076091,51 L81,29.5561628 C80.6365622,28.3401147 80.2210088,27.155178 79.7547112,26 Z M10.5153291,14.884707 C9.22497746,16.4983325 8.05365194,18.2105765 7,20 L61,4.53978085 C59.238954,3.55645545 57.408927,2.7060505 55.5247971,2 L10.5153291,14.884707 Z M4.75391435,23.5827681 C4.08891671,25.0195669 3.50111838,26.4906079 3,28 L69,9.91879729 C67.8149227,8.87235847 66.5716074,7.90125228 65.280889,7 L4.75391435,23.5827681 Z M1.71922836,31.9240164 C1.40942791,33.2637698 1.17195972,34.6251321 1,36 L75,16.1589548 C74.1497547,15.0582501 73.2517428,14.0021139 72.3005053,13 L1.71922836,31.9240164 Z" id="Fill-36" fill="#E8E8E9" transform="translate(41.500000, 41.500000) rotate(-360.000000) translate(-41.500000, -41.500000) "></path>
                    <circle id="Oval" fill="#FFFFFF" cx="41.5" cy="41.5" r="34.5"></circle>
                </g>
                <g id="Group-3" transform="translate(14.000000, 14.000000)">
                    <circle id="Oval" fill="#FFF3AE" cx="27.5" cy="27.5" r="27.5"></circle>
                    <circle id="Oval" stroke="#FFFFFF" stroke-width="5" fill="#9CE9CF" cx="27.5" cy="27.5" r="16.5"></circle>
                </g>
            </g>
        </g>
    </g>
</svg>