<?xml version="1.0" encoding="UTF-8"?>
<svg width="25px" height="26px" viewBox="0 0 25 26" version="1.1" xmlns="http://www.w3.org/2000/svg" xmlns:xlink="http://www.w3.org/1999/xlink">
    <!-- Generator: Sketch 53.2 (72643) - https://sketchapp.com -->
    <title>close</title>
    <desc>Created with Sketch.</desc>
    <g id="Page-1" stroke="none" stroke-width="1" fill="none" fill-rule="evenodd">
        <g id="cancel-music" fill="#3A405A" fill-rule="nonzero">
            <path d="M15.4699531,12.6163146 L24.3826291,3.7036385 C25.2030516,2.88321596 25.2030516,1.55305164 24.3826291,0.732746479 C23.5622066,-0.0876760563 22.2321596,-0.0876760563 21.4117371,0.732746479 L12.4989437,9.64553991 L3.58615023,0.732629108 C2.7657277,-0.0877934272 1.43568075,-0.0877934272 0.615258216,0.732629108 C-0.205046948,1.55305164 -0.205046948,2.88321596 0.615258216,3.70352113 L9.52805164,12.6161972 L0.615258216,21.5289906 C-0.205046948,22.3494131 -0.205046948,23.6795775 0.615258216,24.4998826 C1.43568075,25.3203052 2.7657277,25.3203052 3.58615023,24.4998826 L12.4989437,15.5870892 L21.4117371,24.4998826 C22.2320423,25.3203052 23.5622066,25.3203052 24.3826291,24.4998826 C25.2030516,23.6794601 25.2030516,22.3494131 24.3826291,21.5289906 L15.4699531,12.6163146 Z" id="close"></path>
        </g>
    </g>
</svg>