<?xml version="1.0" encoding="UTF-8"?>
<svg width="22px" height="35px" viewBox="0 0 22 35" version="1.1" xmlns="http://www.w3.org/2000/svg" xmlns:xlink="http://www.w3.org/1999/xlink">
    <!-- Generator: Sketch 54.1 (76490) - https://sketchapp.com -->
    <title>digital-white</title>
    <desc>Created with Sketch.</desc>
    <g id="Symbols" stroke="none" stroke-width="1" fill="none" fill-rule="evenodd">
        <g id="Artboard" transform="translate(-216.000000, -49.000000)" fill="#FFFFFF" fill-rule="nonzero">
            <g id="digital-white" transform="translate(216.000000, 49.000000)">
                <path d="M10.5274805,28.5833105 C9.45683594,28.5833105 8.58580078,29.4542773 8.58580078,30.5249219 C8.58580078,31.5955664 9.45683594,32.4665332 10.5274805,32.4665332 C11.598125,32.4665332 12.4690918,31.5955664 12.4690918,30.5249219 C12.4690918,29.4542773 11.5980566,28.5833105 10.5274805,28.5833105 Z M10.5274805,31.1219043 C10.1982617,31.1219043 9.93042969,30.8540723 9.93042969,30.5249219 C9.93042969,30.1957715 10.1982617,29.9279395 10.5274805,29.9279395 C10.8566309,29.9279395 11.1244629,30.1957715 11.1244629,30.5249219 C11.1243262,30.8540723 10.8564941,31.1219043 10.5274805,31.1219043 Z" id="Shape"></path>
                <path d="M13.712002,2.76493164 L10.2664844,2.76493164 C9.87451172,2.76493164 9.55677734,3.08266602 9.55677734,3.47463867 C9.55677734,3.86661133 9.87458008,4.1843457 10.2664844,4.1843457 L13.712002,4.1843457 C14.1039746,4.1843457 14.421709,3.86661133 14.421709,3.47463867 C14.421709,3.08266602 14.1039746,2.76493164 13.712002,2.76493164 Z" id="Path"></path>
                <circle id="Oval" cx="8.08773438" cy="3.49213867" r="1"></circle>
                <path d="M18.8057324,0 L2.24895508,0 C1.01322266,0 0.00786132813,1.00536133 0.00786132813,2.24109375 L0.00786132813,32.7588379 C0.00786132813,33.9945703 1.01322266,34.9999316 2.24895508,34.9999316 L18.8056641,34.9999316 C20.0413965,34.9999316 21.0467578,33.9945703 21.0467578,32.7588379 L21.0467578,2.24109375 C21.0468262,1.00536133 20.0414648,0 18.8057324,0 Z M19.5527637,32.7589063 C19.5527637,33.1708398 19.217666,33.5059375 18.8057324,33.5059375 L2.24895508,33.5059375 C1.83702148,33.5059375 1.50192383,33.1708398 1.50192383,32.7589063 L1.50192383,2.24109375 C1.50192383,1.82916016 1.83702148,1.4940625 2.24895508,1.4940625 L18.8056641,1.4940625 C19.2175977,1.4940625 19.5526953,1.82916016 19.5526953,2.24109375 L19.5526953,32.7589063 L19.5527637,32.7589063 Z" id="Shape"></path>
                <path d="M11.7863867,14.0276172 C11.4945605,13.7359961 11.0217188,13.7359961 10.7298242,14.0276172 L7.14136719,17.6161426 C6.84967773,17.907832 6.84967773,18.3808789 7.14143555,18.6726367 C7.28731445,18.8185156 7.47851562,18.8915234 7.66964844,18.8915234 C7.86078125,18.8915234 8.05205078,18.8185156 8.19786133,18.6727051 L11.7863184,15.0841797 C12.0780762,14.7924219 12.0780762,14.319375 11.7863867,14.0276172 Z" id="Path"></path>
                <path d="M13.9133203,16.1072461 C13.6215625,15.815625 13.1486523,15.815625 12.8567578,16.1072461 L11.4272266,17.5367773 C11.1356055,17.8284668 11.1356055,18.3015137 11.4272949,18.5933398 C11.5731738,18.7391504 11.764375,18.8121582 11.9555078,18.8121582 C12.1466406,18.8121582 12.3378418,18.7391504 12.4837207,18.5933398 L13.913252,17.1638086 C14.2050781,16.8720508 14.2050781,16.3990039 13.9133203,16.1072461 Z" id="Path"></path>
                <path d="M17.3199414,5.52972656 L3.73488281,5.52972656 C3.36355469,5.52972656 3.06256836,5.83071289 3.06256836,6.20204102 L3.06256836,26.7970117 C3.06256836,27.1683398 3.36355469,27.4693262 3.73488281,27.4693262 L17.3199414,27.4693262 C17.6912695,27.4693262 17.9922559,27.1683398 17.9922559,26.7970117 L17.9922559,6.20204102 C17.9922559,5.83078125 17.6912695,5.52972656 17.3199414,5.52972656 Z M16.6475586,26.1246973 L16.6475586,26.1246973 L4.40712891,26.1246973 L4.40712891,6.87442383 L16.6475586,6.87442383 L16.6475586,26.1246973 Z" id="Shape"></path>
            </g>
        </g>
    </g>
</svg>