<?xml version="1.0" encoding="UTF-8"?>
<svg width="100px" height="100px" viewBox="0 0 100 100" version="1.1" xmlns="http://www.w3.org/2000/svg" xmlns:xlink="http://www.w3.org/1999/xlink">
    <!-- Generator: Sketch 53.2 (72643) - https://sketchapp.com -->
    <title>digital-marketing</title>
    <desc>Created with Sketch.</desc>
    <g id="Symbols" stroke="none" stroke-width="1" fill="none" fill-rule="evenodd">
        <g id="Services-on-Offer" transform="translate(-582.000000, -218.000000)">
            <g id="Work-With">
                <g id="Group-3" transform="translate(534.000000, 66.000000)">
                    <g id="Group-16" transform="translate(48.000000, 152.000000)">
                        <g id="digital-marketing">
                            <g id="Icon-Circle-Copy-2">
                                <path d="M98.235437,62.933012 C98.6861359,61.2886164 99.0529455,59.6147101 99.334221,57.9227696 L11.7177097,81.5804258 C12.8181386,82.9018444 13.9810732,84.1609629 15.2032237,85.3528628 L98.235437,62.933012 Z M99.8715469,53.32496 C99.9851094,51.763107 100.024609,50.1881977 99.9851094,48.6018642 L6.39147803,73.7449239 C7.16501992,75.1337818 7.99945766,76.4720467 8.89314542,77.7629827 L99.8715469,53.32496 Z M94.061837,73.2914669 C94.9914074,71.5494073 95.8206172,69.7515755 96.5379494,67.9094541 L18.9081225,88.8748627 C20.4596003,90.1051308 22.0851146,91.2402581 23.7715035,92.276964 L94.061837,73.2914669 Z M99.6005326,44.0831635 C99.429541,42.5728461 99.1812744,41.0608817 98.8672417,39.5472703 L2.79627164,65.6212448 C3.28787247,67.0854456 3.83537441,68.516706 4.45028649,69.9067909 L99.6005326,44.0831635 Z M77.8961385,90.8122503 L46.7376831,99.4864863 C52.0780571,99.853098 57.5657291,99.345223 63.0239416,97.8266431 C68.4788808,96.309745 73.4657393,93.8981796 77.8961385,90.8122503 Z M86.0136267,84.4032937 C87.8636731,82.5009262 89.5602366,80.4567877 91.0785619,78.2956059 L29.2942743,95.0163286 C31.6988395,96.1175258 34.1925238,97.0225516 36.7538726,97.7363515 L86.0136267,84.4032937 Z M0.0270367147,48.1490607 C-0.0239219724,49.7115425 -0.00419602903,51.2839031 0.0977213452,52.8628495 L94.4074567,27.2720635 C93.6973228,25.8577621 92.9230795,24.4912079 92.0945899,23.1691079 L0.0270367147,48.1490607 Z M35.9818851,2.01640476 C29.1733499,3.99754748 23.1017618,7.30764533 17.976032,11.5845539 L58.322237,0.697281614 C51.729193,-0.418647412 44.8137347,-0.223646598 37.9311758,1.4887555 L35.9818851,2.01640476 Z M96.3730564,31.2916112 L0.532623169,57.1732586 C0.760057348,58.6647879 1.0583587,60.1596025 1.42917529,61.6511318 L97.8695073,35.610147 C97.4327678,34.1334016 96.9334014,32.6944372 96.3730564,31.2916112 Z M11.7301802,17.3991293 C10.1615473,19.2612803 8.73761011,21.2372387 7.45672437,23.3022636 L73.10253,5.46090999 C70.9616914,4.3261359 68.7369951,3.34475424 66.446528,2.52996005 L11.7301802,17.3991293 Z M4.79685742,28.2896481 C3.98784807,30.0024005 3.2727563,31.7559716 2.66311585,33.5552597 L82.9560586,12.0013562 C81.5143413,10.7539369 80.0017739,9.59631874 78.4315378,8.52197071 L4.79685742,28.2896481 Z M1.2665689,38.5864844 C0.893073556,40.2153167 0.606781972,41.8704206 0.399467377,43.5419441 L89.6138482,19.419791 C88.5887927,18.081587 87.5061498,16.797568 86.3593381,15.5792277 L1.2665689,38.5864844 Z" id="Fill-36" fill-opacity="0.2" fill="#8D8D92" transform="translate(50.000000, 49.800266) rotate(-360.000000) translate(-50.000000, -49.800266) "></path>
                                <circle id="Oval" stroke="#EAEAEA" fill="#FFFFFF" cx="50" cy="50" r="40"></circle>
                            </g>
                            <g id="smartphone" transform="translate(39.000000, 32.000000)" fill="#3A405A" fill-rule="nonzero">
                                <path d="M10.5274805,28.5833105 C9.45683594,28.5833105 8.58580078,29.4542773 8.58580078,30.5249219 C8.58580078,31.5955664 9.45683594,32.4665332 10.5274805,32.4665332 C11.598125,32.4665332 12.4690918,31.5955664 12.4690918,30.5249219 C12.4690918,29.4542773 11.5980566,28.5833105 10.5274805,28.5833105 Z M10.5274805,31.1219043 C10.1982617,31.1219043 9.93042969,30.8540723 9.93042969,30.5249219 C9.93042969,30.1957715 10.1982617,29.9279395 10.5274805,29.9279395 C10.8566309,29.9279395 11.1244629,30.1957715 11.1244629,30.5249219 C11.1243262,30.8540723 10.8564941,31.1219043 10.5274805,31.1219043 Z" id="Shape"></path>
                                <path d="M13.712002,2.76493164 L10.2664844,2.76493164 C9.87451172,2.76493164 9.55677734,3.08266602 9.55677734,3.47463867 C9.55677734,3.86661133 9.87458008,4.1843457 10.2664844,4.1843457 L13.712002,4.1843457 C14.1039746,4.1843457 14.421709,3.86661133 14.421709,3.47463867 C14.421709,3.08266602 14.1039746,2.76493164 13.712002,2.76493164 Z" id="Path"></path>
                                <circle id="Oval" cx="8.08773438" cy="3.49213867" r="1"></circle>
                                <path d="M18.8057324,0 L2.24895508,0 C1.01322266,0 0.00786132813,1.00536133 0.00786132813,2.24109375 L0.00786132813,32.7588379 C0.00786132813,33.9945703 1.01322266,34.9999316 2.24895508,34.9999316 L18.8056641,34.9999316 C20.0413965,34.9999316 21.0467578,33.9945703 21.0467578,32.7588379 L21.0467578,2.24109375 C21.0468262,1.00536133 20.0414648,0 18.8057324,0 Z M19.5527637,32.7589063 C19.5527637,33.1708398 19.217666,33.5059375 18.8057324,33.5059375 L2.24895508,33.5059375 C1.83702148,33.5059375 1.50192383,33.1708398 1.50192383,32.7589063 L1.50192383,2.24109375 C1.50192383,1.82916016 1.83702148,1.4940625 2.24895508,1.4940625 L18.8056641,1.4940625 C19.2175977,1.4940625 19.5526953,1.82916016 19.5526953,2.24109375 L19.5526953,32.7589063 L19.5527637,32.7589063 Z" id="Shape"></path>
                                <path d="M11.7863867,14.0276172 C11.4945605,13.7359961 11.0217188,13.7359961 10.7298242,14.0276172 L7.14136719,17.6161426 C6.84967773,17.907832 6.84967773,18.3808789 7.14143555,18.6726367 C7.28731445,18.8185156 7.47851562,18.8915234 7.66964844,18.8915234 C7.86078125,18.8915234 8.05205078,18.8185156 8.19786133,18.6727051 L11.7863184,15.0841797 C12.0780762,14.7924219 12.0780762,14.319375 11.7863867,14.0276172 Z" id="Path"></path>
                                <path d="M13.9133203,16.1072461 C13.6215625,15.815625 13.1486523,15.815625 12.8567578,16.1072461 L11.4272266,17.5367773 C11.1356055,17.8284668 11.1356055,18.3015137 11.4272949,18.5933398 C11.5731738,18.7391504 11.764375,18.8121582 11.9555078,18.8121582 C12.1466406,18.8121582 12.3378418,18.7391504 12.4837207,18.5933398 L13.913252,17.1638086 C14.2050781,16.8720508 14.2050781,16.3990039 13.9133203,16.1072461 Z" id="Path"></path>
                                <path d="M17.3199414,5.52972656 L3.73488281,5.52972656 C3.36355469,5.52972656 3.06256836,5.83071289 3.06256836,6.20204102 L3.06256836,26.7970117 C3.06256836,27.1683398 3.36355469,27.4693262 3.73488281,27.4693262 L17.3199414,27.4693262 C17.6912695,27.4693262 17.9922559,27.1683398 17.9922559,26.7970117 L17.9922559,6.20204102 C17.9922559,5.83078125 17.6912695,5.52972656 17.3199414,5.52972656 Z M16.6475586,26.1246973 L16.6475586,26.1246973 L4.40712891,26.1246973 L4.40712891,6.87442383 L16.6475586,6.87442383 L16.6475586,26.1246973 Z" id="Shape"></path>
                            </g>
                        </g>
                    </g>
                </g>
            </g>
        </g>
    </g>
</svg>