<?xml version="1.0" encoding="UTF-8"?>
<svg width="100px" height="100px" viewBox="0 0 100 100" version="1.1" xmlns="http://www.w3.org/2000/svg" xmlns:xlink="http://www.w3.org/1999/xlink">
    <!-- Generator: Sketch 53.2 (72643) - https://sketchapp.com -->
    <title>event-management</title>
    <desc>Created with Sketch.</desc>
    <g id="Symbols" stroke="none" stroke-width="1" fill="none" fill-rule="evenodd">
        <g id="Services-on-Offer" transform="translate(-990.000000, -218.000000)">
            <g id="Work-With">
                <g id="event-management" transform="translate(990.000000, 218.000000)">
                    <g id="Icon-Circle-Copy">
                        <path d="M98.235437,62.933012 C98.6861359,61.2886164 99.0529455,59.6147101 99.334221,57.9227696 L11.7177097,81.5804258 C12.8181386,82.9018444 13.9810732,84.1609629 15.2032237,85.3528628 L98.235437,62.933012 Z M99.8715469,53.32496 C99.9851094,51.763107 100.024609,50.1881977 99.9851094,48.6018642 L6.39147803,73.7449239 C7.16501992,75.1337818 7.99945766,76.4720467 8.89314542,77.7629827 L99.8715469,53.32496 Z M94.061837,73.2914669 C94.9914074,71.5494073 95.8206172,69.7515755 96.5379494,67.9094541 L18.9081225,88.8748627 C20.4596003,90.1051308 22.0851146,91.2402581 23.7715035,92.276964 L94.061837,73.2914669 Z M99.6005326,44.0831635 C99.429541,42.5728461 99.1812744,41.0608817 98.8672417,39.5472703 L2.79627164,65.6212448 C3.28787247,67.0854456 3.83537441,68.516706 4.45028649,69.9067909 L99.6005326,44.0831635 Z M77.8961385,90.8122503 L46.7376831,99.4864863 C52.0780571,99.853098 57.5657291,99.345223 63.0239416,97.8266431 C68.4788808,96.309745 73.4657393,93.8981796 77.8961385,90.8122503 Z M86.0136267,84.4032937 C87.8636731,82.5009262 89.5602366,80.4567877 91.0785619,78.2956059 L29.2942743,95.0163286 C31.6988395,96.1175258 34.1925238,97.0225516 36.7538726,97.7363515 L86.0136267,84.4032937 Z M0.0270367147,48.1490607 C-0.0239219724,49.7115425 -0.00419602903,51.2839031 0.0977213452,52.8628495 L94.4074567,27.2720635 C93.6973228,25.8577621 92.9230795,24.4912079 92.0945899,23.1691079 L0.0270367147,48.1490607 Z M35.9818851,2.01640476 C29.1733499,3.99754748 23.1017618,7.30764533 17.976032,11.5845539 L58.322237,0.697281614 C51.729193,-0.418647412 44.8137347,-0.223646598 37.9311758,1.4887555 L35.9818851,2.01640476 Z M96.3730564,31.2916112 L0.532623169,57.1732586 C0.760057348,58.6647879 1.0583587,60.1596025 1.42917529,61.6511318 L97.8695073,35.610147 C97.4327678,34.1334016 96.9334014,32.6944372 96.3730564,31.2916112 Z M11.7301802,17.3991293 C10.1615473,19.2612803 8.73761011,21.2372387 7.45672437,23.3022636 L73.10253,5.46090999 C70.9616914,4.3261359 68.7369951,3.34475424 66.446528,2.52996005 L11.7301802,17.3991293 Z M4.79685742,28.2896481 C3.98784807,30.0024005 3.2727563,31.7559716 2.66311585,33.5552597 L82.9560586,12.0013562 C81.5143413,10.7539369 80.0017739,9.59631874 78.4315378,8.52197071 L4.79685742,28.2896481 Z M1.2665689,38.5864844 C0.893073556,40.2153167 0.606781972,41.8704206 0.399467377,43.5419441 L89.6138482,19.419791 C88.5887927,18.081587 87.5061498,16.797568 86.3593381,15.5792277 L1.2665689,38.5864844 Z" id="Fill-36" fill="#E8E8E9" transform="translate(50.000000, 49.800266) rotate(-360.000000) translate(-50.000000, -49.800266) "></path>
                        <circle id="Oval" stroke="#EAEAEA" fill="#FFFFFF" cx="50" cy="50" r="40"></circle>
                    </g>
                    <g id="map" transform="translate(28.000000, 32.000000)" fill-rule="nonzero">
                        <path d="M6.27522277,3.72992574 C4.86014851,3.72992574 3.70878713,4.88128713 3.70878713,6.29636139 C3.70878713,7.71152228 4.86014851,8.86288366 6.27522277,8.86288366 C7.69029703,8.86288366 8.84165842,7.71152228 8.84165842,6.29636139 C8.84165842,4.88128713 7.69029703,3.72992574 6.27522277,3.72992574 Z M6.27522277,7.01654703 C5.87809406,7.01654703 5.55503713,6.69340347 5.55503713,6.29627475 C5.55503713,5.89914604 5.87809406,5.57608911 6.27522277,5.57608911 C6.67235149,5.57608911 6.99540842,5.89905941 6.99540842,6.29627475 C6.99540842,6.6934901 6.67226485,7.01654703 6.27522277,7.01654703 Z" id="Shape" fill="#000000"></path>
                        <path d="M42.6075619,11.5758168 L42.6075619,5.0577599 C42.6075619,3.79594059 41.5806931,2.76803218 40.3176609,2.76655941 L11.4545297,2.75209158 C11.2290223,2.42409653 10.9712005,2.11455446 10.6812376,1.82857673 C9.47633663,0.640222772 7.88132426,-0.00294554455 6.18642327,0.0220915842 C2.79540842,0.0690470297 0.0202722772,2.86679455 8.66336634e-05,6.25850248 C-0.00580445545,7.26362624 0.23174505,8.26467822 0.687091584,9.1537995 C0.696101485,9.17147277 2.18836634,11.6736262 2.18836634,11.6736262 L2.18836634,32.6691213 C2.18836634,33.9319802 3.21584158,34.9594554 4.47826733,34.9594554 L40.3154084,34.9788614 C41.5793069,34.9788614 42.6075619,33.950953 42.6075619,32.6875743 L42.6075619,20.5602475 C42.6075619,20.5602475 43.6604208,18.7945668 43.6694307,18.7768069 C44.1188861,17.8992946 44.3565223,16.9112376 44.3565223,15.9194554 C44.3564356,14.2847649 43.7357054,12.7497896 42.6075619,11.5758168 Z M36.2956064,4.61081683 L31.8384777,9.06794554 L27.3768441,4.60631188 L36.2956064,4.61081683 Z M30.6633787,10.2429579 L22.8953713,18.0109653 L20.0551733,15.1707673 C20.055,15.1705941 20.0549134,15.1705074 20.0547401,15.1703342 C20.0545668,15.1701609 20.0544802,15.1700743 20.0543069,15.169901 L17.9238119,13.0394059 L25.6918193,5.27148515 L30.6633787,10.2429579 Z M15.1944183,21.2059282 L19.4673639,16.9329827 L24.9570792,22.422698 L20.6841337,26.6956436 L15.1944183,21.2059282 Z M16.2359282,24.5972896 L11.4427475,29.3903837 L7.60210396,25.5496535 L12.395198,20.7565594 L16.2359282,24.5972896 Z M11.8629208,9.1537995 C12.3123762,8.27628713 12.5500124,7.2882302 12.5500124,6.29644802 C12.5500124,5.71383663 12.4696163,5.14439356 12.3173144,4.59877475 L24.0087871,4.60466584 L16.7489728,11.8644802 L14.1493564,9.26486386 C13.8248267,8.94050743 13.2988738,8.94050743 12.9743441,9.26486386 C12.649901,9.58930693 12.649901,10.1154332 12.9743441,10.4399629 L18.2924381,15.7580569 L14.0194926,20.0310025 L10.5588243,16.5703342 C10.2343812,16.2459777 9.70834158,16.2459777 9.38381188,16.5703342 C9.05936881,16.8948639 9.05936881,17.4209035 9.38381188,17.7454332 L11.220099,19.5817203 L4.03470297,26.7670297 L4.03470297,14.7680074 L4.69034653,15.8668688 C5.02657178,16.4303342 5.61897277,16.7667327 6.2750495,16.7667327 C6.93112624,16.7667327 7.52352723,16.4303342 7.85975248,15.8669554 C7.85966584,15.8668688 11.8539109,9.17147277 11.8629208,9.1537995 Z M2.3174505,8.28668317 C2.00063119,7.65850248 1.84209158,6.98007426 1.84633663,6.26950495 C1.86054455,3.87581683 3.81889851,1.90134901 6.21180693,1.86816832 C7.40882426,1.85344059 8.53428218,2.30445545 9.38467822,3.14315594 C9.6775,3.43199257 9.92388614,3.75470297 10.1226238,4.10175743 C10.1312005,4.11830446 10.1407302,4.13415842 10.1503465,4.15001238 C10.5111757,4.79907178 10.7037624,5.53233911 10.7037624,6.29653465 C10.7037624,6.99748762 10.5452228,7.66690594 10.2325619,8.28685644 L6.27600248,14.9209158 L2.3174505,8.28668317 Z M4.47878713,33.1132054 C4.2339604,33.1132054 4.0347896,32.9141213 4.0347896,32.6692079 L4.0347896,29.1170545 L6.42709158,26.7247525 L12.8200495,33.117797 L4.47878713,33.1132054 Z M15.1712871,33.1189233 L12.6176733,30.5653094 L17.410854,25.7722153 L24.7626733,33.1241213 L15.1712871,33.1189233 Z M21.859146,27.8705693 L26.1320916,23.5976238 L29.2349629,26.700495 L24.9620173,30.9734406 L21.859146,27.8705693 Z M27.1139109,33.1254208 L26.1369431,32.148453 L30.4098886,27.8755074 L35.6644802,33.130099 L27.1139109,33.1254208 Z M40.3159282,33.1325248 L38.0158045,33.1313119 L31.5849876,26.700495 L33.5204703,24.7650124 C33.845,24.4404827 33.845,23.9144431 33.5204703,23.5899134 C33.1960272,23.2655569 32.6699876,23.2655569 32.3454579,23.5899134 L30.4098886,25.5254827 L26.7199876,21.8355817 C26.7198144,21.8354084 26.7197277,21.8353218 26.7195545,21.8351485 C26.7193812,21.8349752 26.7192946,21.8348886 26.7191213,21.8347153 L24.0704703,19.1859777 L27.2199505,16.0364975 L28.8519554,17.6685025 C29.0322401,17.8487005 29.2684901,17.9388861 29.5047401,17.9388861 C29.7409901,17.9388861 29.9773267,17.8487005 30.1575248,17.6685025 C30.5180074,17.3080198 30.5180074,16.7235025 30.1575248,16.3628465 L28.5255198,14.7308416 L38.6443317,4.6120297 L40.3161015,4.61289604 C40.561448,4.61315594 40.7611386,4.8127599 40.7611386,5.0577599 L40.7611386,10.242005 C39.9080569,9.83803218 38.967302,9.63054455 37.9926733,9.64527228 C34.6016584,9.69231436 31.8266089,12.4898886 31.8065099,15.8816832 C31.8006188,16.8868069 32.0381683,17.8878589 32.4935149,18.7769802 C32.5025248,18.7945668 36.4967698,25.4900495 36.4967698,25.4900495 C36.832995,26.0535149 37.425396,26.3899134 38.0815594,26.3899134 C38.7376361,26.3899134 39.3300371,26.0536015 39.6661757,25.4901361 L40.7612252,23.654802 L40.7612252,32.6876609 L40.7614851,32.6876609 C40.7612252,32.9329208 40.5611881,33.1325248 40.3159282,33.1325248 Z M42.0389851,17.9097772 L40.873849,19.8633663 C40.8735025,19.864146 40.872896,19.8648391 40.8725495,19.8656188 L38.0823391,24.5439233 L34.1239604,17.9096906 C33.8071411,17.2815099 33.6486015,16.6030817 33.6528465,15.8925124 C33.6669678,13.4988243 35.6254084,11.5244431 38.0184035,11.4912624 C39.2130817,11.4749752 40.3407921,11.9274629 41.1911015,12.7661634 C42.0416708,13.6050371 42.5101856,14.7249505 42.5101856,15.9195421 C42.5101856,16.620495 42.351646,17.2899134 42.0389851,17.9097772 Z" id="Shape" fill="#3A405A"></path>
                        <path d="M38.081646,13.3531064 C36.6664851,13.3531064 35.5152104,14.5044678 35.5152104,15.9196287 C35.5152104,17.334703 36.6665718,18.4860644 38.081646,18.4860644 C39.4968069,18.4860644 40.6480817,17.334703 40.6480817,15.9196287 C40.6480817,14.5042946 39.4968069,13.3531064 38.081646,13.3531064 Z M38.081646,16.6396411 C37.6845173,16.6396411 37.3614604,16.3166708 37.3614604,15.9194554 C37.3614604,15.5222401 37.6844307,15.1991832 38.081646,15.1991832 C38.4788614,15.1991832 38.8018317,15.5223267 38.8018317,15.9194554 C38.8018317,16.3165842 38.4787748,16.6396411 38.081646,16.6396411 Z" id="Shape" fill="#000000"></path>
                    </g>
                </g>
            </g>
        </g>
    </g>
</svg>