<?xml version="1.0" encoding="UTF-8"?>
<svg width="33px" height="33px" viewBox="0 0 33 33" version="1.1" xmlns="http://www.w3.org/2000/svg" xmlns:xlink="http://www.w3.org/1999/xlink">
    <!-- Generator: Sketch 54.1 (76490) - https://sketchapp.com -->
    <title>instagram</title>
    <desc>Created with Sketch.</desc>
    <g id="Designs" stroke="none" stroke-width="1" fill="none" fill-rule="evenodd">
        <g id="v2" transform="translate(-1186.000000, -5162.000000)" fill="#3A405A" fill-rule="nonzero">
            <g id="instagram" transform="translate(1186.000000, 5162.000000)">
                <path d="M23.8929978,0 L9.10661178,0 C4.08522909,0 0,4.08542428 0,9.10680697 L0,23.893193 C0,28.9147709 4.08522909,33 9.10661178,33 L23.8929978,33 C28.9147709,33 33,28.9145757 33,23.893193 L33,9.10680697 C33.0001952,4.08542428 28.9147709,0 23.8929978,0 Z M30.0722753,23.893193 C30.0722753,27.3003159 27.3003159,30.0720801 23.893193,30.0720801 L9.10661178,30.0720801 C5.69968414,30.0722753 2.92791993,27.3003159 2.92791993,23.893193 L2.92791993,9.10680697 C2.92791993,5.69987933 5.69968414,2.92791993 9.10661178,2.92791993 L23.8929978,2.92791993 C27.3001207,2.92791993 30.0720801,5.69987933 30.0720801,9.10680697 L30.0720801,23.893193 L30.0722753,23.893193 Z" id="Shape"></path>
                <path d="M16.0285714,7.54285714 C11.3494781,7.54285714 7.54285714,11.3495655 7.54285714,16.0287662 C7.54285714,20.7077722 11.3494781,24.5142857 16.0285714,24.5142857 C20.7076648,24.5142857 24.5142857,20.7077722 24.5142857,16.0287662 C24.5142857,11.3495655 20.7076648,7.54285714 16.0285714,7.54285714 Z M16.0285714,21.5921472 C12.9607957,21.5921472 10.4647338,19.0964176 10.4647338,16.0285714 C10.4647338,12.9605305 12.9606009,10.4646061 16.0285714,10.4646061 C19.096542,10.4646061 21.592409,12.9605305 21.592409,16.0285714 C21.592409,19.0964176 19.0963472,21.5921472 16.0285714,21.5921472 Z" id="Shape"></path>
                <path d="M24.9857143,5.65714286 C24.3664286,5.65714286 23.7580714,5.90785714 23.3207143,6.34714286 C22.8812143,6.78428571 22.6285714,7.39285714 22.6285714,8.01428571 C22.6285714,8.63378571 22.8814286,9.24214286 23.3207143,9.68142857 C23.7578571,10.1185714 24.3664286,10.3714286 24.9857143,10.3714286 C25.6071429,10.3714286 26.2135714,10.1185714 26.6528571,9.68142857 C27.0921429,9.24214286 27.3428571,8.63357143 27.3428571,8.01428571 C27.3428571,7.39285714 27.0921429,6.78428571 26.6528571,6.34714286 C26.2157143,5.90785714 25.6071429,5.65714286 24.9857143,5.65714286 Z" id="Path"></path>
            </g>
        </g>
    </g>
</svg>