<?xml version="1.0" encoding="UTF-8"?>
<svg width="1170px" height="1170px" viewBox="0 0 1170 1170" version="1.1" xmlns="http://www.w3.org/2000/svg" xmlns:xlink="http://www.w3.org/1999/xlink">
    <!-- Generator: Sketch 54.1 (76490) - https://sketchapp.com -->
    <title>mitso-circle-white</title>
    <desc>Created with Sketch.</desc>
    <g id="Designs" stroke="none" stroke-width="1" fill="none" fill-rule="evenodd" fill-opacity="0.1">
        <g id="Artboard" transform="translate(-537.000000, -252.000000)" fill="#FFFFFF">
            <path d="M1685.95167,991.657302 C1691.23455,972.413802 1695.53412,952.824955 1698.83111,933.025063 L671.831106,1209.87821 C684.729822,1225.34208 698.3612,1240.07688 712.68668,1254.02506 L1685.95167,991.657302 Z M1704.39504,878.56877 C1705.72588,860.251443 1706.18879,841.780993 1705.72588,823.17656 L608.900388,1118.05299 C617.96554,1134.34144 627.744331,1150.03653 638.217474,1165.17656 L1704.39504,878.56877 Z M1636.05411,1112.68837 C1646.95082,1092.24192 1656.67106,1071.14088 1665.07984,1049.52001 L755.079843,1295.58975 C773.266728,1310.02934 792.321493,1323.35226 812.089846,1335.52001 L1636.05411,1112.68837 Z M1702.27297,770.370131 C1700.26815,752.659938 1697.3573,734.930431 1693.67536,717.181611 L567.272971,1022.92869 C573.036838,1040.09812 579.456129,1056.88128 586.665783,1073.18161 L1702.27297,770.370131 Z M1447.02707,1317.79671 L1082.02707,1419.46007 C1144.58589,1423.75681 1208.87022,1417.80444 1272.80945,1400.00645 C1336.71033,1382.22818 1395.12797,1353.96427 1447.02707,1317.79671 Z M1541.71935,1242.78163 C1563.39854,1220.47077 1583.2792,1196.49722 1601.07122,1171.151 L877.071221,1367.25072 C905.248372,1380.1655 934.469837,1390.77959 964.484208,1399.151 L1541.71935,1242.78163 Z M535.06711,818.422671 C534.47012,836.734398 534.701213,855.1619 535.895193,873.666586 L1640.75037,573.751753 C1632.43103,557.176649 1623.36063,541.161124 1613.65473,525.666586 L535.06711,818.422671 Z M955.922983,277.39014 C876.102908,300.6483 804.922453,339.508087 744.830799,389.718011 L1217.8308,261.903937 C1140.53704,248.803187 1059.46345,251.092451 978.775554,271.195659 L955.922983,277.39014 Z M1663.68968,621.015088 L540.23134,924.506918 C542.897363,941.9968 546.394104,959.525206 550.740881,977.015088 L1681.23134,671.654846 C1676.1118,654.338322 1670.25814,637.464823 1663.68968,621.015088 Z M671.993981,457.953709 C653.618417,479.737654 636.937874,502.852947 621.93309,527.010165 L1390.93309,318.297206 C1365.85449,305.022313 1339.79355,293.541846 1312.96215,284.010165 L671.993981,457.953709 Z M590.638141,585.131571 C581.156887,605.178336 572.776308,625.70286 565.631575,646.762473 L1506.63157,394.486645 C1489.73525,379.886332 1472.00858,366.337089 1453.60607,353.762473 L590.638141,585.131571 Z M548.753809,705.83746 C544.374738,724.943508 541.018093,744.357718 538.587419,763.96453 L1584.58742,481.013972 C1572.56909,465.316966 1559.87557,450.255545 1546.4297,435.96453 L548.753809,705.83746 Z" id="mitso-circle-white" transform="translate(1120.325379, 837.257359) rotate(-315.000000) translate(-1120.325379, -837.257359) "></path>
        </g>
    </g>
</svg>