<?xml version="1.0" encoding="UTF-8"?>
<svg width="183px" height="183px" viewBox="0 0 183 183" version="1.1" xmlns="http://www.w3.org/2000/svg" xmlns:xlink="http://www.w3.org/1999/xlink">
    <!-- Generator: Sketch 54.1 (76490) - https://sketchapp.com -->
    <title>play-button</title>
    <desc>Created with Sketch.</desc>
    <g id="Designs" stroke="none" stroke-width="1" fill="none" fill-rule="evenodd">
        <g id="v2" transform="translate(-959.000000, -378.000000)">
            <g id="Header" transform="translate(0.000000, -256.000000)">
                <g id="Hero-Photo-Mask" transform="translate(325.000000, 0.000000)">
                    <g id="play-button" transform="translate(634.000000, 634.000000)">
                        <path d="M170.70675,45.7697448 C158.491837,24.6132425 138.769266,9.4789376 115.17152,3.15614862 C91.5741322,-3.16735521 66.9269942,0.0776759485 45.7693716,12.2932757 C24.6121065,24.508518 9.47848212,44.2310446 3.1556788,67.8287367 C-3.16712452,91.4260714 0.077913995,116.073868 12.2928266,137.230371 C24.5073817,158.386873 44.2306679,173.521178 67.8280562,179.843967 C75.7077918,181.955614 83.7036896,183 91.6488335,183 C107.496588,183 123.13811,178.843544 137.230562,170.707197 C158.387113,158.492312 173.521452,138.769786 179.844255,115.172094 C186.167416,91.574044 182.921663,66.9269619 170.70675,45.7697448 Z M170.643486,112.706956 C164.979055,133.847017 151.421306,151.516157 132.467193,162.458978 C113.513795,173.402156 91.4329503,176.308709 70.2928415,170.645006 C49.1523752,164.980588 31.4835533,151.42287 20.5403499,132.468799 C9.5975038,113.515444 6.69058693,91.4342921 12.3553755,70.2938738 C18.0201641,49.153813 31.5779128,31.4853886 50.5316685,20.5418525 C63.1576169,13.2522379 77.1682199,9.52897663 91.3668272,9.52897663 C98.4831084,9.52897663 105.649071,10.4647065 112.705663,12.3558245 C133.845772,18.0202428 151.514951,31.5779608 162.457797,50.5320308 C173.401001,69.4857435 176.308275,91.5665382 170.643486,112.706956 Z" id="Shape" fill="#FFFFFF" fill-rule="nonzero"></path>
                        <path d="M135.000327,83.3555237 L76.0004539,49.3531247 C72.8694723,47.5486601 69.1313721,47.549376 66.0003904,49.3527668 C62.8694087,51.1568734 61,54.3888732 61,57.9974445 L61,126.002242 C61,129.610814 62.8690501,132.842455 66.0003904,134.64692 C67.5657019,135.549331 69.2823448,136 70.9997049,136 C72.7174237,136 74.4347838,135.548257 76.0000953,134.646562 L135.000685,100.644521 C138.131309,98.8396985 140,95.6080567 140,91.9994854 C140,88.3912721 138.13095,85.1596303 135.000327,83.3555237 Z M130.221554,92.383932 L71.2213229,126.385973 C71.1492433,126.427854 70.9989877,126.514122 70.778087,126.385973 C70.556469,126.258182 70.556469,126.085646 70.556469,126.0026 L70.556469,57.9978024 C70.556469,57.9147562 70.556469,57.7422207 70.778087,57.6144298 C70.8648694,57.5643157 70.9405351,57.5471337 71.005084,57.5471337 C71.1054935,57.5471337 71.1779317,57.5890148 71.2220401,57.6144298 L130.221913,91.6168287 C130.293993,91.6583518 130.443531,91.7446196 130.443531,92.0002014 C130.443531,92.2557831 130.293275,92.3424089 130.221554,92.383932 Z" id="Shape" fill="#FFEE93" fill-rule="nonzero"></path>
                        <path d="M148.005711,48.2544288 C136.704663,33.4930957 119.71618,23.5757645 101.395708,21.0448691 C98.7984174,20.6853731 96.3997664,22.5254015 96.0442126,25.1550952 C95.689372,27.7840678 97.5092227,30.2064293 100.109366,30.5659253 C115.9834,32.7585988 130.701616,41.3504461 140.49058,54.136534 C141.427074,55.3596139 142.831815,56 144.251534,56 C145.267555,56 146.291421,55.6722348 147.15659,54.9943486 C149.231784,53.3703063 149.611945,50.3526308 148.005711,48.2544288 Z" id="Path" fill="#FFFFFF"></path>
                    </g>
                </g>
            </g>
        </g>
    </g>
</svg>