<?xml version="1.0" encoding="UTF-8"?>
<svg width="39px" height="35px" viewBox="0 0 39 35" version="1.1" xmlns="http://www.w3.org/2000/svg" xmlns:xlink="http://www.w3.org/1999/xlink">
    <!-- Generator: Sketch 54.1 (76490) - https://sketchapp.com -->
    <title>pr-white</title>
    <desc>Created with Sketch.</desc>
    <g id="Symbols" stroke="none" stroke-width="1" fill="none" fill-rule="evenodd">
        <g id="Artboard" transform="translate(-421.000000, -49.000000)" fill="#FFFFFF" fill-rule="nonzero">
            <g id="pr-white" transform="translate(421.000000, 49.000000)">
                <path d="M34.2400957,8.30405533 L34.2400957,1.95317427 C34.2400957,1.25379101 33.8845254,0.625101584 33.2889375,0.271478236 C32.6910645,-0.0835327776 31.9719258,-0.0908565662 31.3655215,0.252436385 C25.5746309,3.53010158 19.2751406,5.44423154 12.6420938,5.94201788 C12.5912871,5.94579542 6.59617969,5.97231524 6.59617969,5.97231524 C5.09049023,5.97231524 3.84599414,7.12276678 3.67376953,8.60047603 L2.44321289,8.60047603 C1.09611328,8.60047603 0,9.70968308 0,11.0731412 L0,16.5056963 C0,17.8691544 1.09611328,18.9784386 2.44321289,18.9784386 L3.67361719,18.9784386 C3.797625,20.0419298 4.47677344,20.9352778 5.40919336,21.3528108 L9.78793359,33.5833835 C10.0616191,34.3446721 10.7832715,34.856258 11.5839141,34.856258 L15.978041,34.856258 C16.6009746,34.856258 17.186127,34.547965 17.5434492,34.0315994 C17.9007715,33.5150796 17.9869219,32.8530862 17.77425,32.2615553 L14.0121973,21.7587029 C20.1426621,22.4032734 25.9741523,24.2719959 31.3654453,27.3234716 C31.6628965,27.4918417 31.9874648,27.5757954 32.3115,27.5757954 C32.6479512,27.5757183 32.9840977,27.4852117 33.288709,27.3043527 C33.8842969,26.9506522 34.2400195,26.3220399 34.2400195,25.6225025 L34.2400195,19.2716214 C36.9213457,18.9200796 39,16.5958174 39,13.7878769 C39,10.9798593 36.9213457,8.65552009 34.2400957,8.30405533 Z M3.65251758,17.0713241 L2.44321289,17.0713241 C2.13494531,17.0713241 1.88426367,16.8176126 1.88426367,16.5056192 L1.88426367,11.0731412 C1.88426367,10.7613791 2.13494531,10.5075135 2.44321289,10.5075135 L3.65251758,10.5075135 L3.65251758,17.0713241 Z M6.16458984,19.6055862 C5.79515625,19.437987 5.53678125,19.062932 5.53678125,18.6274364 L5.53678125,8.95132405 L5.53685742,8.95132405 C5.53685742,8.36025577 6.01209375,7.87935268 6.59610352,7.87935268 L11.7249844,7.87935268 L11.7249844,19.6994848 C11.7249844,19.6994848 6.55139062,19.6974804 6.52907227,19.6960928 C6.34008984,19.6739672 6.30032812,19.6640994 6.16458984,19.6055862 Z M16.0030254,32.9123703 C16.0060723,32.9201566 16.0080527,32.9257073 15.9999023,32.9373483 C15.9919043,32.9489892 15.9859629,32.9489892 15.9779648,32.9489892 L11.5838379,32.9489892 C11.5726406,32.9489892 11.5623574,32.9418196 11.5589297,32.9324144 L7.50407227,21.6064452 L11.9533477,21.6064452 L16.0030254,32.9123703 Z M32.355832,25.6225796 C32.355832,25.6363791 32.355832,25.6474033 32.3354941,25.6595069 C32.3112715,25.6736919 32.2967988,25.6655972 32.2852207,25.6590443 C26.4935684,22.3810707 20.2143398,20.4132844 13.609248,19.8030972 L13.609248,7.77358176 C20.214873,7.16246943 26.4941016,5.1945289 32.2849922,1.9168637 C32.296875,1.91031083 32.3115762,1.90221612 32.3354941,1.91640114 C32.355832,1.92850467 32.355832,1.93937471 32.355832,1.95317427 L32.355832,25.6225796 Z M34.2400957,17.3412249 L34.2400957,10.2344518 C35.8780195,10.5670289 37.1157363,12.0337139 37.1157363,13.7877998 C37.1157363,15.5419628 35.8779434,17.0087249 34.2400957,17.3412249 Z" id="Shape"></path>
            </g>
        </g>
    </g>
</svg>