<?xml version="1.0" encoding="UTF-8"?>
<svg width="100px" height="100px" viewBox="0 0 100 100" version="1.1" xmlns="http://www.w3.org/2000/svg" xmlns:xlink="http://www.w3.org/1999/xlink">
    <!-- Generator: Sketch 53.2 (72643) - https://sketchapp.com -->
    <title>pr</title>
    <desc>Created with Sketch.</desc>
    <g id="Symbols" stroke="none" stroke-width="1" fill="none" fill-rule="evenodd">
        <g id="Services-on-Offer" transform="translate(-990.000000, -342.000000)">
            <g id="Work-With">
                <g id="pr" transform="translate(990.000000, 342.000000)">
                    <g id="Icon-Circle-Copy-4">
                        <path d="M98.235437,62.933012 C98.6861359,61.2886164 99.0529455,59.6147101 99.334221,57.9227696 L11.7177097,81.5804258 C12.8181386,82.9018444 13.9810732,84.1609629 15.2032237,85.3528628 L98.235437,62.933012 Z M99.8715469,53.32496 C99.9851094,51.763107 100.024609,50.1881977 99.9851094,48.6018642 L6.39147803,73.7449239 C7.16501992,75.1337818 7.99945766,76.4720467 8.89314542,77.7629827 L99.8715469,53.32496 Z M94.061837,73.2914669 C94.9914074,71.5494073 95.8206172,69.7515755 96.5379494,67.9094541 L18.9081225,88.8748627 C20.4596003,90.1051308 22.0851146,91.2402581 23.7715035,92.276964 L94.061837,73.2914669 Z M99.6005326,44.0831635 C99.429541,42.5728461 99.1812744,41.0608817 98.8672417,39.5472703 L2.79627164,65.6212448 C3.28787247,67.0854456 3.83537441,68.516706 4.45028649,69.9067909 L99.6005326,44.0831635 Z M77.8961385,90.8122503 L46.7376831,99.4864863 C52.0780571,99.853098 57.5657291,99.345223 63.0239416,97.8266431 C68.4788808,96.309745 73.4657393,93.8981796 77.8961385,90.8122503 Z M86.0136267,84.4032937 C87.8636731,82.5009262 89.5602366,80.4567877 91.0785619,78.2956059 L29.2942743,95.0163286 C31.6988395,96.1175258 34.1925238,97.0225516 36.7538726,97.7363515 L86.0136267,84.4032937 Z M0.0270367147,48.1490607 C-0.0239219724,49.7115425 -0.00419602903,51.2839031 0.0977213452,52.8628495 L94.4074567,27.2720635 C93.6973228,25.8577621 92.9230795,24.4912079 92.0945899,23.1691079 L0.0270367147,48.1490607 Z M35.9818851,2.01640476 C29.1733499,3.99754748 23.1017618,7.30764533 17.976032,11.5845539 L58.322237,0.697281614 C51.729193,-0.418647412 44.8137347,-0.223646598 37.9311758,1.4887555 L35.9818851,2.01640476 Z M96.3730564,31.2916112 L0.532623169,57.1732586 C0.760057348,58.6647879 1.0583587,60.1596025 1.42917529,61.6511318 L97.8695073,35.610147 C97.4327678,34.1334016 96.9334014,32.6944372 96.3730564,31.2916112 Z M11.7301802,17.3991293 C10.1615473,19.2612803 8.73761011,21.2372387 7.45672437,23.3022636 L73.10253,5.46090999 C70.9616914,4.3261359 68.7369951,3.34475424 66.446528,2.52996005 L11.7301802,17.3991293 Z M4.79685742,28.2896481 C3.98784807,30.0024005 3.2727563,31.7559716 2.66311585,33.5552597 L82.9560586,12.0013562 C81.5143413,10.7539369 80.0017739,9.59631874 78.4315378,8.52197071 L4.79685742,28.2896481 Z M1.2665689,38.5864844 C0.893073556,40.2153167 0.606781972,41.8704206 0.399467377,43.5419441 L89.6138482,19.419791 C88.5887927,18.081587 87.5061498,16.797568 86.3593381,15.5792277 L1.2665689,38.5864844 Z" id="Fill-36" fill="#E8E8E9" transform="translate(50.000000, 49.800266) rotate(-360.000000) translate(-50.000000, -49.800266) "></path>
                        <circle id="Oval" stroke="#EAEAEA" fill="#FFFFFF" cx="50" cy="50" r="40"></circle>
                    </g>
                    <g id="megaphone" transform="translate(29.000000, 33.000000)" fill="#3A405A" fill-rule="nonzero">
                        <path d="M34.2400957,8.37594714 L34.2400957,2.02506608 C34.2400957,1.32568282 33.8845254,0.696993392 33.2889375,0.343370044 C32.6910645,-0.0116409692 31.9719258,-0.0189647577 31.3655215,0.324328194 C25.5746309,3.60199339 19.2751406,5.51612335 12.6420938,6.01390969 C12.5912871,6.01768722 6.59617969,6.04420705 6.59617969,6.04420705 C5.09049023,6.04420705 3.84599414,7.19465859 3.67376953,8.67236784 L2.44321289,8.67236784 C1.09611328,8.67236784 0,9.78157489 0,11.145033 L0,16.5775881 C0,17.9410463 1.09611328,19.0503304 2.44321289,19.0503304 L3.67361719,19.0503304 C3.797625,20.1138216 4.47677344,21.0071696 5.40919336,21.4247026 L9.78793359,33.6552753 C10.0616191,34.4165639 10.7832715,34.9281498 11.5839141,34.9281498 L15.978041,34.9281498 C16.6009746,34.9281498 17.186127,34.6198568 17.5434492,34.1034912 C17.9007715,33.5869714 17.9869219,32.924978 17.77425,32.3334471 L14.0121973,21.8305947 C20.1426621,22.4751652 25.9741523,24.3438877 31.3654453,27.3953634 C31.6628965,27.5637335 31.9874648,27.6476872 32.3115,27.6476872 C32.6479512,27.6476101 32.9840977,27.5571035 33.288709,27.3762445 C33.8842969,27.0225441 34.2400195,26.3939317 34.2400195,25.6943943 L34.2400195,19.3435132 C36.9213457,18.9919714 39,16.6677093 39,13.8597687 C39,11.0517511 36.9213457,8.72741189 34.2400957,8.37594714 Z M3.65251758,17.1432159 L2.44321289,17.1432159 C2.13494531,17.1432159 1.88426367,16.8895044 1.88426367,16.577511 L1.88426367,11.145033 C1.88426367,10.8332709 2.13494531,10.5794053 2.44321289,10.5794053 L3.65251758,10.5794053 L3.65251758,17.1432159 Z M6.16458984,19.677478 C5.79515625,19.5098789 5.53678125,19.1348238 5.53678125,18.6993282 L5.53678125,9.02321586 L5.53685742,9.02321586 C5.53685742,8.43214758 6.01209375,7.95124449 6.59610352,7.95124449 L11.7249844,7.95124449 L11.7249844,19.7713767 C11.7249844,19.7713767 6.55139062,19.7693722 6.52907227,19.7679846 C6.34008984,19.745859 6.30032812,19.7359912 6.16458984,19.677478 Z M16.0030254,32.9842621 C16.0060723,32.9920485 16.0080527,32.9975991 15.9999023,33.0092401 C15.9919043,33.0208811 15.9859629,33.0208811 15.9779648,33.0208811 L11.5838379,33.0208811 C11.5726406,33.0208811 11.5623574,33.0137115 11.5589297,33.0043062 L7.50407227,21.678337 L11.9533477,21.678337 L16.0030254,32.9842621 Z M32.355832,25.6944714 C32.355832,25.7082709 32.355832,25.7192952 32.3354941,25.7313987 C32.3112715,25.7455837 32.2967988,25.737489 32.2852207,25.7309361 C26.4935684,22.4529626 20.2143398,20.4851762 13.609248,19.874989 L13.609248,7.84547357 C20.214873,7.23436123 26.4941016,5.2664207 32.2849922,1.98875551 C32.296875,1.98220264 32.3115762,1.97410793 32.3354941,1.98829295 C32.355832,2.00039648 32.355832,2.01126652 32.355832,2.02506608 L32.355832,25.6944714 Z M34.2400957,17.4131167 L34.2400957,10.3063436 C35.8780195,10.6389207 37.1157363,12.1056057 37.1157363,13.8596916 C37.1157363,15.6138546 35.8779434,17.0806167 34.2400957,17.4131167 Z" id="Shape"></path>
                    </g>
                </g>
            </g>
        </g>
    </g>
</svg>