<?xml version="1.0" encoding="UTF-8"?>
<svg width="314px" height="291px" viewBox="0 0 314 291" version="1.1" xmlns="http://www.w3.org/2000/svg" xmlns:xlink="http://www.w3.org/1999/xlink">
    <!-- Generator: Sketch 53.2 (72643) - https://sketchapp.com -->
    <title>quote</title>
    <desc>Created with Sketch.</desc>
    <g id="Designs" stroke="none" stroke-width="1" fill="none" fill-rule="evenodd" fill-opacity="0.15">
        <g id="Case-Study" transform="translate(-107.000000, -2749.000000)" fill="#000000">
            <g id="Group-4" transform="translate(77.000000, 2723.000000)">
                <g id="quote">
                    <path d="M179.789845,33.5266251 L118.977345,202.075012 C143.798773,209.678699 156.209488,227.420634 156.209488,250.231694 C156.209488,283.181003 131.388059,308.526625 99.120202,308.526625 C65.6112734,308.526625 40.7898448,283.181003 40.7898448,250.231694 C40.7898448,237.558883 40.7898448,229.955196 58.1648448,193.204044 L125.182702,33.5266251 L179.789845,33.5266251 Z M326.30135,34.1421549 L265.48885,202.690542 C290.310278,210.294229 302.720993,228.036164 302.720993,250.847224 C302.720993,283.796533 277.899564,309.142155 245.631707,309.142155 C212.122778,309.142155 187.30135,283.796533 187.30135,250.847224 C187.30135,238.174413 187.30135,230.570726 204.67635,193.819574 L271.694207,34.1421549 L326.30135,34.1421549 Z" transform="translate(183.545597, 171.334390) rotate(-352.000000) translate(-183.545597, -171.334390) "></path>
                </g>
            </g>
        </g>
    </g>
</svg>