<?xml version="1.0" encoding="UTF-8"?>
<svg width="135px" height="95px" viewBox="0 0 135 95" version="1.1" xmlns="http://www.w3.org/2000/svg" xmlns:xlink="http://www.w3.org/1999/xlink">
    <!-- Generator: Sketch 54.1 (76490) - https://sketchapp.com -->
    <title>right-quote</title>
    <desc>Created with Sketch.</desc>
    <g id="Designs" stroke="none" stroke-width="1" fill="none" fill-rule="evenodd">
        <g id="Case-Study" transform="translate(-688.000000, -2729.000000)" fill="#9CE9CF" fill-rule="nonzero">
            <g id="Group-4" transform="translate(77.000000, 2723.000000)">
                <g id="“”">
                    <g id="right-quote" transform="translate(611.000000, 6.000000)">
                        <path d="M29.8979328,-4.54747351e-13 C13.4112314,-4.54747351e-13 0,13.3871898 0,29.8445446 C0,45.7206734 12.4813654,58.7421737 28.1637558,59.6417729 C28.4352997,62.5681079 28.2315891,70.5339315 20.5847303,81.6149139 C20.0066715,82.4508043 20.1115815,83.5781411 20.8295317,84.2947965 C23.9587094,87.4183701 25.8925968,89.3855923 27.2461069,90.7614911 C29.0175716,92.5604812 29.8260975,93.3818604 31.0089698,94.4538951 C31.4100725,94.8172645 31.9160854,95 32.4244266,95 C32.9179994,95 33.4096857,94.8275725 33.8067884,94.4845945 C47.1316471,82.9106995 61.9336763,58.996832 59.7920763,29.6925085 C58.5371541,12.4877991 45.9652069,-4.54747351e-13 29.8979328,-4.54747351e-13 Z M32.4448506,90.024228 C31.8710046,89.459617 31.2166844,88.7942689 30.2518471,87.8145484 C29.0792973,86.6216017 27.4704624,84.9868409 25.0305642,82.5431187 C34.3109047,68.2687332 32.5579756,58.1016448 31.7907413,56.6435231 C31.4265044,55.9514787 30.6797043,55.4852785 29.8979328,55.4852785 C15.7358982,55.4852785 4.21326143,43.9832944 4.21326143,29.8445446 C4.21326143,15.7076881 15.7358992,4.20570793 29.8979328,4.20570793 C43.6940479,4.20570793 54.4987432,15.0526518 55.591046,29.9963724 C57.9980683,62.9562964 38.3739625,84.3564116 32.4448506,90.024228 Z" id="Shape"></path>
                        <path d="M134.792477,29.6925083 L134.792477,29.6904065 C133.533428,12.4877991 120.960379,-4.54747351e-13 104.89834,-4.54747351e-13 C88.4124768,-4.54747351e-13 75,13.3871898 75,29.8445446 C75,45.7206734 87.482664,58.7421737 103.166168,59.6417729 C103.437708,62.5660061 103.231891,70.5276183 95.5836179,81.6149139 C95.0055977,82.4508045 95.1105031,83.5781413 95.8283998,84.2947965 C98.9449615,87.4059685 100.874514,89.3691879 102.228143,90.742985 C104.0075,92.554176 104.820186,93.3797506 106.0091,94.4557883 C106.410175,94.8172645 106.918261,95 107.424451,95 C107.918225,95 108.40987,94.8275725 108.806735,94.4824927 C122.130763,82.9085897 136.931832,58.994939 134.792477,29.6925083 Z M107.444885,90.024228 C106.866865,89.4554056 106.206688,88.7860707 105.233483,87.7962588 C104.061009,86.6049887 102.458596,84.9746479 100.028962,82.5431187 C109.308713,68.2666316 107.558212,58.1016448 106.792921,56.6435231 C106.428713,55.9535803 105.680064,55.4852785 104.89834,55.4852785 C90.7348833,55.4852785 79.2129936,43.9832944 79.2129936,29.8445446 C79.2129936,15.7076881 90.7348833,4.20570793 104.89834,4.20570793 C118.691256,4.20570793 129.497379,15.0526518 130.591706,29.9984739 L130.591706,29.9963721 C132.996478,62.9520848 113.373618,84.3564116 107.444885,90.024228 Z" id="Shape"></path>
                    </g>
                </g>
            </g>
        </g>
    </g>
</svg>