<?xml version="1.0" encoding="UTF-8"?>
<svg width="100px" height="100px" viewBox="0 0 100 100" version="1.1" xmlns="http://www.w3.org/2000/svg" xmlns:xlink="http://www.w3.org/1999/xlink">
    <!-- Generator: Sketch 53.2 (72643) - https://sketchapp.com -->
    <title>social-media</title>
    <desc>Created with Sketch.</desc>
    <g id="Symbols" stroke="none" stroke-width="1" fill="none" fill-rule="evenodd">
        <g id="Services-on-Offer" transform="translate(-584.000000, -342.000000)">
            <g id="Work-With">
                <g id="Group-3" transform="translate(534.000000, 66.000000)">
                    <g id="Group-16" transform="translate(48.000000, 152.000000)">
                        <g id="Group-18" transform="translate(2.000000, 124.000000)">
                            <g id="social-media">
                                <g id="Icon-Circle">
                                    <path d="M98.235437,62.933012 C98.6861359,61.2886164 99.0529455,59.6147101 99.334221,57.9227696 L11.7177097,81.5804258 C12.8181386,82.9018444 13.9810732,84.1609629 15.2032237,85.3528628 L98.235437,62.933012 Z M99.8715469,53.32496 C99.9851094,51.763107 100.024609,50.1881977 99.9851094,48.6018642 L6.39147803,73.7449239 C7.16501992,75.1337818 7.99945766,76.4720467 8.89314542,77.7629827 L99.8715469,53.32496 Z M94.061837,73.2914669 C94.9914074,71.5494073 95.8206172,69.7515755 96.5379494,67.9094541 L18.9081225,88.8748627 C20.4596003,90.1051308 22.0851146,91.2402581 23.7715035,92.276964 L94.061837,73.2914669 Z M99.6005326,44.0831635 C99.429541,42.5728461 99.1812744,41.0608817 98.8672417,39.5472703 L2.79627164,65.6212448 C3.28787247,67.0854456 3.83537441,68.516706 4.45028649,69.9067909 L99.6005326,44.0831635 Z M77.8961385,90.8122503 L46.7376831,99.4864863 C52.0780571,99.853098 57.5657291,99.345223 63.0239416,97.8266431 C68.4788808,96.309745 73.4657393,93.8981796 77.8961385,90.8122503 Z M86.0136267,84.4032937 C87.8636731,82.5009262 89.5602366,80.4567877 91.0785619,78.2956059 L29.2942743,95.0163286 C31.6988395,96.1175258 34.1925238,97.0225516 36.7538726,97.7363515 L86.0136267,84.4032937 Z M0.0270367147,48.1490607 C-0.0239219724,49.7115425 -0.00419602903,51.2839031 0.0977213452,52.8628495 L94.4074567,27.2720635 C93.6973228,25.8577621 92.9230795,24.4912079 92.0945899,23.1691079 L0.0270367147,48.1490607 Z M35.9818851,2.01640476 C29.1733499,3.99754748 23.1017618,7.30764533 17.976032,11.5845539 L58.322237,0.697281614 C51.729193,-0.418647412 44.8137347,-0.223646598 37.9311758,1.4887555 L35.9818851,2.01640476 Z M96.3730564,31.2916112 L0.532623169,57.1732586 C0.760057348,58.6647879 1.0583587,60.1596025 1.42917529,61.6511318 L97.8695073,35.610147 C97.4327678,34.1334016 96.9334014,32.6944372 96.3730564,31.2916112 Z M11.7301802,17.3991293 C10.1615473,19.2612803 8.73761011,21.2372387 7.45672437,23.3022636 L73.10253,5.46090999 C70.9616914,4.3261359 68.7369951,3.34475424 66.446528,2.52996005 L11.7301802,17.3991293 Z M4.79685742,28.2896481 C3.98784807,30.0024005 3.2727563,31.7559716 2.66311585,33.5552597 L82.9560586,12.0013562 C81.5143413,10.7539369 80.0017739,9.59631874 78.4315378,8.52197071 L4.79685742,28.2896481 Z M1.2665689,38.5864844 C0.893073556,40.2153167 0.606781972,41.8704206 0.399467377,43.5419441 L89.6138482,19.419791 C88.5887927,18.081587 87.5061498,16.797568 86.3593381,15.5792277 L1.2665689,38.5864844 Z" id="Fill-36" fill="#E8E8E9" transform="translate(50.000000, 49.800266) rotate(-360.000000) translate(-50.000000, -49.800266) "></path>
                                    <circle id="Oval" stroke="#EAEAEA" fill="#FFFFFF" cx="50" cy="50" r="40"></circle>
                                </g>
                                <g id="like" transform="translate(28.000000, 32.000000)" fill-rule="nonzero">
                                    <circle id="Oval" fill="#000000" cx="9.69491525" cy="29.8305085" r="1.49152542"></circle>
                                    <path d="M43.1077986,21.7905156 C43.1077986,21.0594795 42.8814397,20.3805436 42.4958389,19.81922 C43.4038527,19.1886014 44,18.1386881 44,16.9516464 C44,15.0277224 42.4354249,13.4623956 40.5124052,13.4623956 L31.3433216,13.4623956 L31.9240861,12.159719 C32.7731469,10.2548812 33.2059273,8.23139941 33.2103961,6.14575849 C33.2103961,6.14575849 33.2156383,3.60032914 33.2156383,3.58605748 C33.2156383,1.60874368 31.6076648,0 29.6311062,0 C28.1619216,0 26.8568772,0.880458742 26.3063627,2.24323108 C26.2821284,2.30332684 25.4479347,4.76192255 25.4479347,4.76192255 C24.6957252,6.94815293 23.3611184,8.88772419 21.588661,10.3712899 L17.3354505,13.9308674 L14.8766116,13.9308674 L14.8766116,12.8079622 C14.8766116,11.6283143 13.9172931,10.6685016 12.7380611,10.6685016 L2.13855051,10.6685016 C0.959318439,10.6685016 0,11.6282283 0,12.8079622 L0,33.6571496 C0,34.8367975 0.959318439,35.7966102 2.13855051,35.7966102 L12.7378892,35.7966102 C13.9170353,35.7966102 14.8764397,34.8368835 14.8764397,33.6571496 L14.8764397,31.982378 L16.2188668,31.982378 L17.5516688,32.6269243 C20.7045377,34.1515855 24.2219527,34.9575049 27.723813,34.9575049 L32.5981785,34.9575049 L34.0850662,34.9575049 L37.8357152,34.9575049 C39.7588208,34.9575049 41.3234818,33.392264 41.3234818,31.468426 C41.3234818,30.7373899 41.0971229,30.0584539 40.711522,29.4971303 C41.6195359,28.8665118 42.2156832,27.8165985 42.2156832,26.6295568 C42.2156832,25.8985207 41.9893242,25.2195848 41.6037234,24.6582611 C42.5117373,24.0276426 43.1077986,22.9776433 43.1077986,21.7905156 Z M12.7378892,33.6571496 L2.13855051,33.6571496 L2.13855051,12.8078763 L12.7378892,12.8078763 L12.7392642,33.6571496 C12.7392642,33.6571496 12.7388345,33.6571496 12.7378892,33.6571496 Z M40.5124052,18.3015227 L38.9907988,18.3015227 C38.4002375,18.3015227 37.9215666,18.7803973 37.9215666,19.37121 C37.9215666,19.9620227 38.4002375,20.4408973 38.9907988,20.4408973 L39.6202039,20.4408973 C40.3641634,20.4408973 40.96942,21.0463255 40.96942,21.7906876 C40.96942,22.5350496 40.3642493,23.1404779 39.6202039,23.1404779 L38.0987693,23.1404779 C37.508208,23.1404779 37.0295371,23.6193525 37.0295371,24.2101652 C37.0295371,24.8009778 37.508208,25.2798525 38.0987693,25.2798525 L38.7281744,25.2798525 C39.4720479,25.2798525 40.0773905,25.8852807 40.0773905,26.6296427 C40.0773905,27.3738328 39.4722198,27.979347 38.7281744,27.979347 L37.2067398,27.979347 C36.6161785,27.979347 36.1375075,28.4582217 36.1375075,29.0490344 C36.1375075,29.639847 36.6161785,30.1187217 37.2067398,30.1187217 L37.8361449,30.1187217 C38.5801043,30.1187217 39.185361,30.7243218 39.185361,31.4685119 C39.1851891,32.2125301 38.5799325,32.8179583 37.835973,32.8179583 L34.0853241,32.8179583 L32.5984363,32.8179583 L27.7240709,32.8179583 C24.5425849,32.8179583 21.3470052,32.0858046 18.482628,30.700679 L16.9293107,29.949525 C16.7842485,29.8793703 16.6250925,29.8428314 16.46396,29.8428314 L14.8766116,29.8428314 L14.8766116,16.070156 L17.7237154,16.070156 C17.9745665,16.070156 18.2174254,15.9819468 18.4097531,15.8209177 L22.9607364,12.0121018 C25.0318261,10.2788679 26.5910731,8.01250985 27.4699542,5.45813922 C27.4699542,5.45813922 28.3207337,2.98011341 28.3257181,2.96326252 C28.5654833,2.46014324 29.0682167,2.13946058 29.6311921,2.13946058 C30.4285187,2.13946058 31.0771737,2.7883916 31.0771737,3.58605748 C31.0771737,3.60024317 31.0719315,6.14128785 31.0719315,6.14128785 C31.0681503,7.92644998 30.6977604,9.65813633 29.9709883,11.2884595 L28.7254986,14.0827833 C28.6163582,14.3277229 28.6074207,14.5915768 28.6799518,14.8294666 C28.6860533,14.8505302 28.916967,15.6020281 29.7065592,15.6020281 L40.5125771,15.6020281 C41.2564507,15.6020281 41.8617073,16.2074563 41.8617073,16.9518184 C41.8614495,17.6960085 41.2562788,18.3015227 40.5124052,18.3015227 Z" id="Shape" fill="#3A405A"></path>
                                </g>
                            </g>
                        </g>
                    </g>
                </g>
            </g>
        </g>
    </g>
</svg>