<?xml version="1.0" encoding="UTF-8"?>
<svg width="22px" height="22px" viewBox="0 0 22 22" version="1.1" xmlns="http://www.w3.org/2000/svg" xmlns:xlink="http://www.w3.org/1999/xlink">
    <!-- Generator: Sketch 53.2 (72643) - https://sketchapp.com -->
    <title>star</title>
    <desc>Created with Sketch.</desc>
    <g id="Symbols" stroke="none" stroke-width="1" fill="none" fill-rule="evenodd">
        <g id="Services-on-Offer" transform="translate(-194.000000, -289.000000)" fill="#FFFFFF">
            <g id="Work-With">
                <g id="Group-4" transform="translate(78.000000, 105.000000)">
                    <g id="Group-13" transform="translate(0.000000, 64.000000)">
                        <g id="Primary-Button" transform="translate(87.000000, 106.000000)">
                            <g id="Group" transform="translate(29.000000, 14.000000)">
                                <g id="star">
                                    <path d="M20.5711481,8.66421189 C20.9601225,8.26856918 21.0974446,7.68791086 20.9296205,7.14884384 C20.7617544,6.60977683 20.3235655,6.22429115 19.7860247,6.14281599 L15.0856898,5.43011624 C14.9934285,5.41615032 14.91367,5.35568971 14.8723853,5.26839176 L12.7703458,0.824033088 C12.5299797,0.315743631 12.0432057,0 11.5000009,0 C10.9567961,0 10.4700221,0.315743631 10.229656,0.824033088 L8.12761653,5.26843554 C8.08628983,5.35568971 8.00657336,5.41615032 7.91427007,5.43016002 L3.21401904,6.14281599 C2.67647828,6.22429115 2.23833137,6.60977683 2.0704233,7.14884384 C1.90251524,7.68791086 2.03987931,8.26856918 2.42889569,8.66421189 L5.83006192,12.1236886 C5.89681398,12.1916356 5.92731602,12.2894846 5.91154055,12.3854073 L5.10862785,17.2702397 C5.01682804,17.8289203 5.23273381,18.3828727 5.67218135,18.7160409 C6.1116289,19.0492966 6.68340578,19.0923327 7.16413807,18.8286438 L11.368175,16.5223406 C11.4507445,16.477028 11.5492993,16.477028 11.6319107,16.5223406 L15.8359896,18.8286438 C16.0450985,18.9433482 16.2713674,19.0000438 16.4965455,19 C16.7889791,19 17.0795666,18.9043838 17.3278205,18.7159971 C17.767268,18.3827851 17.9832157,17.828789 17.891374,17.270196 L17.0884613,12.3853635 C17.0727278,12.2894409 17.1031878,12.1915919 17.1699399,12.1236448 L20.5711481,8.66421189 Z M15.9715496,12.585352 L16.7744623,17.470272 C16.8013142,17.6337477 16.7046055,17.726956 16.6617684,17.7593972 C16.6188893,17.7917946 16.5040137,17.859085 16.363377,17.7818565 L12.1592981,15.4755533 C11.9529163,15.3623812 11.7265216,15.3057294 11.5000848,15.3057294 C11.2736481,15.3057294 11.0472113,15.3623812 10.8408716,15.4755095 L6.63683458,17.7817689 C6.49611403,17.8589536 6.38128035,17.7917508 6.33844324,17.7593096 C6.29560612,17.7268684 6.1988555,17.6336601 6.22574932,17.4701844 L7.02866202,12.585352 C7.10749742,12.1057387 6.95523895,11.616625 6.62122693,11.2769335 L3.2200607,7.81745681 C3.10623397,7.7016141 3.13199498,7.56690207 3.14839979,7.51436569 C3.16472069,7.46178554 3.21980897,7.33696786 3.37710216,7.31315137 L8.07731124,6.60045162 C8.5387857,6.53049068 8.93757784,6.22823138 9.14400155,5.79178542 L11.246041,1.34738297 C11.3164013,1.19866124 11.4471363,1.18259387 11.5001268,1.18259387 C11.5530333,1.18259387 11.6837684,1.19861746 11.7541706,1.34738297 L11.7541706,1.34742675 L13.8562101,5.7918292 C14.0625918,6.22827516 14.461342,6.53053446 14.9228165,6.6004954 L19.6231095,7.31319515 C19.7804026,7.33701164 19.835449,7.46182932 19.8518118,7.51440947 C19.8681747,7.56698963 19.8939776,7.70174544 19.7801089,7.81750059 L16.3789427,11.2769773 C16.0449727,11.616625 15.8927142,12.1057387 15.9715496,12.585352 Z" id="Shape" fill-rule="nonzero"></path>
                                    <path d="M17.8653391,1.1103872 C17.7193679,0.922816446 17.5151388,0.980063178 17.4091187,1.23822968 L17.0624008,2.08246923 C16.9563806,2.34063573 16.9887139,2.70204317 17.1346609,2.88961392 C17.1926769,2.96410313 17.2598343,3 17.3263871,3 C17.4274013,3 17.5269887,2.91738158 17.5908813,2.76181423 L17.9375992,1.91757468 C18.0436194,1.65936539 18.0112861,1.29795796 17.8653391,1.1103872 Z" id="Path"></path>
                                    <path d="M4.93758754,2.08241787 L4.59087143,1.23817044 C4.48487599,0.980087097 4.28062376,0.92283983 4.1346533,1.11032677 C3.98873122,1.29789928 3.95637395,1.65931009 4.06239358,1.917479 L4.40910968,2.76172644 C4.47302617,2.9174236 4.57261303,3 4.6736509,3 C4.74022755,3 4.80740878,2.9641028 4.86535199,2.88957011 C5.01127408,2.70204038 5.04363135,2.34062958 4.93758754,2.08241787 Z" id="Path"></path>
                                    <path d="M1.9735264,13.2701385 C1.88172391,13.064893 1.57827786,12.9525332 1.29570143,13.0192315 L0.371821905,13.2373537 C0.0892454826,13.3040519 -0.0653252143,13.5245758 0.0264772738,13.7298213 C0.10031754,13.8950189 0.311204383,14 0.537942589,14 C0.593024082,14 0.649061436,13.9937787 0.704302239,13.9807284 L1.62818177,13.7626062 C1.91071836,13.6959079 2.06532889,13.4754419 1.9735264,13.2701385 Z" id="Path"></path>
                                    <path d="M11.5,20 C11.2238635,20 11,20.2352735 11,20.5254844 L11,21.4745156 C11,21.7647265 11.2238635,22 11.5,22 C11.7761365,22 12,21.7647265 12,21.4745156 L12,20.5254844 C12,20.2352346 11.7761736,20 11.5,20 Z" id="Path"></path>
                                    <path d="M21.6281818,13.2373457 L20.7043022,13.0192129 C20.4218453,12.9525693 20.1182798,13.0648477 20.0264773,13.2701611 C19.9346748,13.4754744 20.0892455,13.6959511 20.3718219,13.7626526 L21.2957014,13.9807853 C21.3509422,13.9938073 21.4069398,14 21.4620213,14 C21.6887993,14 21.8996861,13.8949849 21.9735264,13.7298082 C22.0653289,13.5245239 21.9107184,13.3040472 21.6281818,13.2373457 Z" id="Path"></path>
                                </g>
                            </g>
                        </g>
                    </g>
                </g>
            </g>
        </g>
    </g>
</svg>