<?xml version="1.0" encoding="UTF-8"?>
<svg width="45px" height="35px" viewBox="0 0 45 35" version="1.1" xmlns="http://www.w3.org/2000/svg" xmlns:xlink="http://www.w3.org/1999/xlink">
    <!-- Generator: Sketch 54.1 (76490) - https://sketchapp.com -->
    <title>strat-white</title>
    <desc>Created with Sketch.</desc>
    <g id="Symbols" stroke="none" stroke-width="1" fill="none" fill-rule="evenodd">
        <g id="Artboard" transform="translate(-525.000000, -49.000000)" fill="#FFFFFF" fill-rule="nonzero">
            <path d="M567.607582,60.5544296 L567.607582,54.0363727 C567.607582,52.7745534 566.580713,51.746645 565.317681,51.7451722 L536.45455,51.7307044 C536.229043,51.4027094 535.971221,51.0931673 535.681258,50.8071896 C534.476357,49.6188356 532.881345,48.9756673 531.186444,49.0007044 C527.795429,49.0476598 525.020293,51.8454074 525.000107,55.2371153 C524.994216,56.2422391 525.231765,57.243291 525.687112,58.1324123 C525.696122,58.1500856 527.188387,60.6522391 527.188387,60.6522391 L527.188387,81.6477341 C527.188387,82.910593 528.215862,83.9380683 529.478288,83.9380683 L565.315429,83.9574742 C566.579327,83.9574742 567.607582,82.9295658 567.607582,81.6661871 L567.607582,69.5388603 C567.607582,69.5388603 568.660441,67.7731796 568.669451,67.7554197 C569.118906,66.8779074 569.356543,65.8898504 569.356543,64.8980683 C569.356456,63.2633777 568.735726,61.7284024 567.607582,60.5544296 Z M561.295627,53.5894296 L556.838498,58.0465584 L552.376864,53.5849247 L561.295627,53.5894296 Z M555.663399,59.2215707 L547.895392,66.9895782 L545.055194,64.1493801 C545.05502,64.1492069 545.054934,64.1491202 545.05476,64.148947 C545.054587,64.1487737 545.054501,64.1486871 545.054327,64.1485138 L542.923832,62.0180188 L550.69184,54.250098 L555.663399,59.2215707 Z M540.194439,70.184541 L544.467384,65.9115955 L549.9571,71.4013108 L545.684154,75.6742564 L540.194439,70.184541 Z M541.235949,73.5759024 L536.442768,78.3689965 L532.602124,74.5282663 L537.395218,69.7351722 L541.235949,73.5759024 Z M536.862941,58.1324123 C537.312397,57.2548999 537.550033,56.266843 537.550033,55.2750608 C537.550033,54.6924495 537.469637,54.1230064 537.317335,53.5773876 L549.008807,53.5832787 L541.748993,60.843093 L539.149377,58.2434767 C538.824847,57.9191202 538.298894,57.9191202 537.974364,58.2434767 C537.649921,58.5679197 537.649921,59.094046 537.974364,59.4185757 L543.292458,64.7366697 L539.019513,69.0096153 L535.558845,65.548947 C535.234402,65.2245905 534.708362,65.2245905 534.383832,65.548947 C534.059389,65.8734767 534.059389,66.3995163 534.383832,66.724046 L536.220119,68.5603331 L529.034723,75.7456425 L529.034723,63.7466202 L529.690367,64.8454816 C530.026592,65.408947 530.618993,65.7453455 531.27507,65.7453455 C531.931147,65.7453455 532.523548,65.408947 532.859773,64.8455683 C532.859686,64.8454816 536.853931,58.1500856 536.862941,58.1324123 Z M527.317471,57.265296 C527.000652,56.6371153 526.842112,55.9586871 526.846357,55.2481178 C526.860565,52.8544296 528.818919,50.8799618 531.211827,50.8467811 C532.408845,50.8320534 533.534303,51.2830683 534.384699,52.1217688 C534.67752,52.4106054 534.923906,52.7333158 535.122644,53.0803702 C535.131221,53.0969173 535.140751,53.1127712 535.150367,53.1286252 C535.511196,53.7776846 535.703783,54.5109519 535.703783,55.2751475 C535.703783,55.9761004 535.545243,56.6455188 535.232582,57.2654693 L531.276023,63.8995287 L527.317471,57.265296 Z M529.478807,82.0918183 C529.233981,82.0918183 529.03481,81.8927341 529.03481,81.6478207 L529.03481,78.0956673 L531.427112,75.7033653 L537.82007,82.0964098 L529.478807,82.0918183 Z M540.171307,82.0975361 L537.617694,79.5439222 L542.410874,74.7508282 L549.762694,82.1027341 L540.171307,82.0975361 Z M546.859166,76.8491821 L551.132112,72.5762366 L554.234983,75.6791079 L549.962038,79.9520534 L546.859166,76.8491821 Z M552.113931,82.1040336 L551.136963,81.1270658 L555.409909,76.8541202 L560.664501,82.1087118 L552.113931,82.1040336 Z M565.315949,82.1111376 L563.015825,82.1099247 L556.585008,75.6791079 L558.520491,73.7436252 C558.84502,73.4190955 558.84502,72.8930559 558.520491,72.5685262 C558.196048,72.2441697 557.670008,72.2441697 557.345478,72.5685262 L555.409909,74.5040955 L551.720008,70.8141945 C551.719835,70.8140212 551.719748,70.8139346 551.719575,70.8137613 C551.719402,70.8135881 551.719315,70.8135014 551.719142,70.8133282 L549.070491,68.1645905 L552.219971,65.0151103 L553.851976,66.6471153 C554.03226,66.8273133 554.26851,66.917499 554.50476,66.917499 C554.74101,66.917499 554.977347,66.8273133 555.157545,66.6471153 C555.518028,66.2866326 555.518028,65.7021153 555.157545,65.3414594 L553.52554,63.7094544 L563.644352,53.5906425 L565.316122,53.5915089 C565.561468,53.5917688 565.761159,53.7913727 565.761159,54.0363727 L565.761159,59.2206178 C564.908077,58.816645 563.967322,58.6091574 562.992694,58.6238851 C559.601679,58.6709272 556.826629,61.4685014 556.80653,64.860296 C556.800639,65.8654197 557.038189,66.8664717 557.493535,67.755593 C557.502545,67.7731796 561.49679,74.4686623 561.49679,74.4686623 C561.833015,75.0321277 562.425416,75.3685262 563.08158,75.3685262 C563.737656,75.3685262 564.330057,75.0322143 564.666196,74.468749 L565.761246,72.6334148 L565.761246,81.6662737 L565.761505,81.6662737 C565.761246,81.9115336 565.561208,82.1111376 565.315949,82.1111376 Z M567.039005,66.88839 L565.873869,68.8419792 C565.873523,68.8427589 565.872916,68.8434519 565.87257,68.8442316 L563.082359,73.5225361 L559.123981,66.8883034 C558.807161,66.2601227 558.648622,65.5816945 558.652867,64.8711252 C558.666988,62.4774371 560.625429,60.5030559 563.018424,60.4698752 C564.213102,60.4535881 565.340812,60.9060757 566.191122,61.7447762 C567.041691,62.5836499 567.510206,63.7035633 567.510206,64.8981549 C567.510206,65.5991079 567.351666,66.2685262 567.039005,66.88839 Z" id="strat-white"></path>
        </g>
    </g>
</svg>