<?xml version="1.0" encoding="UTF-8"?>
<svg width="89px" height="89px" viewBox="0 0 89 89" version="1.1" xmlns="http://www.w3.org/2000/svg" xmlns:xlink="http://www.w3.org/1999/xlink">
    <!-- Generator: Sketch 54.1 (76490) - https://sketchapp.com -->
    <title>toggle</title>
    <desc>Created with Sketch.</desc>
    <g id="Symbols" stroke="none" stroke-width="1" fill="none" fill-rule="evenodd">
        <g id="Artboard" transform="translate(-140.000000, -30.000000)" fill="#3A405A">
            <g id="toggle" transform="translate(184.500000, 74.500000) rotate(-315.000000) translate(-184.500000, -74.500000) translate(140.000000, 30.000000)">
                <path d="M44.4998491,0 C19.962614,0 0,19.9626817 0,44.5 C0,69.0373183 19.962614,89 44.4998491,89 C56.056993,89 67.0083129,84.5901771 75.3371116,76.5828274 C76.0582446,75.8897647 76.0808837,74.7430115 75.3875215,74.022178 C74.694763,73.3013444 73.5483155,73.2784033 72.8268807,73.9717679 C65.1763515,81.3271074 55.1164111,85.3777209 44.5001509,85.3777209 C21.9599923,85.3780228 3.62226677,67.0402351 3.62226677,44.5 C3.62226677,21.9597649 21.9599923,3.62227905 44.4998491,3.62227905 C67.0397059,3.62227905 85.3774314,21.9600667 85.3774314,44.5 C85.3774314,49.5838686 84.4561682,54.5436742 82.6392996,59.2411665 C82.2785822,60.1742052 82.7422323,61.222855 83.6752679,61.5838754 C84.6086053,61.9439903 85.6569496,61.4809423 86.0179689,60.5479036 C87.9966321,55.4317363 89,50.0324275 89,44.4996981 C89,19.9626817 69.037386,0 44.4998491,0 Z" id="Path"></path>
                <path d="M50.0986508,48.5293459 C49.3784737,47.8125678 48.2243673,47.8255496 47.5202955,48.5571639 C46.8159198,49.2890874 46.8283786,50.4633176 47.547644,51.1797866 L61.9013492,65.4708391 C62.2562719,65.8241282 62.7166382,66 63.1767007,66 C63.6498296,66 64.1226547,65.8136192 64.4797045,65.442712 C65.1840802,64.7107886 65.1716214,63.5365583 64.452356,62.8200894 L50.0986508,48.5293459 Z" id="Path" fill-rule="nonzero"></path>
                <path d="M37.9575657,40.4781363 C38.3053743,40.8259464 38.7615946,41 39.217815,41 C39.6740353,41 40.1299587,40.8259464 40.4780643,40.4781363 C41.1739786,39.782219 41.1739786,38.6538409 40.4780643,37.9579237 L27.0421373,24.521938 C26.3462231,23.8260207 25.2175529,23.8260207 24.5219357,24.521938 C23.8260214,25.2178553 23.8260214,26.3462333 24.5219357,27.0421506 L37.9575657,40.4781363 Z" id="Path" fill-rule="nonzero"></path>
                <path d="M64.4670097,23.5329913 C63.756356,22.8223362 62.6037805,22.8223362 61.8934301,23.5329913 L23.5329903,61.8935003 C22.8223366,62.6041553 22.8223366,63.7564295 23.5329903,64.4670846 C23.8881655,64.8222604 24.3540486,65 24.8199318,65 C25.2858149,65 25.7513947,64.8222604 26.1068732,64.4670846 L64.4670097,26.1068788 C65.1776634,25.3959205 65.1776634,24.2439496 64.4670097,23.5329913 Z" id="Path" fill-rule="nonzero"></path>
            </g>
        </g>
    </g>
</svg>