<?xml version="1.0" encoding="UTF-8"?>
<svg width="37px" height="35px" viewBox="0 0 37 35" version="1.1" xmlns="http://www.w3.org/2000/svg" xmlns:xlink="http://www.w3.org/1999/xlink">
    <!-- Generator: Sketch 54.1 (76490) - https://sketchapp.com -->
    <title>visual-white</title>
    <desc>Created with Sketch.</desc>
    <g id="Symbols" stroke="none" stroke-width="1" fill="none" fill-rule="evenodd">
        <g id="Artboard" transform="translate(-340.000000, -49.000000)" fill="#FFFFFF" fill-rule="nonzero">
            <g id="visual-white" transform="translate(340.000000, 49.000000)">
                <path d="M36.2927766,0.54142418 C35.239334,-0.511875 33.1265676,0.0890778689 29.6436373,2.43321721 C26.6848463,4.42463115 23.1357889,7.44072746 19.6502766,10.9262398 C14.4829713,16.0934734 10.5543648,21.1668955 9.24631148,24.299252 C9.0310041,24.2212193 8.80773566,24.1588217 8.5773668,24.1132787 C7.22384221,23.845543 5.75377049,24.1878689 4.54390369,25.0518238 C2.8077459,26.2915984 2.34794057,28.0620389 2.28116803,28.3604713 C1.91567623,29.7254713 1.22349385,31.0278586 0.278637295,32.1279201 C-0.0252459016,32.4817213 0.00946721311,33.0136066 0.356813525,33.3250205 C1.57084016,34.4130328 3.12382172,34.9587602 4.7391291,34.9587602 C6.29591189,34.9587602 7.91064549,34.4517623 9.33481557,33.4347541 C10.0026127,32.9578791 10.5081762,32.430584 10.6060758,32.3262295 C11.8161578,31.0258504 12.3299693,29.3208197 12.0750717,27.7629611 C15.1483299,26.66125 20.506127,22.5860451 25.9080328,17.1841393 C29.3935451,13.698627 32.4097131,10.149498 34.4010553,7.19077869 C36.745123,3.70770492 37.3462193,1.59493852 36.2927766,0.54142418 Z M9.35188525,31.1568135 C9.30584016,31.2059426 8.88605533,31.648248 8.33846311,32.0391291 C6.3494877,33.4592111 3.91440574,33.6234529 2.14568648,32.5300615 C2.9739959,31.3944262 3.58957992,30.1142725 3.9432377,28.7823361 L3.9432377,28.7822643 C3.94718238,28.7673463 3.95076844,28.7522848 3.95392418,28.7370799 C3.95686475,28.7235246 4.25465164,27.3652664 5.54032787,26.4472336 C6.36727459,25.8566086 7.35322746,25.6190676 8.24501025,25.7953586 C8.9805123,25.940666 9.59882172,26.3605225 9.98604508,26.9773258 C10.7459324,28.1877664 10.4787705,29.9459426 9.35188525,31.1568135 Z M11.4909734,26.1541086 C11.4734016,26.1247029 11.2134119,25.596834 10.7290061,25.2045184 C11.1463525,24.08875 12.0448053,22.580666 13.2970594,20.8489549 L15.9833811,23.5352766 C14.0935963,24.8956148 12.5450615,25.782377 11.4909734,26.1541086 Z M17.3707582,22.4978996 L14.336875,19.4640164 C14.8611578,18.7891189 15.4284016,18.0900512 16.0329406,17.3749898 L19.4616496,20.8036988 C18.7359734,21.4165574 18.0371209,21.9820799 17.3707582,22.4978996 Z M32.7163217,6.61743852 C30.7851537,9.40854508 27.9365984,12.7306045 24.695584,15.9714754 C23.3348156,17.3322439 22.0155738,18.570082 20.7621004,19.6790369 L17.1576025,16.0745389 C18.3008402,14.7812602 19.5473566,13.4539857 20.8627971,12.1386885 C24.1037398,8.89767418 27.4257992,6.04919057 30.216834,4.11780738 C33.6534324,1.7398873 34.8392725,1.73608607 35.0670594,1.76721311 C35.0983299,1.99478484 35.0941701,3.18105533 32.7163217,6.61743852 Z" id="Shape"></path>
                <path d="M8.62491803,28.840502 C8.21015369,28.6122131 7.68881148,28.7633299 7.46045082,29.178166 C7.43735656,29.220123 7.40945697,29.2593545 7.37739754,29.2947848 C7.31327869,29.3614857 7.10256148,29.5651742 6.88366803,29.7215984 C6.55159836,29.9586373 6.19327869,30.1285451 5.81860656,30.2265881 C5.36052254,30.3464344 5.08640369,30.814918 5.20625,31.273002 C5.30709016,31.6582889 5.6545082,31.9134734 6.03498975,31.9134734 C6.10685451,31.9134734 6.17979508,31.9043648 6.25259221,31.8854303 C6.82987705,31.7343852 7.37746926,31.4759016 7.88016393,31.1170082 C8.20283811,30.8865676 8.63115779,30.4647029 8.63409836,30.4614754 C8.76154713,30.3232684 8.87214139,30.1696414 8.96279713,30.0048975 C9.19101434,29.5900615 9.0397541,29.0687193 8.62491803,28.840502 Z" id="Path"></path>
            </g>
        </g>
    </g>
</svg>