<?xml version="1.0" encoding="UTF-8"?>
<svg width="100px" height="100px" viewBox="0 0 100 100" version="1.1" xmlns="http://www.w3.org/2000/svg" xmlns:xlink="http://www.w3.org/1999/xlink">
    <!-- Generator: Sketch 53.2 (72643) - https://sketchapp.com -->
    <title>visual</title>
    <desc>Created with Sketch.</desc>
    <g id="Symbols" stroke="none" stroke-width="1" fill="none" fill-rule="evenodd">
        <g id="Services-on-Offer" transform="translate(-990.000000, -88.000000)">
            <g id="Work-With">
                <g id="visual" transform="translate(990.000000, 88.000000)">
                    <g id="Icon-Circle-Copy-3">
                        <path d="M98.235437,62.933012 C98.6861359,61.2886164 99.0529455,59.6147101 99.334221,57.9227696 L11.7177097,81.5804258 C12.8181386,82.9018444 13.9810732,84.1609629 15.2032237,85.3528628 L98.235437,62.933012 Z M99.8715469,53.32496 C99.9851094,51.763107 100.024609,50.1881977 99.9851094,48.6018642 L6.39147803,73.7449239 C7.16501992,75.1337818 7.99945766,76.4720467 8.89314542,77.7629827 L99.8715469,53.32496 Z M94.061837,73.2914669 C94.9914074,71.5494073 95.8206172,69.7515755 96.5379494,67.9094541 L18.9081225,88.8748627 C20.4596003,90.1051308 22.0851146,91.2402581 23.7715035,92.276964 L94.061837,73.2914669 Z M99.6005326,44.0831635 C99.429541,42.5728461 99.1812744,41.0608817 98.8672417,39.5472703 L2.79627164,65.6212448 C3.28787247,67.0854456 3.83537441,68.516706 4.45028649,69.9067909 L99.6005326,44.0831635 Z M77.8961385,90.8122503 L46.7376831,99.4864863 C52.0780571,99.853098 57.5657291,99.345223 63.0239416,97.8266431 C68.4788808,96.309745 73.4657393,93.8981796 77.8961385,90.8122503 Z M86.0136267,84.4032937 C87.8636731,82.5009262 89.5602366,80.4567877 91.0785619,78.2956059 L29.2942743,95.0163286 C31.6988395,96.1175258 34.1925238,97.0225516 36.7538726,97.7363515 L86.0136267,84.4032937 Z M0.0270367147,48.1490607 C-0.0239219724,49.7115425 -0.00419602903,51.2839031 0.0977213452,52.8628495 L94.4074567,27.2720635 C93.6973228,25.8577621 92.9230795,24.4912079 92.0945899,23.1691079 L0.0270367147,48.1490607 Z M35.9818851,2.01640476 C29.1733499,3.99754748 23.1017618,7.30764533 17.976032,11.5845539 L58.322237,0.697281614 C51.729193,-0.418647412 44.8137347,-0.223646598 37.9311758,1.4887555 L35.9818851,2.01640476 Z M96.3730564,31.2916112 L0.532623169,57.1732586 C0.760057348,58.6647879 1.0583587,60.1596025 1.42917529,61.6511318 L97.8695073,35.610147 C97.4327678,34.1334016 96.9334014,32.6944372 96.3730564,31.2916112 Z M11.7301802,17.3991293 C10.1615473,19.2612803 8.73761011,21.2372387 7.45672437,23.3022636 L73.10253,5.46090999 C70.9616914,4.3261359 68.7369951,3.34475424 66.446528,2.52996005 L11.7301802,17.3991293 Z M4.79685742,28.2896481 C3.98784807,30.0024005 3.2727563,31.7559716 2.66311585,33.5552597 L82.9560586,12.0013562 C81.5143413,10.7539369 80.0017739,9.59631874 78.4315378,8.52197071 L4.79685742,28.2896481 Z M1.2665689,38.5864844 C0.893073556,40.2153167 0.606781972,41.8704206 0.399467377,43.5419441 L89.6138482,19.419791 C88.5887927,18.081587 87.5061498,16.797568 86.3593381,15.5792277 L1.2665689,38.5864844 Z" id="Fill-36" fill="#E8E8E9" transform="translate(50.000000, 49.800266) rotate(-360.000000) translate(-50.000000, -49.800266) "></path>
                        <circle id="Oval" stroke="#EAEAEA" fill="#FFFFFF" cx="50" cy="50" r="40"></circle>
                    </g>
                    <g id="paint-brush" transform="translate(32.000000, 33.000000)" fill="#3A405A" fill-rule="nonzero">
                        <path d="M36.2927766,0.54142418 C35.239334,-0.511875 33.1265676,0.0890778689 29.6436373,2.43321721 C26.6848463,4.42463115 23.1357889,7.44072746 19.6502766,10.9262398 C14.4829713,16.0934734 10.5543648,21.1668955 9.24631148,24.299252 C9.0310041,24.2212193 8.80773566,24.1588217 8.5773668,24.1132787 C7.22384221,23.845543 5.75377049,24.1878689 4.54390369,25.0518238 C2.8077459,26.2915984 2.34794057,28.0620389 2.28116803,28.3604713 C1.91567623,29.7254713 1.22349385,31.0278586 0.278637295,32.1279201 C-0.0252459016,32.4817213 0.00946721311,33.0136066 0.356813525,33.3250205 C1.57084016,34.4130328 3.12382172,34.9587602 4.7391291,34.9587602 C6.29591189,34.9587602 7.91064549,34.4517623 9.33481557,33.4347541 C10.0026127,32.9578791 10.5081762,32.430584 10.6060758,32.3262295 C11.8161578,31.0258504 12.3299693,29.3208197 12.0750717,27.7629611 C15.1483299,26.66125 20.506127,22.5860451 25.9080328,17.1841393 C29.3935451,13.698627 32.4097131,10.149498 34.4010553,7.19077869 C36.745123,3.70770492 37.3462193,1.59493852 36.2927766,0.54142418 Z M9.35188525,31.1568135 C9.30584016,31.2059426 8.88605533,31.648248 8.33846311,32.0391291 C6.3494877,33.4592111 3.91440574,33.6234529 2.14568648,32.5300615 C2.9739959,31.3944262 3.58957992,30.1142725 3.9432377,28.7823361 L3.9432377,28.7822643 C3.94718238,28.7673463 3.95076844,28.7522848 3.95392418,28.7370799 C3.95686475,28.7235246 4.25465164,27.3652664 5.54032787,26.4472336 C6.36727459,25.8566086 7.35322746,25.6190676 8.24501025,25.7953586 C8.9805123,25.940666 9.59882172,26.3605225 9.98604508,26.9773258 C10.7459324,28.1877664 10.4787705,29.9459426 9.35188525,31.1568135 Z M11.4909734,26.1541086 C11.4734016,26.1247029 11.2134119,25.596834 10.7290061,25.2045184 C11.1463525,24.08875 12.0448053,22.580666 13.2970594,20.8489549 L15.9833811,23.5352766 C14.0935963,24.8956148 12.5450615,25.782377 11.4909734,26.1541086 Z M17.3707582,22.4978996 L14.336875,19.4640164 C14.8611578,18.7891189 15.4284016,18.0900512 16.0329406,17.3749898 L19.4616496,20.8036988 C18.7359734,21.4165574 18.0371209,21.9820799 17.3707582,22.4978996 Z M32.7163217,6.61743852 C30.7851537,9.40854508 27.9365984,12.7306045 24.695584,15.9714754 C23.3348156,17.3322439 22.0155738,18.570082 20.7621004,19.6790369 L17.1576025,16.0745389 C18.3008402,14.7812602 19.5473566,13.4539857 20.8627971,12.1386885 C24.1037398,8.89767418 27.4257992,6.04919057 30.216834,4.11780738 C33.6534324,1.7398873 34.8392725,1.73608607 35.0670594,1.76721311 C35.0983299,1.99478484 35.0941701,3.18105533 32.7163217,6.61743852 Z" id="Shape"></path>
                        <path d="M8.62491803,28.840502 C8.21015369,28.6122131 7.68881148,28.7633299 7.46045082,29.178166 C7.43735656,29.220123 7.40945697,29.2593545 7.37739754,29.2947848 C7.31327869,29.3614857 7.10256148,29.5651742 6.88366803,29.7215984 C6.55159836,29.9586373 6.19327869,30.1285451 5.81860656,30.2265881 C5.36052254,30.3464344 5.08640369,30.814918 5.20625,31.273002 C5.30709016,31.6582889 5.6545082,31.9134734 6.03498975,31.9134734 C6.10685451,31.9134734 6.17979508,31.9043648 6.25259221,31.8854303 C6.82987705,31.7343852 7.37746926,31.4759016 7.88016393,31.1170082 C8.20283811,30.8865676 8.63115779,30.4647029 8.63409836,30.4614754 C8.76154713,30.3232684 8.87214139,30.1696414 8.96279713,30.0048975 C9.19101434,29.5900615 9.0397541,29.0687193 8.62491803,28.840502 Z" id="Path"></path>
                    </g>
                </g>
            </g>
        </g>
    </g>
</svg>