<?xml version="1.0" encoding="UTF-8"?>
<svg width="100px" height="100px" viewBox="0 0 100 100" version="1.1" xmlns="http://www.w3.org/2000/svg" xmlns:xlink="http://www.w3.org/1999/xlink">
    <!-- Generator: Sketch 53.2 (72643) - https://sketchapp.com -->
    <title>Group 15</title>
    <desc>Created with Sketch.</desc>
    <g id="Symbols" stroke="none" stroke-width="1" fill="none" fill-rule="evenodd">
        <g id="Services-on-Offer" transform="translate(-582.000000, -92.000000)">
            <g id="Work-With">
                <g id="Group-3" transform="translate(534.000000, 66.000000)">
                    <g id="Group-17" transform="translate(48.000000, 26.000000)">
                        <g id="Group-15">
                            <g id="web-design">
                                <g id="Icon-Circle-Copy-5">
                                    <path d="M98.235437,62.933012 C98.6861359,61.2886164 99.0529455,59.6147101 99.334221,57.9227696 L11.7177097,81.5804258 C12.8181386,82.9018444 13.9810732,84.1609629 15.2032237,85.3528628 L98.235437,62.933012 Z M99.8715469,53.32496 C99.9851094,51.763107 100.024609,50.1881977 99.9851094,48.6018642 L6.39147803,73.7449239 C7.16501992,75.1337818 7.99945766,76.4720467 8.89314542,77.7629827 L99.8715469,53.32496 Z M94.061837,73.2914669 C94.9914074,71.5494073 95.8206172,69.7515755 96.5379494,67.9094541 L18.9081225,88.8748627 C20.4596003,90.1051308 22.0851146,91.2402581 23.7715035,92.276964 L94.061837,73.2914669 Z M99.6005326,44.0831635 C99.429541,42.5728461 99.1812744,41.0608817 98.8672417,39.5472703 L2.79627164,65.6212448 C3.28787247,67.0854456 3.83537441,68.516706 4.45028649,69.9067909 L99.6005326,44.0831635 Z M77.8961385,90.8122503 L46.7376831,99.4864863 C52.0780571,99.853098 57.5657291,99.345223 63.0239416,97.8266431 C68.4788808,96.309745 73.4657393,93.8981796 77.8961385,90.8122503 Z M86.0136267,84.4032937 C87.8636731,82.5009262 89.5602366,80.4567877 91.0785619,78.2956059 L29.2942743,95.0163286 C31.6988395,96.1175258 34.1925238,97.0225516 36.7538726,97.7363515 L86.0136267,84.4032937 Z M0.0270367147,48.1490607 C-0.0239219724,49.7115425 -0.00419602903,51.2839031 0.0977213452,52.8628495 L94.4074567,27.2720635 C93.6973228,25.8577621 92.9230795,24.4912079 92.0945899,23.1691079 L0.0270367147,48.1490607 Z M35.9818851,2.01640476 C29.1733499,3.99754748 23.1017618,7.30764533 17.976032,11.5845539 L58.322237,0.697281614 C51.729193,-0.418647412 44.8137347,-0.223646598 37.9311758,1.4887555 L35.9818851,2.01640476 Z M96.3730564,31.2916112 L0.532623169,57.1732586 C0.760057348,58.6647879 1.0583587,60.1596025 1.42917529,61.6511318 L97.8695073,35.610147 C97.4327678,34.1334016 96.9334014,32.6944372 96.3730564,31.2916112 Z M11.7301802,17.3991293 C10.1615473,19.2612803 8.73761011,21.2372387 7.45672437,23.3022636 L73.10253,5.46090999 C70.9616914,4.3261359 68.7369951,3.34475424 66.446528,2.52996005 L11.7301802,17.3991293 Z M4.79685742,28.2896481 C3.98784807,30.0024005 3.2727563,31.7559716 2.66311585,33.5552597 L82.9560586,12.0013562 C81.5143413,10.7539369 80.0017739,9.59631874 78.4315378,8.52197071 L4.79685742,28.2896481 Z M1.2665689,38.5864844 C0.893073556,40.2153167 0.606781972,41.8704206 0.399467377,43.5419441 L89.6138482,19.419791 C88.5887927,18.081587 87.5061498,16.797568 86.3593381,15.5792277 L1.2665689,38.5864844 Z" id="Fill-36" fill="#E8E8E9" transform="translate(50.000000, 49.800266) rotate(-360.000000) translate(-50.000000, -49.800266) "></path>
                                    <circle id="Oval" stroke="#EAEAEA" fill="#FFFFFF" cx="50" cy="50" r="40"></circle>
                                </g>
                                <g id="monitor" transform="translate(30.000000, 33.000000)" fill="#3A405A" fill-rule="nonzero">
                                    <path d="M36.7645961,0.0716048035 L2.36204148,0.0716048035 C1.05962882,0.0716048035 0,1.13123362 0,2.43364629 L0,26.18619 C0,27.4886026 1.05962882,28.5482314 2.36204148,28.5482314 L14.1504694,28.5482314 L14.1504694,30.2668996 C14.1504694,31.8424345 12.8686135,33.1242904 11.2930786,33.1242904 L8.69505459,33.1242904 C8.19695415,33.1242904 7.7930786,33.5280895 7.7930786,34.0262664 C7.7930786,34.5244432 8.19695415,34.9282424 8.69505459,34.9282424 L30.4314301,34.9282424 C30.9295306,34.9282424 31.3334061,34.5244432 31.3334061,34.0262664 C31.3334061,33.5280895 30.9295306,33.1242904 30.4314301,33.1242904 L27.8333297,33.1242904 C26.2577948,33.1242904 24.9759389,31.8424345 24.9759389,30.2668996 L24.9759389,28.5483079 L36.7643668,28.5483079 C38.0667795,28.5483079 39.1264847,27.488679 39.1264847,26.1862664 L39.1264847,2.43364629 C39.1266376,1.13123362 38.0670087,0.0716048035 36.7645961,0.0716048035 Z M14.9720524,33.1244432 C15.5869214,32.3345742 15.9545742,31.3432642 15.9545742,30.2670524 L15.9545742,28.5483843 L23.1721397,28.5483843 L23.1721397,30.2670524 C23.1721397,31.3432642 23.5397926,32.3346507 24.1546616,33.1244432 L14.9720524,33.1244432 Z M37.3226856,26.1862664 C37.3226856,26.4940066 37.0723362,26.7444323 36.7645197,26.7444323 L2.36204148,26.7444323 C2.05430131,26.7444323 1.80387555,26.494083 1.80387555,26.1862664 L1.80387555,21.4457533 L37.3226856,21.4457533 L37.3226856,26.1862664 Z M37.322762,19.6417249 L1.80395197,19.6417249 L1.80395197,2.43364629 C1.80395197,2.12590611 2.05430131,1.87548035 2.3621179,1.87548035 L36.7645197,1.87548035 C37.0722598,1.87548035 37.322762,2.12582969 37.322762,2.43364629 L37.322762,19.6417249 L37.322762,19.6417249 Z" id="Shape"></path>
                                    <circle id="Oval" cx="19.563548" cy="24.0953603" r="1"></circle>
                                    <path d="M21.1098908,6.28578603 C20.7575983,5.93356987 20.1866703,5.93356987 19.8342249,6.28578603 L13.4597926,12.6602183 C13.1075764,13.0124345 13.1075764,13.5835917 13.4597926,13.9358843 C13.6360153,14.1120306 13.8667249,14.2000655 14.0976638,14.2000655 C14.3286026,14.2000655 14.5593122,14.1120306 14.7354585,13.9358843 L21.1098908,7.56145197 C21.462107,7.20923581 21.462107,6.6380786 21.1098908,6.28578603 Z" id="Path"></path>
                                    <path d="M24.8880568,9.97981441 C24.535917,9.62759825 23.9649891,9.62759825 23.6124672,9.97973799 L21.0730568,12.5189956 C20.7208406,12.8712882 20.7208406,13.4424454 21.0730568,13.7946616 C21.2492031,13.9708079 21.4799891,14.0588428 21.7108515,14.0588428 C21.9416376,14.0588428 22.1725,13.9708079 22.3486463,13.7946616 L24.8880568,11.2554039 C25.2402729,10.9031878 25.2402729,10.3320306 24.8880568,9.97981441 Z" id="Path"></path>
                                </g>
                            </g>
                        </g>
                    </g>
                </g>
            </g>
        </g>
    </g>
</svg>