<?xml version="1.0" encoding="UTF-8"?>
<svg width="40px" height="35px" viewBox="0 0 40 35" version="1.1" xmlns="http://www.w3.org/2000/svg" xmlns:xlink="http://www.w3.org/1999/xlink">
    <!-- Generator: Sketch 54.1 (76490) - https://sketchapp.com -->
    <title>web-design-white</title>
    <desc>Created with Sketch.</desc>
    <g id="Symbols" stroke="none" stroke-width="1" fill="none" fill-rule="evenodd">
        <g id="Artboard" transform="translate(-60.000000, -49.000000)" fill="#FFFFFF" fill-rule="nonzero">
            <g id="web-design-white" transform="translate(60.000000, 49.000000)">
                <path d="M36.7645961,0.0716048035 L2.36204148,0.0716048035 C1.05962882,0.0716048035 0,1.13123362 0,2.43364629 L0,26.18619 C0,27.4886026 1.05962882,28.5482314 2.36204148,28.5482314 L14.1504694,28.5482314 L14.1504694,30.2668996 C14.1504694,31.8424345 12.8686135,33.1242904 11.2930786,33.1242904 L8.69505459,33.1242904 C8.19695415,33.1242904 7.7930786,33.5280895 7.7930786,34.0262664 C7.7930786,34.5244432 8.19695415,34.9282424 8.69505459,34.9282424 L30.4314301,34.9282424 C30.9295306,34.9282424 31.3334061,34.5244432 31.3334061,34.0262664 C31.3334061,33.5280895 30.9295306,33.1242904 30.4314301,33.1242904 L27.8333297,33.1242904 C26.2577948,33.1242904 24.9759389,31.8424345 24.9759389,30.2668996 L24.9759389,28.5483079 L36.7643668,28.5483079 C38.0667795,28.5483079 39.1264847,27.488679 39.1264847,26.1862664 L39.1264847,2.43364629 C39.1266376,1.13123362 38.0670087,0.0716048035 36.7645961,0.0716048035 Z M14.9720524,33.1244432 C15.5869214,32.3345742 15.9545742,31.3432642 15.9545742,30.2670524 L15.9545742,28.5483843 L23.1721397,28.5483843 L23.1721397,30.2670524 C23.1721397,31.3432642 23.5397926,32.3346507 24.1546616,33.1244432 L14.9720524,33.1244432 Z M37.3226856,26.1862664 C37.3226856,26.4940066 37.0723362,26.7444323 36.7645197,26.7444323 L2.36204148,26.7444323 C2.05430131,26.7444323 1.80387555,26.494083 1.80387555,26.1862664 L1.80387555,21.4457533 L37.3226856,21.4457533 L37.3226856,26.1862664 Z M37.322762,19.6417249 L1.80395197,19.6417249 L1.80395197,2.43364629 C1.80395197,2.12590611 2.05430131,1.87548035 2.3621179,1.87548035 L36.7645197,1.87548035 C37.0722598,1.87548035 37.322762,2.12582969 37.322762,2.43364629 L37.322762,19.6417249 L37.322762,19.6417249 Z" id="Shape"></path>
                <circle id="Oval" cx="19.563548" cy="24.0953603" r="1"></circle>
                <path d="M21.1098908,6.28578603 C20.7575983,5.93356987 20.1866703,5.93356987 19.8342249,6.28578603 L13.4597926,12.6602183 C13.1075764,13.0124345 13.1075764,13.5835917 13.4597926,13.9358843 C13.6360153,14.1120306 13.8667249,14.2000655 14.0976638,14.2000655 C14.3286026,14.2000655 14.5593122,14.1120306 14.7354585,13.9358843 L21.1098908,7.56145197 C21.462107,7.20923581 21.462107,6.6380786 21.1098908,6.28578603 Z" id="Path"></path>
                <path d="M24.8880568,9.97981441 C24.535917,9.62759825 23.9649891,9.62759825 23.6124672,9.97973799 L21.0730568,12.5189956 C20.7208406,12.8712882 20.7208406,13.4424454 21.0730568,13.7946616 C21.2492031,13.9708079 21.4799891,14.0588428 21.7108515,14.0588428 C21.9416376,14.0588428 22.1725,13.9708079 22.3486463,13.7946616 L24.8880568,11.2554039 C25.2402729,10.9031878 25.2402729,10.3320306 24.8880568,9.97981441 Z" id="Path"></path>
            </g>
        </g>
    </g>
</svg>